<svg width="41" height="44" viewBox="0 0 41 44" fill="none" xmlns="http://www.w3.org/2000/svg">
<path d="M8.68567 29.5159C8.63298 29.3817 8.4749 29.1132 8.55394 28.979C8.63298 28.8716 8.81741 28.8984 8.92279 28.8984C9.31799 28.9253 9.68685 29.0058 10.082 29.0595C10.8988 29.1669 11.7155 29.3011 12.5323 29.4891C14.1394 29.8381 15.6939 30.4019 17.0376 31.3684C17.3537 31.5832 17.6699 31.2342 17.6172 30.912C17.1693 28.3078 16.8531 25.4887 17.907 22.9918C18.0124 22.7233 18.1441 22.4548 18.3022 22.2132C18.4339 21.9716 18.6184 21.5957 18.8291 21.4346C18.9082 21.3809 18.7764 21.3541 18.8555 21.4078C18.8818 21.4346 18.9345 21.4883 18.9609 21.542C19.0399 21.6494 19.1189 21.7836 19.198 21.891C19.3561 22.1327 19.5141 22.4011 19.6722 22.6696C20.2255 23.6899 20.568 24.8175 20.7524 25.972C20.9369 27.2875 20.8578 28.6299 20.5153 29.9186C20.4099 30.3214 20.8842 30.5898 21.174 30.3214C23.8613 27.6365 27.4445 25.9183 31.1857 25.5961C31.0803 25.5424 30.9486 25.4618 30.8432 25.4081C31.2647 25.9988 31.0013 26.7774 30.7641 27.3949C30.527 28.0124 30.2109 28.6031 29.8684 29.1669C29.157 30.2945 28.2085 31.2611 27.1283 32.0128C26.0218 32.7914 24.7835 33.3015 23.4661 33.57C22.1488 33.8385 20.7261 34.1607 20.1465 35.5568C19.8566 36.228 19.804 36.926 19.7776 37.6509C19.7249 38.5906 19.6986 39.5303 19.6722 40.4431C19.6722 41.1412 19.8303 42.1346 19.3561 42.7252C19.0136 43.1817 18.3285 43.2622 18.1968 42.591C18.0651 41.8929 18.3812 41.0606 18.5657 40.3894C18.7764 39.584 18.9872 38.7786 19.1189 37.9463C19.2243 37.2214 19.3034 36.4159 19.1716 35.691C19.1189 35.3688 18.9609 35.0467 18.671 34.8856C18.3285 34.6976 17.907 34.6708 17.5381 34.6439C16.5633 34.5634 15.6412 34.5365 14.6927 34.2949C13.7969 34.0533 12.9275 33.6774 12.1371 33.1673C10.688 32.2276 9.50242 30.9926 8.68567 29.5159C8.44855 29.0595 7.76354 29.4622 8.00066 29.9186C8.94914 31.6638 10.4246 33.1136 12.1634 34.0533C13.1119 34.5634 14.1131 34.9393 15.1669 35.154C15.7466 35.2614 16.3262 35.342 16.9058 35.342C17.2747 35.342 18.1968 35.2614 18.3549 35.691C18.4866 36.0937 18.4076 36.6307 18.4076 37.0334C18.3812 37.6241 18.2758 38.1879 18.1441 38.7786C17.907 39.8256 17.5381 40.8727 17.4064 41.9198C17.3274 42.7252 17.5908 43.6918 18.513 43.826C19.4088 43.9334 20.1465 43.1817 20.3572 42.3762C20.489 41.8929 20.4626 41.356 20.4626 40.8727C20.4626 40.2552 20.4626 39.6377 20.489 38.9933C20.5153 38 20.4626 36.8186 20.8578 35.8521C21.2267 34.9393 22.1225 34.6439 23.0182 34.4291C23.8877 34.2412 24.7571 34.0533 25.6002 33.7042C27.2074 33.033 28.6828 31.9323 29.7893 30.563C30.3426 29.8649 30.8432 29.1132 31.212 28.3078C31.5809 27.5023 31.9761 26.5626 31.818 25.6498C31.739 25.1934 31.5282 24.6832 31.0276 24.7369C30.5534 24.7906 30.0791 24.8443 29.6049 24.9249C28.6301 25.1128 27.6816 25.3544 26.7595 25.7035C24.9152 26.4015 23.2027 27.3949 21.7009 28.6836C21.3321 29.0058 20.9632 29.328 20.6207 29.677C20.8315 29.8113 21.0686 29.9455 21.2794 30.0797C21.9907 27.4486 21.6219 24.5759 20.3309 22.1864C20.1728 21.891 20.0147 21.6225 19.8303 21.3541C19.6459 21.0856 19.4614 20.7366 19.198 20.6023C18.5393 20.2264 18.0387 21.1393 17.7489 21.5957C17.0112 22.8039 16.616 24.2 16.4843 25.5961C16.2999 27.4486 16.537 29.328 16.8531 31.1537C17.0376 30.9926 17.2483 30.8583 17.4328 30.6972C15.7729 29.5159 13.8233 28.9253 11.8736 28.5494C10.9251 28.3614 9.95031 28.1735 8.97549 28.1198C8.55394 28.093 8.0797 28.2004 7.86893 28.6031C7.63181 29.0327 7.78989 29.5428 8.00066 29.9455C8.23778 30.4019 8.92279 29.9723 8.68567 29.5159Z" fill="#EDEDED"/>
<path d="M15.9041 34.7235C15.3245 35.3679 14.6395 35.9317 13.9544 36.4418C13.2167 37.0056 12.4527 37.5426 11.6359 37.9185C9.89706 38.7239 7.76299 37.8916 7.13067 35.9854C6.81451 35.0189 6.76182 33.7838 7.44683 32.9516C7.68395 32.6562 7.47318 32.1998 7.05163 32.2803C4.83851 32.7905 2.78348 31.3407 1.72961 29.4076C1.20268 28.4142 0.88652 27.3134 0.833827 26.1858C0.781133 25.0313 1.01825 23.85 1.99308 23.1251C3.09964 22.3197 4.52235 22.4808 5.81334 22.615C6.15584 22.6418 6.26123 22.266 6.15584 21.9975C4.83851 18.9905 3.44214 15.715 4.12715 12.359C4.39062 11.0166 5.02294 9.64731 6.23488 8.94926C7.42048 8.25121 8.89589 8.3049 10.1078 8.92241C11.6096 9.67416 12.7425 11.0703 13.5856 12.5201C13.7964 12.8691 14.297 12.708 14.3233 12.3053C14.4814 8.27805 16.3256 4.03604 19.9878 2.12982C21.6477 1.27067 23.7554 0.921648 25.547 1.53916C27.4966 2.21036 28.366 4.11658 28.8139 5.99596C29.0774 7.15043 29.2355 8.33175 29.2882 9.51307C29.3409 10.6944 29.2882 11.9294 28.8139 13.0302C28.6822 13.3255 28.893 13.7282 29.2618 13.6208C30.9217 13.1107 32.7132 12.6006 34.4521 12.9228C35.9802 13.2181 37.2712 14.131 38.167 15.4465C39.8532 17.9434 40.0639 21.6753 38.1406 24.1453C36.9814 25.622 35.1898 26.0784 33.4509 26.4811C33.1875 26.5348 33.1084 26.857 33.2138 27.0718C34.5312 29.5955 36.27 33.3274 33.8988 35.8243C33.0821 36.6834 31.8965 37.1667 30.7109 37.0862C29.6043 37.0056 28.4978 36.415 27.5493 35.9049C26.3637 35.2605 25.1781 34.4819 24.1769 33.5422C23.8081 33.1932 23.2548 33.757 23.6237 34.106C24.5985 35.0457 25.7577 35.7975 26.9433 36.4687C28.0499 37.0862 29.2882 37.7305 30.5792 37.8648C31.8965 37.999 33.2402 37.5157 34.215 36.6298C35.3742 35.5827 35.9012 34.0255 35.8485 32.4683C35.7694 30.401 34.821 28.4679 33.8988 26.6691C33.8198 26.857 33.7408 27.0718 33.6617 27.2597C35.3742 26.857 37.1395 26.4006 38.3778 25.0582C39.537 23.85 40.1166 22.1586 40.2747 20.5208C40.5645 17.1648 38.6676 13.4061 35.4006 12.359C33.3192 11.6878 31.0797 12.2247 29.0511 12.8691C29.2091 13.057 29.3409 13.2718 29.499 13.4598C30.4211 11.3387 30.1576 8.84187 29.7361 6.61347C29.3672 4.54615 28.6032 2.31775 26.7326 1.21698C24.9146 0.14305 22.5171 0.277291 20.5938 1.02904C18.5388 1.80764 16.8526 3.28429 15.667 5.10997C14.297 7.25782 13.5856 9.8084 13.4802 12.359C13.7173 12.2784 13.9808 12.2247 14.2179 12.1442C12.7162 9.51307 9.79168 6.69401 6.5247 7.92903C3.31041 9.1372 2.83617 13.2718 3.3631 16.252C3.73196 18.3998 4.60139 20.4134 5.47083 22.4002C5.57622 22.1854 5.70795 21.9975 5.81334 21.7827C4.46966 21.6485 3.04694 21.5411 1.835 22.266C0.702093 22.9372 0.122468 24.1453 0.0434279 25.4609C-0.0883052 28.0383 1.12364 30.8574 3.25772 32.2803C4.44331 33.0589 5.89238 33.3543 7.2624 33.0589C7.13067 32.8442 6.99894 32.6025 6.8672 32.3877C5.41814 34.1597 6.1295 37.113 7.92107 38.348C8.86955 38.9924 10.0815 39.1803 11.188 38.9118C12.1102 38.6971 12.9796 38.1064 13.7437 37.5426C14.6921 36.8714 15.6143 36.1465 16.4047 35.2605C16.7999 34.9115 16.2466 34.3477 15.9041 34.7235Z" fill="#EDEDED"/>
</svg>
