<svg width="45" height="28" viewBox="0 0 45 28" fill="none" xmlns="http://www.w3.org/2000/svg">
<path d="M16.5088 4.02361C15.0479 4.32934 13.5628 4.56452 12.0532 4.70562C10.7872 4.82321 9.47243 4.89376 8.20638 4.84673C6.35599 4.77618 4.52995 4.49396 2.70391 4.23527C2.36305 4.18823 2.04654 4.1412 1.70568 4.09416C1.5109 4.07065 1.31612 4.02361 1.12134 4.04713C0.926565 4.07065 0.804829 4.30582 0.877871 4.47045C1.17004 5.36412 1.38916 6.25779 1.53525 7.19849C1.68133 8.18623 1.80306 9.19749 1.90045 10.1852C2.09523 12.1372 2.21697 14.0892 2.21697 16.0646C2.21697 18.0401 2.11958 20.0156 1.9248 21.9911C1.82741 22.9788 1.70568 23.9666 1.55959 24.9308C1.5109 25.3071 1.4622 25.7304 1.80306 26.0126C2.09523 26.2478 2.55783 26.2243 2.92304 26.2478C6.76989 26.483 10.6167 25.8715 14.3906 25.26C18.1644 24.6486 21.9869 24.0136 25.8094 24.2017C29.705 24.3899 33.4057 25.5658 37.0578 26.7887C37.983 27.0944 38.8838 27.4001 39.809 27.6824C40.2473 27.8235 40.7342 28.0351 41.1968 27.9881C41.5864 27.9411 41.8785 27.7294 42.0733 27.4002C42.2924 27.0709 42.3898 26.6476 42.5116 26.2713C42.6577 25.8245 42.8037 25.3776 42.9255 24.9308C43.1689 24.0606 43.3881 23.167 43.5585 22.2733C44.2646 18.6516 44.4107 14.9358 44.1428 11.267C44.0211 9.40915 43.7776 7.57478 43.4611 5.7404C43.315 4.91728 43.242 3.95306 42.682 3.27105C42.1707 2.65959 41.3429 2.23627 40.6125 1.8835C37.5204 0.378375 33.9414 0.143199 30.5328 0.590034C26.6859 1.03687 23.0338 2.33034 19.3087 3.3416C18.3835 3.60029 17.4583 3.83547 16.5088 4.02361C16.0462 4.11768 16.241 4.79969 16.7035 4.70562C23.5938 3.24753 30.6788 -0.327154 37.8856 1.57778C38.6647 1.78943 39.4195 2.04813 40.1255 2.37738C40.4908 2.542 40.8316 2.73014 41.1725 2.9418C41.5377 3.15346 41.9272 3.38863 42.1707 3.71788C42.4142 4.04713 42.4872 4.47045 42.5603 4.87025C42.6577 5.3406 42.7307 5.78743 42.8037 6.25779C42.9498 7.15146 43.0716 8.04513 43.1933 8.96232C43.6072 12.5135 43.6559 16.1117 43.2176 19.6393C42.9985 21.3796 42.6577 23.1199 42.1707 24.8132C42.049 25.2365 41.9272 25.6363 41.8055 26.0361C41.6838 26.3654 41.6107 26.8357 41.3429 27.1179C41.0507 27.4002 40.4908 27.1179 40.1499 27.0004C39.6873 26.8592 39.2247 26.6946 38.7378 26.5535C35.2074 25.4011 31.6527 24.1312 27.952 23.6373C20.5261 22.6731 13.2949 25.213 5.91774 25.5187C5.01689 25.5658 4.14039 25.5658 3.23955 25.5187C3.02042 25.5187 2.8013 25.4952 2.55783 25.4717C2.3874 25.4717 2.24131 25.4952 2.21697 25.3071C2.19262 25.1189 2.26566 24.8602 2.29001 24.6721C2.3387 24.4134 2.36305 24.1547 2.41174 23.896C2.67956 21.9911 2.82565 20.0862 2.89869 18.1577C3.02042 14.3714 2.77695 10.5615 2.21697 6.82221C2.09523 5.95206 1.87611 5.12894 1.58394 4.2823C1.5109 4.42341 1.41351 4.56452 1.34047 4.70562C1.17004 4.72914 1.29177 4.70562 1.36481 4.72914C1.43786 4.75266 1.26743 4.70562 1.36481 4.72914C1.38916 4.72914 1.38916 4.72914 1.41351 4.72914C1.4622 4.72914 1.5109 4.75266 1.58394 4.75266C1.87611 4.79969 2.19262 4.84673 2.48479 4.89376C3.38563 5.03487 4.28648 5.15246 5.18732 5.24653C6.13687 5.36412 7.08641 5.45819 8.03595 5.52874C9.25331 5.59929 10.495 5.52874 11.7367 5.43467C13.3923 5.29356 15.0479 5.05839 16.7035 4.70562C17.1661 4.61155 16.9714 3.92954 16.5088 4.02361Z" fill="#EDEDED"/>
<path d="M8.61948 14.3948C10.202 13.3835 11.7846 12.3723 13.3915 11.3375C15.9236 9.73828 18.4557 8.11556 20.9879 6.49284C21.5722 6.11656 22.1565 5.74028 22.7409 5.36399C22.6191 5.36399 22.4974 5.36399 22.3756 5.36399C24.0069 6.21063 25.6382 7.05726 27.2451 7.92742C29.8259 9.29144 32.431 10.6319 35.0118 11.996C35.5962 12.3017 36.2048 12.6074 36.7892 12.9367C36.7892 12.725 36.7892 12.5369 36.7892 12.3252C35.1823 13.4305 33.5754 14.5594 31.9684 15.6647C29.412 17.4285 26.8312 19.2159 24.2747 20.9797C23.6904 21.3795 23.1061 21.8028 22.5217 22.2026C22.6435 22.2026 22.7652 22.2026 22.8869 22.2026C21.28 21.2619 19.6731 20.3212 18.0662 19.357C15.5097 17.8519 12.9533 16.3467 10.3725 14.8181C9.78814 14.4653 9.17947 14.1126 8.59513 13.7833C8.18123 13.5481 7.81602 14.1596 8.22992 14.3948C9.83684 15.3355 11.4438 16.2762 13.0507 17.2404C15.6071 18.7455 18.1636 20.2507 20.7444 21.7793C21.3287 22.1321 21.9374 22.4848 22.5217 22.8141C22.6191 22.8846 22.7895 22.8846 22.8869 22.8141C24.4938 21.7088 26.1008 20.5799 27.7077 19.4746C30.2641 17.7108 32.8449 15.9234 35.4014 14.1596C35.9857 13.7598 36.5701 13.3365 37.1544 12.9367C37.3735 12.7956 37.4222 12.4663 37.1544 12.3252C35.5231 11.4786 33.8919 10.6319 32.285 9.76179C29.7041 8.39777 27.099 7.05726 24.5182 5.69324C23.9339 5.38751 23.3252 5.08178 22.7409 4.75254C22.6191 4.7055 22.473 4.68198 22.3756 4.75254C20.7931 5.76379 19.2105 6.77505 17.6036 7.80983C15.0715 9.43255 12.5394 11.0553 10.0073 12.678C9.42294 13.0543 8.8386 13.4305 8.25427 13.8068C7.86472 14.042 8.22992 14.6535 8.61948 14.3948Z" fill="#EDEDED"/>
<path d="M23.3009 8.42128C29.6312 9.85585 29.1929 21.0502 21.9374 19.1453C14.682 17.2404 16.9706 6.9867 23.3009 8.42128Z" stroke="#EDEDED" stroke-width="0.5" stroke-miterlimit="10"/>
<path d="M17.8716 13.9008C19.235 12.9836 20.842 12.6544 22.4732 12.5603C24.0071 12.4662 25.7114 12.3722 27.1235 13.1012C27.5374 13.3129 27.9026 12.7014 27.4887 12.4897C25.9549 11.7137 24.1532 11.7607 22.4732 11.8548C20.7202 11.9724 18.9672 12.3251 17.5064 13.3129C17.1168 13.548 17.482 14.1595 17.8716 13.9008Z" fill="#EDEDED"/>
<path d="M18.3583 16.2056C19.7948 15.6647 21.2556 15.1473 22.7652 14.9356C23.5443 14.8416 24.3234 14.7945 25.1025 14.7945C25.8329 14.7945 26.5633 14.8416 27.245 15.1473C27.6589 15.3354 28.0485 14.724 27.6102 14.5358C26.9042 14.2301 26.1494 14.1125 25.3703 14.089C24.5425 14.0655 23.7147 14.1125 22.8869 14.2066C21.2556 14.3947 19.6974 14.9356 18.1635 15.5236C17.7253 15.6882 17.9201 16.3702 18.3583 16.2056Z" fill="#EDEDED"/>
</svg>
