<svg width="41" height="46" viewBox="0 0 41 46" fill="none" xmlns="http://www.w3.org/2000/svg"><path d="M3.66604 18.1374C3.74883 17.1058 4.21716 16.1432 4.97776 15.4414C5.73836 14.7395 6.73541 14.3499 7.77035 14.3501H32.5897C33.6247 14.3499 34.6217 14.7395 35.3823 15.4414C36.1429 16.1432 36.6113 17.1058 36.6941 18.1374L38.3469 38.7208C38.3924 39.2872 38.3201 39.8569 38.1345 40.394C37.949 40.9312 37.6543 41.4241 37.269 41.8417C36.8836 42.2593 36.416 42.5927 35.8955 42.8207C35.375 43.0488 34.8129 43.1666 34.2446 43.1668H6.11545C5.54719 43.1666 4.98512 43.0488 4.46463 42.8207C3.94413 42.5927 3.47649 42.2593 3.09114 41.8417C2.70578 41.4241 2.41107 40.9312 2.22556 40.394C2.04004 39.8569 1.96773 39.2872 2.01319 38.7208L3.66604 18.1374V18.1374Z" stroke="#0A0A0A" stroke-width="3.91667" stroke-linecap="round" stroke-linejoin="round"></path><path d="M28.4133 20.525V10.2333C28.4133 8.04972 27.5459 5.95554 26.0018 4.41149C24.4578 2.86744 22.3636 2 20.18 2C17.9964 2 15.9022 2.86744 14.3581 4.41149C12.8141 5.95554 11.9467 8.04972 11.9467 10.2333V20.525" stroke="#0A0A0A" stroke-width="3.91667" stroke-linecap="round" stroke-linejoin="round"></path></svg>