<svg width="53" height="33" viewBox="0 0 53 33" fill="none" xmlns="http://www.w3.org/2000/svg">
<g clip-path="url(#clip0_685_1435)">
<path d="M36.2224 22.9804C37.0796 23.4063 37.7905 24.0554 38.146 24.9275C38.5014 25.7186 38.5432 26.6313 38.3969 27.4832C38.1041 29.2478 37.0169 31.0123 35.386 31.8845C34.6124 32.2902 33.7342 32.493 32.856 32.3307C31.7061 32.1279 30.6815 31.4383 29.9079 30.5864C29.1343 29.7548 28.6325 28.6798 28.6116 27.544C28.5907 26.5096 28.9252 25.4954 29.5316 24.6436C30.807 22.8181 33.1697 21.946 35.3442 22.595C35.6369 22.737 35.9296 22.8384 36.2224 22.9804C36.5778 23.1629 36.8914 22.6356 36.536 22.453C35.3233 21.8648 33.9851 21.662 32.647 21.9257C31.4761 22.1691 30.3888 22.7978 29.5734 23.6497C27.8798 25.4143 27.4407 28.0714 28.7788 30.1605C30.0125 32.1279 32.5215 33.5883 34.9051 32.7769C36.8914 32.1076 38.3132 30.2619 38.8568 28.335C39.4214 26.3676 39.0241 24.1568 37.2678 22.879C37.0378 22.7167 36.7869 22.5747 36.536 22.453C36.1805 22.2705 35.8669 22.7978 36.2224 22.9804Z" fill="#EDEDED"/>
<path d="M32.668 29.3289C32.4798 29.3289 32.3335 29.2884 32.1871 29.2275C32.0617 29.1464 31.9571 29.045 31.8735 28.9436C31.769 28.7813 31.748 28.6799 31.6853 28.4771C31.6853 28.4568 31.6853 28.4365 31.6853 28.4162C31.6644 28.3351 31.6853 28.4771 31.6853 28.3959C31.6853 28.3554 31.6853 28.2945 31.6644 28.254C31.6644 28.1525 31.6644 28.0511 31.6644 27.9497C31.6644 27.828 31.6644 27.828 31.7062 27.7063C31.7271 27.6049 31.748 27.5035 31.7899 27.4021C31.8526 27.2195 31.9153 27.0776 32.0408 26.895C32.1035 26.7936 32.1035 26.7936 32.1871 26.7125C32.2289 26.6719 32.2499 26.6516 32.2917 26.6111C32.3544 26.5502 32.3335 26.5705 32.3753 26.5299C32.5635 26.4082 32.6471 26.3677 32.8771 26.3271C32.9398 26.3068 32.898 26.3271 32.8771 26.3271C32.898 26.3271 32.9398 26.3271 32.9607 26.3271C33.0235 26.3271 33.0653 26.3271 33.128 26.3271C33.2535 26.3271 33.3371 26.3677 33.5044 26.3879C33.6926 26.4082 33.9853 26.4894 34.1107 26.5502C34.4871 26.7125 34.6962 26.9153 34.8634 27.2601C34.8425 27.1993 34.8843 27.321 34.8843 27.321C34.9053 27.3615 34.9053 27.4021 34.9262 27.4426C34.9471 27.4832 34.9471 27.5238 34.9471 27.5643C34.9471 27.5846 34.9471 27.6049 34.968 27.6252C34.968 27.6455 34.968 27.6455 34.968 27.6049C34.968 27.6252 34.968 27.6455 34.968 27.6658C34.968 27.7469 34.968 27.828 34.968 27.9294C34.968 27.97 34.968 28.0106 34.968 28.0511C34.968 28.0714 34.968 28.0917 34.968 28.112C34.968 28.0308 34.968 28.1525 34.968 28.1525C34.9471 28.2337 34.9262 28.3148 34.9053 28.3959C34.8843 28.4365 34.8843 28.4771 34.8634 28.5176C34.8634 28.5379 34.8425 28.5582 34.8425 28.5582C34.8634 28.4974 34.8216 28.5785 34.8216 28.5988C34.7798 28.6799 34.738 28.761 34.6962 28.8219C34.6753 28.8624 34.6543 28.903 34.6125 28.9233C34.6125 28.9436 34.5707 28.9841 34.6125 28.9436C34.5916 28.9639 34.5707 28.9841 34.5707 29.0044C34.508 29.0855 34.4244 29.1464 34.3407 29.2275C34.3407 29.2275 34.278 29.2884 34.3198 29.2478C34.3407 29.2275 34.278 29.2884 34.2571 29.2884C34.2153 29.3087 34.1735 29.3289 34.1316 29.3695C34.0898 29.3898 34.048 29.4101 34.0062 29.4304C33.9225 29.4709 34.0689 29.4101 33.9853 29.4304C33.9644 29.4304 33.9435 29.4506 33.9016 29.4506C33.8598 29.4709 33.7971 29.4709 33.7553 29.4912C33.7344 29.4912 33.7135 29.4912 33.6926 29.5115C33.6716 29.5115 33.6716 29.5115 33.7135 29.5115C33.6926 29.5115 33.6716 29.5115 33.6507 29.5115C33.1698 29.5318 32.7307 29.3695 32.3126 29.045C32.1871 28.9436 31.9989 28.9233 31.8735 29.045C31.769 29.1464 31.748 29.3695 31.8735 29.4709C32.3335 29.8157 32.8771 30.0997 33.4835 30.12C33.9644 30.12 34.4244 29.9577 34.7798 29.6535C35.4698 29.0855 35.7834 28.0917 35.5325 27.2398C35.4071 26.7733 35.1143 26.3879 34.6962 26.1243C34.4662 25.9823 34.2153 25.8809 33.9644 25.82C33.818 25.7795 33.6298 25.7592 33.5253 25.7389C33.3789 25.7186 33.2326 25.6781 33.0653 25.6781C31.978 25.6578 31.2253 26.6111 31.0581 27.5643C30.9535 28.0917 30.9953 28.6596 31.2671 29.1464C31.539 29.6332 32.0617 29.9171 32.6262 29.9171C33.0653 29.9577 33.0653 29.3492 32.668 29.3289Z" fill="#EDEDED"/>
<path d="M13.7453 22.9804C14.6026 23.4063 15.3135 24.0554 15.6689 24.9275C16.0244 25.7186 16.0662 26.6313 15.9198 27.4832C15.6271 29.2478 14.5398 31.0123 12.909 31.8845C12.1353 32.2902 11.2572 32.493 10.379 32.3307C9.22902 32.1279 8.20449 31.4383 7.43086 30.5864C6.65724 29.7548 6.15543 28.6798 6.13452 27.544C6.11361 26.5096 6.44815 25.4954 7.05451 24.6436C8.32994 22.8181 10.6926 21.946 12.8671 22.595C13.1808 22.737 13.4735 22.8384 13.7453 22.9804C14.1007 23.1629 14.4144 22.6356 14.0589 22.453C12.8462 21.8648 11.5081 21.662 10.1699 21.9257C8.99902 22.1691 7.91177 22.7978 7.09632 23.6497C5.40272 25.4143 4.96363 28.0714 6.30179 30.1605C7.53541 32.1279 10.0445 33.5883 12.4281 32.7769C14.4144 32.1076 15.8362 30.2619 16.3798 28.335C16.9443 26.3676 16.5471 24.1568 14.7907 22.879C14.5607 22.7167 14.3098 22.5747 14.0589 22.453C13.7035 22.2705 13.3899 22.7978 13.7453 22.9804Z" fill="#EDEDED"/>
<path d="M10.191 29.3289C10.0028 29.3289 9.85643 29.2884 9.71007 29.2275C9.58462 29.1464 9.48008 29.045 9.39644 28.9436C9.2919 28.7813 9.27099 28.6799 9.20826 28.4771C9.20826 28.4568 9.20826 28.4365 9.20826 28.4162C9.18736 28.3351 9.20826 28.4771 9.20826 28.3959C9.20826 28.3554 9.20826 28.2945 9.18735 28.254C9.18735 28.1525 9.18735 28.0511 9.18735 27.9497C9.18735 27.828 9.18736 27.828 9.22917 27.7063C9.25008 27.6049 9.27099 27.5035 9.31281 27.4021C9.37553 27.2195 9.43826 27.0776 9.56371 26.895C9.62644 26.7936 9.62644 26.7936 9.71007 26.7125C9.75189 26.6719 9.7728 26.6516 9.81462 26.6111C9.87734 26.5502 9.85643 26.5705 9.89825 26.5299C10.0864 26.4082 10.1701 26.3677 10.4001 26.3271C10.4628 26.3068 10.421 26.3271 10.4001 26.3271C10.421 26.3271 10.4628 26.3271 10.4837 26.3271C10.5464 26.3271 10.5882 26.3271 10.651 26.3271C10.7764 26.3271 10.8601 26.3677 11.0273 26.3879C11.2155 26.4082 11.5082 26.4894 11.6337 26.5502C12.01 26.7125 12.2191 26.9153 12.3864 27.2601C12.3655 27.1993 12.4073 27.321 12.4073 27.321C12.4282 27.3615 12.4282 27.4021 12.4491 27.4426C12.47 27.4832 12.47 27.5238 12.47 27.5643C12.47 27.5846 12.47 27.6049 12.4909 27.6252C12.4909 27.6455 12.4909 27.6455 12.4909 27.6049C12.4909 27.6252 12.4909 27.6455 12.4909 27.6658C12.4909 27.7469 12.4909 27.828 12.4909 27.9294C12.4909 27.97 12.4909 28.0106 12.4909 28.0511C12.4909 28.0714 12.4909 28.0917 12.4909 28.112C12.4909 28.0308 12.4909 28.1525 12.4909 28.1525C12.47 28.2337 12.4491 28.3148 12.4282 28.3959C12.4073 28.4365 12.4073 28.4771 12.3864 28.5176C12.3864 28.5379 12.3655 28.5582 12.3655 28.5582C12.3864 28.4974 12.3446 28.5785 12.3446 28.5988C12.3028 28.6799 12.2609 28.761 12.2191 28.8219C12.1982 28.8624 12.1773 28.903 12.1355 28.9233C12.1355 28.9436 12.0937 28.9841 12.1355 28.9436C12.1146 28.9639 12.0937 28.9841 12.0937 29.0044C12.0309 29.0855 11.9473 29.1464 11.8637 29.2275C11.8637 29.2275 11.8009 29.2884 11.8428 29.2478C11.8637 29.2275 11.8009 29.2884 11.78 29.2884C11.7382 29.3087 11.6964 29.3289 11.6546 29.3695C11.6128 29.3898 11.5709 29.4101 11.5291 29.4304C11.4455 29.4709 11.5919 29.4101 11.5082 29.4304C11.4873 29.4304 11.4664 29.4506 11.4246 29.4506C11.3828 29.4709 11.32 29.4709 11.2782 29.4912C11.2573 29.4912 11.2364 29.4912 11.2155 29.5115C11.1946 29.5115 11.1946 29.5115 11.2364 29.5115C11.2155 29.5115 11.1946 29.5115 11.1737 29.5115C10.6928 29.5318 10.2537 29.3695 9.83553 29.045C9.71007 28.9436 9.52189 28.9233 9.39644 29.045C9.2919 29.1464 9.27099 29.3695 9.39644 29.4709C9.85643 29.8157 10.4001 30.0997 11.0064 30.12C11.4873 30.12 11.9473 29.9577 12.3028 29.6535C12.9927 29.0855 13.3064 28.0917 13.0555 27.2398C12.93 26.7733 12.6373 26.3879 12.2191 26.1243C11.9891 25.9823 11.7382 25.8809 11.4873 25.82C11.341 25.7795 11.1528 25.7592 11.0482 25.7389C10.9019 25.7186 10.7555 25.6781 10.5882 25.6781C9.50099 25.6578 8.74827 26.6111 8.581 27.5643C8.47646 28.0917 8.51828 28.6596 8.79009 29.1464C9.0619 29.6332 9.58462 29.9171 10.1492 29.9171C10.5882 29.9577 10.6091 29.3492 10.191 29.3289Z" fill="#EDEDED"/>
<path d="M19.4117 27.2194C19.3071 27.2194 19.1817 27.1992 19.0771 27.2194H19.0144C19.0144 27.2194 19.0771 27.3209 19.0981 27.3209C19.119 27.3209 19.0771 27.118 19.0771 27.0978C19.0562 26.8544 19.0144 26.6312 18.9726 26.4081C18.889 25.9822 18.7635 25.536 18.6172 25.1303C18.3244 24.3596 17.9272 23.67 17.3835 23.0412C16.4008 21.8851 15.0418 21.0738 13.5572 20.6681C12.1145 20.2828 10.5464 20.2625 9.08278 20.6073C7.7028 20.9318 6.36464 21.6011 5.38193 22.6558C4.3574 23.7511 3.83468 25.1709 3.85559 26.6313C3.85559 26.8341 3.8765 27.0369 3.89741 27.2397C4.00195 27.1383 4.1065 27.0369 4.21104 26.9355C3.10288 26.8138 1.99472 26.611 0.907463 26.4081C0.991098 26.5096 1.05382 26.611 1.13746 26.6921C1.11655 25.8402 1.11655 24.9883 1.09564 24.1365C1.05382 22.0879 1.01201 20.0394 0.991098 17.9705C0.928372 15.4757 0.886555 13.0013 0.823828 10.5065C0.80292 8.37679 0.761102 6.22682 0.719285 4.07685C0.698376 3.36695 0.698376 2.67734 0.677467 1.96744C0.677467 1.64292 0.719285 1.27783 0.656559 0.953307C0.656559 0.933025 0.656559 0.933025 0.656559 0.912742C0.552015 1.01416 0.447471 1.11557 0.342928 1.21698C1.32564 1.1967 2.28744 1.17642 3.27015 1.15613C5.61193 1.11557 7.97461 1.05472 10.3164 1.01416C13.16 0.953308 15.9827 0.892459 18.8262 0.831611C21.2935 0.770763 23.7398 0.730197 26.207 0.669349C27.0016 0.649067 27.817 0.628784 28.6115 0.628784C28.9879 0.628784 29.3851 0.649067 29.7615 0.608501C29.7824 0.608501 29.8033 0.608501 29.8033 0.608501C29.6988 0.507087 29.5942 0.405674 29.4897 0.30426C29.4897 1.17642 29.5106 2.04858 29.5315 2.92073C29.5524 4.92872 29.5942 6.93671 29.6361 8.9447C29.6779 11.1758 29.7406 13.4069 29.8242 15.638C29.887 17.1998 29.9079 18.7615 30.096 20.303C30.096 20.3436 30.117 20.4044 30.117 20.445C30.117 20.5059 30.1379 20.587 30.1379 20.6478C30.1379 20.587 30.2424 20.5464 30.096 20.6276C30.0542 20.6478 29.9915 20.6884 29.9497 20.729C29.5942 20.9724 29.2388 21.236 28.9252 21.52C28.3188 22.0473 27.7752 22.6558 27.3361 23.3049C26.5416 24.5218 26.1234 26.0025 26.4788 27.4426C26.5625 27.7874 26.7088 28.1322 26.8552 28.4567C26.9388 28.2944 27.0434 28.1525 27.127 27.9902C25.1825 27.8076 23.2589 27.6048 21.3353 27.402C20.708 27.3614 20.0599 27.2803 19.4117 27.2194C19.0144 27.1789 19.0144 27.7874 19.4117 27.8279C21.7535 28.0713 24.1161 28.3147 26.4579 28.5378C26.6879 28.5581 26.9179 28.5784 27.1479 28.5987C27.3988 28.619 27.5034 28.335 27.4197 28.1322C26.7716 26.8341 26.9179 25.3737 27.587 24.1162C27.9634 23.4266 28.4443 22.8181 29.0088 22.2705C29.3224 21.9662 29.657 21.6823 29.9915 21.4389C30.2842 21.236 30.7651 21.0332 30.7651 20.6276C30.7651 20.3639 30.6815 20.0596 30.6606 19.7757C30.6397 19.4512 30.5979 19.1266 30.5769 18.8021C30.5142 17.93 30.4724 17.0781 30.4515 16.2059C30.3679 14.0154 30.3051 11.8249 30.2633 9.63432C30.2215 7.56548 30.1797 5.51692 30.1588 3.44808C30.1379 2.41366 30.1588 1.35896 30.117 0.324543C30.117 0.30426 30.117 0.30426 30.117 0.283977C30.117 0.121715 29.9706 -0.0202637 29.8033 -0.0202637C28.8206 1.90623e-05 27.8588 0.0203018 26.8761 0.0405845C24.5343 0.101433 22.1925 0.162281 19.8299 0.202846C17.0072 0.263695 14.1636 0.324543 11.32 0.385391C8.87369 0.425956 6.40646 0.486805 3.96014 0.52737C2.76834 0.567936 1.57654 0.547653 0.384745 0.608501C0.384745 0.608501 0.363836 0.608501 0.342928 0.608501C0.175658 0.608501 0.0292969 0.75048 0.0292969 0.912742C0.0502056 1.76462 0.0502056 2.61649 0.0711143 3.46837C0.112932 5.51692 0.154749 7.56548 0.175658 9.63432C0.238384 12.1291 0.280202 14.6036 0.322019 17.0984C0.363836 19.2281 0.405654 21.378 0.447471 23.528C0.46838 24.5624 0.447471 25.6171 0.510198 26.6515C0.510198 26.6718 0.510198 26.6718 0.510198 26.6921C0.510198 26.8138 0.614741 26.9558 0.740194 26.9761C1.89017 27.1789 3.04015 27.402 4.21104 27.5237C4.37831 27.544 4.54558 27.3614 4.52467 27.2194C4.37831 25.8402 4.69194 24.4204 5.59102 23.3252C6.42737 22.2907 7.64007 21.6011 8.93641 21.2563C10.2955 20.8912 11.78 20.8507 13.16 21.1955C14.5609 21.5403 15.8572 22.2502 16.819 23.3049C17.3208 23.8728 17.7181 24.5421 17.9899 25.2317C18.1363 25.6374 18.2617 26.043 18.3453 26.4487C18.3872 26.6515 18.429 26.8746 18.4499 27.0978C18.4708 27.3411 18.4708 27.6048 18.7217 27.7468C18.9308 27.8685 19.2026 27.8076 19.4326 27.8279C19.8299 27.8482 19.809 27.2397 19.4117 27.2194Z" fill="#EDEDED"/>
<path d="M32.2705 20.5464C35.0723 20.7695 38.5013 21.378 39.6304 24.2581C39.9859 25.1708 40.0904 26.1444 40.0695 27.118C40.0695 27.3005 40.2159 27.4019 40.3831 27.4222C41.6586 27.5439 42.9131 27.6656 44.1885 27.8076C46.1958 28.0104 48.203 28.2133 50.2311 28.3958C50.6911 28.4364 51.1511 28.4972 51.632 28.5378C51.7993 28.5581 51.9457 28.3755 51.9457 28.2335C52.1129 25.5968 52.1756 22.8383 51.1093 20.3638C50.7329 19.4917 50.1684 18.7007 49.3948 18.1125C49.0184 17.8285 48.6003 17.646 48.1403 17.4837C47.9521 17.4228 47.7639 17.362 47.5966 17.2403C47.3876 17.078 47.3248 16.8549 47.3039 16.6115C47.1366 15.1715 46.9694 13.7314 46.7185 12.3116C46.5512 11.2772 46.363 10.2225 46.1539 9.18806C46.133 9.04608 45.9867 8.96495 45.8612 8.96495C44.2303 8.86354 42.5995 8.76212 40.9686 8.66071C38.355 8.49845 35.7623 8.33619 33.1487 8.17392C32.5424 8.13336 31.9569 8.09279 31.3506 8.07251C31.1833 8.07251 31.016 8.21449 31.0369 8.37675C31.1415 9.71541 31.246 11.0541 31.3506 12.413C31.5178 14.5427 31.6851 16.6724 31.8524 18.8021C31.8942 19.2889 31.936 19.7756 31.9569 20.2624C31.9778 20.6478 32.6051 20.6478 32.5842 20.2624C32.4796 18.9238 32.3751 17.5851 32.2705 16.2262C32.1033 14.0965 31.936 11.9668 31.7687 9.83711C31.7269 9.35032 31.6851 8.86354 31.6642 8.37675C31.5597 8.47816 31.4551 8.57958 31.3506 8.68099C32.9814 8.78241 34.6123 8.88382 36.2432 8.98523C38.8568 9.14749 41.4495 9.30976 44.0631 9.47202C44.6694 9.51258 45.2549 9.55315 45.8612 9.57343C45.7567 9.4923 45.6521 9.43145 45.5685 9.35032C46.0076 11.6017 46.4467 13.8734 46.6557 16.1653C46.6976 16.571 46.6767 17.0172 46.9066 17.362C47.1576 17.7474 47.5757 17.9096 47.973 18.0516C48.8721 18.3761 49.5621 18.9441 50.0848 19.7351C50.6702 20.6478 50.9629 21.7025 51.1929 22.7369C51.3393 23.386 51.3811 24.0553 51.402 24.7246C51.4438 25.8807 51.402 27.0571 51.3393 28.2133C51.4438 28.1118 51.5484 28.0104 51.6529 27.909C50.3775 27.7873 49.123 27.6656 47.8475 27.5236C45.8403 27.3208 43.8331 27.118 41.8049 26.9354C41.3449 26.8949 40.8849 26.834 40.404 26.7935C40.5086 26.8949 40.6131 26.9963 40.7177 27.0977C40.7386 25.4142 40.3831 23.6699 39.2122 22.3921C38.1877 21.2766 36.6823 20.6681 35.2187 20.3436C34.2569 20.1205 33.2742 20.019 32.2915 19.9379C31.8524 19.8973 31.8524 20.5058 32.2705 20.5464Z" fill="#EDEDED"/>
<path d="M45.4847 16.9564C45.0665 15.2932 44.6274 13.6098 44.2093 11.9466C44.1465 11.7032 44.0838 11.4801 44.0211 11.2367C43.9793 11.0947 43.8538 11.0136 43.7284 11.0136C42.7247 10.973 41.7002 10.9324 40.6966 10.8716C39.0866 10.7905 37.4766 10.7296 35.8667 10.6485C35.4903 10.6282 35.114 10.6079 34.7585 10.6079C34.5912 10.6079 34.4449 10.7499 34.4449 10.9122C34.424 12.3522 34.3821 13.8126 34.3612 15.2527C34.3612 15.4555 34.3612 15.6583 34.3403 15.8814C34.3403 16.064 34.4867 16.1654 34.654 16.1857C35.8458 16.3074 37.0376 16.4493 38.2084 16.571C40.1111 16.7739 41.9929 16.997 43.8956 17.1998C44.3347 17.2404 44.7738 17.3012 45.192 17.3418C45.5892 17.3823 45.5892 16.7739 45.192 16.7333C44.0002 16.6116 42.8084 16.4696 41.6375 16.3479C39.7348 16.1451 37.853 15.922 35.9503 15.7192C35.5112 15.6786 35.0721 15.6177 34.654 15.5772C34.7585 15.6786 34.8631 15.78 34.9676 15.8814C34.9885 14.4413 35.0303 12.981 35.0512 11.5409C35.0512 11.3381 35.0512 11.1353 35.0721 10.9122C34.9676 11.0136 34.8631 11.115 34.7585 11.2164C35.7621 11.257 36.7867 11.2975 37.7903 11.3584C39.4002 11.4395 41.0102 11.5004 42.6202 11.5815C42.9965 11.6018 43.3729 11.622 43.7284 11.622C43.6238 11.5409 43.5193 11.4801 43.4356 11.3989C43.8538 13.0621 44.2929 14.7456 44.7111 16.4088C44.7738 16.6522 44.8365 16.8753 44.8992 17.1187C44.9829 17.504 45.5892 17.3418 45.4847 16.9564Z" fill="#EDEDED"/>
<path d="M9.43844 16.0032C12.282 16.4088 15.1465 16.348 17.9483 15.8206C18.2828 15.7598 18.2201 15.3338 17.9483 15.2324C15.5856 14.3805 13.202 13.5287 10.902 12.5145C10.8184 12.6971 10.7348 12.8796 10.6511 13.0622C12.3657 13.5692 14.1847 13.7112 15.962 13.5084C16.401 13.4475 16.8401 13.3867 17.2792 13.2853C17.6347 13.2041 17.9901 13.0825 18.011 12.6565C18.011 12.474 17.9692 12.2914 17.9065 12.1089C17.8437 11.8858 17.8019 11.6627 17.7601 11.4395C17.6556 10.9933 17.5719 10.5471 17.5092 10.1009C17.3419 9.06647 17.2583 8.03205 17.2374 6.99763C17.2374 6.85565 17.1328 6.73395 17.0074 6.71367C14.8747 6.16604 12.6793 5.88208 10.4839 5.88208C10.0866 5.88208 10.0866 6.49056 10.4839 6.49056C12.6375 6.49056 14.7702 6.75424 16.8401 7.30187C16.7565 7.20046 16.6938 7.09904 16.6101 7.01791C16.6519 8.64053 16.8401 10.2632 17.2165 11.8452C17.2583 12.0277 17.3001 12.2306 17.3628 12.4131C17.3628 12.4537 17.4256 12.5754 17.4047 12.6159C17.3838 12.6565 17.2792 12.6565 17.2165 12.6768C16.8192 12.7782 16.401 12.8391 15.9829 12.8999C15.1883 13.0013 14.3938 13.0216 13.5993 12.9608C12.6584 12.8999 11.7593 12.7376 10.8602 12.474C10.5257 12.3726 10.2957 12.8796 10.6093 13.0216C12.972 14.056 15.3974 14.9282 17.8228 15.8003C17.8228 15.5975 17.8228 15.415 17.8228 15.2121C15.1256 15.7192 12.3448 15.7801 9.64753 15.3947C9.20844 15.3541 9.04117 15.9423 9.43844 16.0032Z" fill="#EDEDED"/>
<path d="M15.2093 8.09293C13.8084 7.84953 12.4075 7.62642 11.0066 7.44388C10.8602 7.4236 10.7557 7.54529 10.7139 7.66699C10.4421 8.37688 10.5466 9.22876 10.5466 9.97922C10.5466 10.3849 10.5257 10.7905 10.5466 11.1759C10.5884 11.6018 10.9439 11.7033 11.2993 11.8249C12.7002 12.3523 14.352 12.7782 15.7111 11.9061C16.0456 11.683 15.732 11.1556 15.3974 11.3787C14.2475 12.1089 12.8466 11.7438 11.6757 11.3179C11.5921 11.2976 11.5084 11.257 11.4248 11.2367C11.3621 11.2165 11.2366 11.1353 11.1739 11.1556C11.153 11.1556 11.153 11.1353 11.1321 11.1353C11.1739 11.1962 11.1739 11.1962 11.1739 11.1353C11.1948 11.0745 11.1739 10.9325 11.1739 10.8717C11.1739 10.5269 11.1739 10.1618 11.1739 9.81696C11.1739 9.16791 11.0902 8.45801 11.3202 7.84953C11.2157 7.93066 11.1112 7.99151 11.0275 8.07264C12.3866 8.2349 13.7247 8.45801 15.0629 8.70141C15.4393 8.74197 15.6065 8.15377 15.2093 8.09293Z" fill="#EDEDED"/>
</g>
<defs>
<clipPath id="clip0_685_1435">
<rect width="52" height="33" fill="white" transform="translate(0.0292969)"/>
</clipPath>
</defs>
</svg>
