<svg width="48" height="47" viewBox="0 0 48 47" fill="none" xmlns="http://www.w3.org/2000/svg">
<path d="M35.4376 30.0092C38.1023 26.2592 39.2835 21.6805 38.7471 17.1299C38.1924 12.4242 35.8425 8.0995 32.1708 5.01972C28.4995 1.9402 23.7771 0.331888 18.9485 0.513924C14.1198 0.695961 9.53746 2.65509 6.11872 6.00238C2.69968 9.34996 0.696687 13.8393 0.513731 18.573C0.330774 23.3066 1.98154 27.9316 5.13289 31.5228C8.28395 35.1137 12.7025 37.4059 17.5034 37.9443C22.1516 38.4655 26.8296 37.3058 30.6602 34.6911C30.6627 34.6936 30.6652 34.6961 30.6677 34.6986L30.6676 34.6986L30.6725 34.7034L41.7407 45.5326C42.3743 46.1529 43.2316 46.4997 44.1233 46.5C45.0151 46.5003 45.8726 46.1541 46.5066 45.5342C47.141 44.9139 47.4997 44.0701 47.5 43.1878C47.5003 42.3055 47.1423 41.4614 46.5083 40.8407L46.5082 40.8406L35.442 30.0135C35.4417 30.0131 35.4413 30.0128 35.4409 30.0124C35.4398 30.0113 35.4387 30.0103 35.4376 30.0092ZM35.0013 19.2779C35.0013 21.2423 34.6058 23.1878 33.8372 25.0032C33.0686 26.8188 31.9418 28.4691 30.5204 29.8597C29.099 31.2504 27.4111 32.3541 25.5525 33.1073C23.694 33.8605 21.7017 34.2483 19.6894 34.2483C17.6771 34.2483 15.6848 33.8605 13.8262 33.1073C11.9677 32.3541 10.2797 31.2504 8.85835 29.8597C7.43701 28.4691 6.31013 26.8188 5.54152 25.0032C4.77292 23.1878 4.37747 21.2423 4.37747 19.2779C4.37747 15.3111 5.98797 11.5045 8.85835 8.69613C11.7291 5.8874 15.6249 4.30758 19.6894 4.30758C23.7538 4.30758 27.6497 5.8874 30.5204 8.69613C33.3908 11.5045 35.0013 15.3111 35.0013 19.2779Z" fill="#0A0A0A" stroke="#0A0A0A"/>
</svg>
