<svg width="47" height="47" viewBox="0 0 47 47" fill="none" xmlns="http://www.w3.org/2000/svg"><path fill-rule="evenodd" clip-rule="evenodd" d="M31.875 17C31.875 19.2543 30.9795 21.4163 29.3854 23.0104C27.7913 24.6045 25.6293 25.5 23.375 25.5C21.1207 25.5 18.9587 24.6045 17.3646 23.0104C15.7705 21.4163 14.875 19.2543 14.875 17C14.875 14.7457 15.7705 12.5837 17.3646 10.9896C18.9587 9.39553 21.1207 8.5 23.375 8.5C25.6293 8.5 27.7913 9.39553 29.3854 10.9896C30.9795 12.5837 31.875 14.7457 31.875 17ZM27.625 17C27.625 18.1272 27.1772 19.2082 26.3802 20.0052C25.5832 20.8022 24.5022 21.25 23.375 21.25C22.2478 21.25 21.1668 20.8022 20.3698 20.0052C19.5728 19.2082 19.125 18.1272 19.125 17C19.125 15.8728 19.5728 14.7918 20.3698 13.9948C21.1668 13.1978 22.2478 12.75 23.375 12.75C24.5022 12.75 25.5832 13.1978 26.3802 13.9948C27.1772 14.7918 27.625 15.8728 27.625 17Z" fill="#0A0A0A"></path><path fill-rule="evenodd" clip-rule="evenodd" d="M23.375 0C10.4656 0 0 10.4656 0 23.375C0 36.2844 10.4656 46.75 23.375 46.75C36.2844 46.75 46.75 36.2844 46.75 23.375C46.75 10.4656 36.2844 0 23.375 0ZM4.25 23.375C4.25 27.8162 5.76512 31.9047 8.3045 35.1517C10.0879 32.8098 12.3885 30.9118 15.0268 29.6062C17.6651 28.3005 20.5695 27.6224 23.5131 27.625C26.4187 27.6222 29.2866 28.2827 31.8982 29.5562C34.5099 30.8296 36.7964 32.6823 38.5836 34.9733C40.4248 32.5584 41.6645 29.7398 42.2001 26.7508C42.7358 23.7617 42.5519 20.688 41.6638 17.7841C40.7757 14.8802 39.2088 12.2295 37.0929 10.0513C34.977 7.87318 32.3728 6.2302 29.4958 5.25833C26.6188 4.28646 23.5518 4.01364 20.5485 4.46244C17.5451 4.91125 14.6918 6.06877 12.2246 7.83924C9.75746 9.60971 7.74735 11.9422 6.36061 14.6438C4.97388 17.3454 4.25038 20.3383 4.25 23.375ZM23.375 42.5C18.9846 42.5066 14.7268 40.9962 11.322 38.2245C12.6925 36.2626 14.5166 34.6607 16.6392 33.5552C18.7617 32.4497 21.1199 31.8733 23.5131 31.875C25.8765 31.8731 28.2062 32.4351 30.3087 33.5143C32.4113 34.5935 34.226 36.1587 35.6022 38.08C32.171 40.9417 27.843 42.5063 23.375 42.5Z" fill="#0A0A0A"></path></svg>