<svg width="38" height="42" viewBox="0 0 38 42" fill="none" xmlns="http://www.w3.org/2000/svg">
<path d="M5.67311 3.30311C5.44918 4.15636 5.84106 5.03627 6.14896 5.80952C6.37289 6.39613 6.68079 6.82275 7.2686 7.11605C8.38825 7.64933 9.89976 7.64933 11.0474 7.16938C11.5792 6.95607 12.0831 6.58278 12.307 6.0495C12.6429 5.24958 12.5029 4.28968 12.363 3.4631C12.223 2.66318 11.9711 1.80993 11.3833 1.19666C10.7115 0.476739 9.67583 0.263428 8.66816 0.263428C7.32458 0.290092 6.037 0.583395 4.94534 1.32998C3.93767 1.99658 3.15392 2.92982 2.5661 3.96971C1.89432 5.14292 1.44646 6.44946 1.16655 7.75599C0.830658 9.3025 0.690703 10.8757 0.662712 12.4488C0.634721 14.182 0.774676 15.9151 1.0266 17.6483C1.27851 19.4614 1.67039 21.2213 2.17423 22.9811C2.70606 24.7676 3.34985 26.5274 4.10561 28.2339C4.86137 29.8604 5.72909 31.4602 6.73677 32.9534C7.71646 34.3932 8.8361 35.7264 10.1237 36.9263C11.3273 38.0195 12.6709 39.0061 14.1544 39.726C15.6379 40.4459 17.2334 40.8992 18.8569 41.0592C20.6203 41.2192 22.3838 41.0059 24.0912 40.5526C26.1626 39.966 28.094 39.0061 29.8574 37.8596C30.9211 37.1663 31.9287 36.4197 32.9084 35.6198C34.0001 34.7132 35.0917 33.78 36.0154 32.7401C37.6669 30.9003 38.0028 28.4472 37.247 26.1541C36.4353 23.781 34.6439 21.7279 32.4606 20.3414C30.2213 18.9015 27.4502 18.1816 24.791 18.7415C23.2795 19.0615 21.8799 19.8081 20.7043 20.768C19.4167 21.8345 18.633 23.1677 18.493 24.7676C18.409 25.8075 18.605 26.954 18.0172 27.9139C18.2691 27.9139 18.493 27.9139 18.7449 27.9139C17.8492 26.634 17.2054 25.2209 16.9535 23.701C16.7576 22.4478 16.8415 21.1679 17.1494 19.9681C17.4294 18.8215 17.8772 17.755 18.437 16.7151C18.689 16.2351 18.9689 15.7818 19.2488 15.3285C19.5007 14.9552 19.7526 14.582 19.9486 14.1553C20.3404 13.2221 20.3684 12.1555 20.3124 11.169C20.2565 10.1824 20.1165 9.14251 19.6127 8.2626C18.9969 7.14272 17.3734 6.76942 16.1698 6.52945C15.386 6.39613 14.6023 6.31614 13.7905 6.23615C13.0907 6.18282 12.335 6.10283 11.6352 6.28947C10.2357 6.66277 9.4799 8.28927 10.4036 9.46248C10.8794 10.0757 11.6632 10.3957 12.419 10.609C13.3147 10.8757 14.2664 10.9823 15.1901 10.9557C15.0501 10.7957 14.9102 10.609 14.7982 10.449C14.6582 11.1956 14.4623 11.9956 14.7142 12.7421C14.9382 13.3554 15.358 13.8087 16.0018 14.022C16.5057 14.182 16.7296 13.4087 16.2257 13.2488C15.1341 12.8755 15.442 11.4623 15.6379 10.689C15.6939 10.449 15.498 10.1824 15.2461 10.1824C14.4623 10.2091 13.7065 10.1291 12.9508 9.94243C12.335 9.78245 11.6072 9.56913 11.1874 9.08918C10.8515 8.71589 10.8235 8.15595 11.0474 7.70266C11.3553 7.16938 11.9991 7.0094 12.5869 6.98274C13.2867 6.95607 13.9585 7.06273 14.6582 7.11605C15.386 7.19605 16.1418 7.3027 16.8415 7.48935C17.4853 7.64933 18.3251 7.88931 18.7449 8.39592C18.9409 8.60923 19.0528 8.9292 19.1648 9.2225C19.4727 10.1291 19.5567 11.1156 19.5287 12.0489C19.5007 12.9021 19.3607 13.7287 18.8569 14.4753C17.7093 16.2085 16.7296 18.0749 16.2817 20.0747C15.6379 22.9811 16.3097 25.8608 18.0452 28.3139C18.2131 28.5538 18.605 28.5805 18.7729 28.3139C19.3887 27.3006 19.2768 26.1808 19.3328 25.0609C19.3607 24.4743 19.4727 23.861 19.6966 23.3011C20.0325 22.5545 20.5923 21.9145 21.2082 21.3812C23.2795 19.6214 26.0506 18.9015 28.7657 19.5681C31.173 20.1547 33.3563 21.6212 34.8678 23.5144C36.2394 25.2209 37.191 27.4606 36.7152 29.6471C36.4913 30.7403 35.9035 31.7002 35.0637 32.5001C34.112 33.4333 33.1044 34.3666 32.0407 35.2198C30.3052 36.6063 28.4298 37.8596 26.3865 38.7928C24.791 39.5127 23.0276 40.046 21.2921 40.206C19.6966 40.366 18.1851 40.2326 16.6736 39.806C15.2181 39.4061 13.8745 38.7395 12.5869 37.8596C11.3273 36.9796 10.1237 35.8598 9.11601 34.6865C8.02436 33.4333 7.07267 32.0468 6.23293 30.607C5.36521 29.0871 4.60945 27.514 3.99365 25.9141C3.34985 24.261 2.84601 22.5545 2.42615 20.848C2.03427 19.1681 1.75436 17.515 1.58642 15.8085C1.44646 14.2087 1.39048 12.6088 1.50244 11.009C1.58642 9.56913 1.78235 8.2626 2.20222 6.84942C2.53811 5.64954 2.95798 4.63631 3.68575 3.59642C3.88168 3.32978 3.96566 3.22312 4.16159 3.00981C4.32954 2.7965 4.52548 2.60985 4.72142 2.44987C4.83338 2.36988 4.91735 2.28989 5.02932 2.18323C5.14128 2.07657 5.11329 2.10324 5.28124 1.99658C5.50517 1.86326 5.72909 1.72994 5.95302 1.59662C6.14896 1.59662 6.26092 1.5433 6.37289 1.48997C6.31691 1.51663 6.42887 1.4633 6.48485 1.43664C6.54083 1.40998 6.62481 1.38331 6.68079 1.38331C6.93271 1.30332 7.21262 1.22333 7.46454 1.19666C7.52052 1.19666 7.6045 1.17 7.66048 1.17C7.80043 1.14334 7.66048 1.17 7.80043 1.14334C8.05235 1.11667 8.27628 1.11667 8.5282 1.09001C9.4799 1.06335 10.4596 1.19666 10.9914 1.99658C11.4393 2.66318 11.5792 3.48976 11.6352 4.26302C11.6912 4.87629 11.7752 5.6762 11.2433 6.12949C10.4316 6.79609 8.97606 6.82275 7.99637 6.52945C7.5765 6.39613 7.18463 6.18282 7.01668 5.78286C6.84874 5.40956 6.70878 5.03627 6.59682 4.63631C6.48485 4.26302 6.37289 3.86306 6.45686 3.48976C6.62481 3.00981 5.81307 2.7965 5.67311 3.30311Z" fill="#EDEDED"/>
<path d="M13.3144 6.18209C13.1465 6.07544 12.9785 5.96878 12.8386 5.86213C12.8665 5.88879 12.8945 5.91545 12.9225 5.91545C12.7546 5.78213 12.5866 5.67548 12.4467 5.5155C12.3067 5.35551 11.9988 5.35551 11.8589 5.5155C11.6909 5.67548 11.6909 5.91545 11.8589 6.07544C11.9988 6.20876 12.1668 6.34208 12.3347 6.44873C12.5307 6.58205 12.6986 6.74204 12.9225 6.84869C13.0065 6.90202 13.1465 6.92868 13.2584 6.90202C13.3424 6.87535 13.4544 6.79536 13.5103 6.71537C13.5943 6.55539 13.5383 6.31541 13.3144 6.18209Z" fill="#EDEDED"/>
<path d="M11.4113 1.64918C12.391 1.43587 13.4267 1.32922 14.4344 1.51586C14.6583 1.56919 14.9102 1.62252 15.1342 1.70251C15.2461 1.75584 15.3581 1.80917 15.47 1.8625C15.498 1.8625 15.526 1.88916 15.554 1.88916C15.526 1.88916 15.47 1.83583 15.526 1.8625C15.582 1.91582 15.498 1.80917 15.526 1.8625C15.554 1.88916 15.554 1.91582 15.582 1.96915C15.61 1.99582 15.638 2.04914 15.638 2.07581C15.638 2.10247 15.694 2.20913 15.666 2.1558C16.1138 3.19569 16.3378 4.3689 16.4497 5.48879C16.4777 5.75543 16.5057 6.04873 16.4777 6.31537C16.4777 6.3687 16.4777 6.42203 16.4777 6.44869C16.4777 6.34203 16.4777 6.47535 16.4497 6.50202C16.4497 6.52868 16.4497 6.52868 16.4217 6.55535C16.3938 6.63534 16.4217 6.52868 16.4217 6.52868L16.3938 6.55535C16.4217 6.55535 16.4777 6.47535 16.4217 6.52868C16.0019 6.87531 16.6177 7.43525 17.0096 7.08862C17.3734 6.79532 17.3175 6.18205 17.2895 5.78209C17.2615 5.08883 17.1215 4.42223 16.9816 3.75563C16.8416 3.14236 16.7017 2.52909 16.4497 1.94249C16.3658 1.72918 16.2538 1.51586 16.1138 1.32922C15.8619 1.06258 15.3861 0.929258 15.0222 0.822603C13.7626 0.449308 12.391 0.555963 11.1314 0.849267C10.6556 0.982586 10.8795 1.75584 11.4113 1.64918Z" fill="#EDEDED"/>
<path d="M16.0017 1.67588C16.4496 1.35591 16.9254 1.06261 17.4572 0.902625C17.8211 0.795969 18.213 0.769305 18.5489 0.822633C19.2487 0.982616 19.7245 1.48923 20.0884 2.12916C20.4803 2.82243 20.6762 3.64901 20.7042 4.42226C20.7322 4.79556 20.7042 5.24884 20.6762 5.56881C20.6482 5.75546 20.6202 5.9421 20.5642 6.12875C20.5362 6.20874 20.5083 6.28874 20.4803 6.36873C20.4243 6.47538 20.4243 6.47538 20.3963 6.55537C20.3683 6.63537 20.3123 6.71536 20.2843 6.76869C20.2563 6.79535 20.2283 6.84868 20.2283 6.87534C20.1724 6.95533 20.2563 6.84868 20.2004 6.92867C20.1444 6.982 20.0884 7.03533 20.0324 7.08865C19.9764 7.14198 20.0604 7.08865 19.9764 7.14198C19.8925 7.16864 19.8365 7.22197 19.7525 7.22197C18.9967 7.43528 18.045 7.00866 17.4572 6.58204C17.0374 6.26207 16.4496 6.82201 16.8694 7.14198C17.9331 7.9419 19.8645 8.63516 20.8721 7.38196C21.432 6.71536 21.5719 5.78212 21.5999 4.95554C21.6279 3.19572 21.0121 0.822633 19.0807 0.156035C17.7931 -0.297251 16.4496 0.369346 15.4419 1.11594C15.2739 1.24926 15.3019 1.54256 15.4419 1.67588C15.5818 1.83586 15.8337 1.8092 16.0017 1.67588Z" fill="#EDEDED"/>
</svg>
