<svg width="46" height="43" viewBox="0 0 46 43" fill="none" xmlns="http://www.w3.org/2000/svg">
<path d="M13.7077 37.5758C13.47 30.7635 13.3644 23.8977 14.1037 17.1121C14.315 15.1886 14.6054 13.2651 14.9751 11.3684C15.0543 11.0211 14.579 10.6471 14.315 10.9676C13.4964 11.9828 13.0475 13.2918 12.7307 14.5742C12.3874 15.9901 12.1762 17.4327 11.9913 18.8753C11.9121 19.4897 11.8593 20.1042 11.7801 20.6919C11.7273 21.1193 11.7009 21.4666 11.6217 21.8407C11.6217 21.8941 11.5953 21.9475 11.5953 22.0009C11.5953 22.0277 11.5689 22.0544 11.5689 22.0811C11.5425 22.1612 11.5425 22.1078 11.5689 22.0544C11.5689 22.0544 11.5161 22.1345 11.5689 22.0544C11.6481 21.9742 11.7009 21.9742 11.7801 21.9208C11.8593 21.8941 11.7273 21.9208 11.6745 21.9208C11.0936 21.9475 10.5127 21.9208 9.95816 21.8407C8.95477 21.6804 8.0042 21.3865 7.10643 20.8789C6.20866 20.3713 5.33729 19.9172 4.3339 19.65C3.59456 19.4363 2.82882 19.3294 2.06307 19.2493C1.93105 19.2493 1.82543 19.2226 1.6934 19.2226C1.64059 19.2226 1.61419 19.2226 1.56138 19.2226C1.45576 19.2226 1.48216 19.2226 1.50857 19.2226C1.50857 19.2226 1.45576 19.2226 1.42935 19.2226C1.45576 19.3027 1.64059 19.4363 1.667 19.5164C1.6934 19.5699 1.667 19.5164 1.667 19.5966C1.77262 18.902 2.01026 18.2341 2.2215 17.5663C2.59117 16.3641 2.96084 15.1352 3.35692 13.933C4.14907 11.5554 4.91481 9.07088 5.9182 6.8001C6.60473 5.22392 7.44969 3.5943 8.95477 2.71271C10.6183 1.72425 12.6515 1.61739 14.5262 1.56396C19.4111 1.40367 24.3225 1.29681 29.2074 1.16324C30.3956 1.13652 31.5838 1.08309 32.7985 1.08309C33.8811 1.05638 34.9637 1.08309 36.0199 1.29681C37.9739 1.69754 39.4789 2.873 40.5615 4.55604C41.4593 5.91851 42.1458 7.52141 42.5419 9.09759C42.8852 10.4066 43.0436 11.7691 43.2284 13.1048C43.5981 16.2038 43.8094 19.3294 44.0998 22.4551C44.1526 22.9627 44.2054 23.497 44.2582 24.0046C44.3903 23.871 44.5223 23.7374 44.6543 23.6038C41.6706 23.684 38.898 22.1078 35.9407 22.0277C35.439 22.0009 35.439 22.8024 35.9407 22.8291C38.9244 22.9093 41.6706 24.5122 44.6543 24.4053C44.8391 24.4053 45.0768 24.2183 45.0504 24.0046C44.6807 21.0659 44.5223 18.0738 44.2318 15.1352C44.0734 13.5323 43.8886 11.9294 43.6245 10.3532C43.3605 8.91059 42.938 7.57484 42.3571 6.23909C41.5913 4.4759 40.5087 2.76614 38.9244 1.64411C37.1025 0.361785 34.8317 0.254925 32.6929 0.28164C27.7023 0.361785 22.659 0.522075 17.6156 0.65565C15.4504 0.70908 13.1796 0.628935 11.0408 1.10981C10.0902 1.32353 9.16601 1.64411 8.37386 2.17841C7.4761 2.76614 6.81597 3.5943 6.26147 4.50261C5.62775 5.59793 5.15246 6.74667 4.70357 7.92213C4.20188 9.20445 3.75299 10.5135 3.33051 11.8225C2.53836 14.1467 1.74621 16.4709 1.1389 18.8219C1.05968 19.089 0.980469 19.3294 0.980469 19.5432C0.980469 20.024 1.53497 20.024 1.87824 20.0507C2.61758 20.1309 3.35692 20.2378 4.09626 20.4248C4.57155 20.5583 5.07324 20.7186 5.52213 20.9056C6.02382 21.1193 6.49911 21.4399 6.9744 21.7071C8.40027 22.4551 10.1166 22.8558 11.7273 22.749C12.0706 22.7222 12.2554 22.6154 12.361 22.2681C12.4666 21.9208 12.493 21.5468 12.5194 21.1995C12.8363 18.4746 13.0211 15.6428 14.0245 13.0781C14.2358 12.5438 14.4998 11.9828 14.8695 11.5287C14.6583 11.3951 14.4206 11.2615 14.2094 11.1279C12.9155 17.8868 12.6515 24.806 12.7571 31.6718C12.7835 33.622 12.8363 35.5989 12.9155 37.5491C12.9419 38.1101 13.7341 38.1101 13.7077 37.5758Z" fill="#EDEDED"/>
<path d="M35.8613 10.5938C35.4652 14.2271 35.4652 17.9137 35.4652 21.5737C35.4652 23.3903 35.4916 25.1802 35.518 26.9968C35.5444 28.1189 35.6236 29.2142 35.8349 30.3095C36.0461 31.4048 36.363 32.4467 36.6798 33.5153C37.3928 35.8929 38.1321 38.2438 39.1355 40.5146C39.2147 40.3276 39.2939 40.1139 39.3731 39.9269C35.9141 40.5681 32.4022 41.2092 28.864 41.2359C27.1212 41.2626 25.3785 41.1291 23.6886 40.7551C21.9987 40.4078 20.4144 39.7666 18.8301 39.0987C17.0609 38.3507 15.3182 37.5493 13.4171 37.1752C12.9154 37.0684 12.7041 37.8431 13.2058 37.95C16.6385 38.6179 19.6486 40.6215 23.0549 41.4229C26.5139 42.2511 30.1314 42.1175 33.6433 41.6634C35.6236 41.3962 37.604 41.0489 39.5844 40.6749C39.8484 40.6215 39.9277 40.3009 39.822 40.0872C38.9507 38.1103 38.2905 36.0265 37.6568 33.9427C37.34 32.9008 37.0231 31.8857 36.7591 30.8171C36.495 29.7485 36.363 28.6532 36.3366 27.5578C36.2046 23.8712 36.231 20.1578 36.3102 16.4711C36.363 14.4942 36.4422 12.5173 36.6534 10.5671C36.7062 10.0862 35.9141 10.0862 35.8613 10.5938Z" fill="#EDEDED"/>
<path d="M19.9922 0.896137C19.8073 2.04488 20.1242 3.06005 20.9163 3.94165C21.7613 4.87667 22.8439 5.57126 24.0585 5.94527C25.4052 6.346 26.8575 6.42615 28.2569 6.346C29.4451 6.29257 30.7654 6.159 31.6368 5.25068C32.7194 4.15537 32.8514 2.2586 32.8514 0.815992C32.8514 0.308406 32.0592 0.308406 32.0592 0.815992C32.0592 1.99145 31.98 3.40735 31.3199 4.3958C30.739 5.2774 29.63 5.43769 28.653 5.51784C27.3856 5.59798 26.0917 5.57126 24.8771 5.30411C23.7681 5.06368 22.8175 4.58281 21.9725 3.80807C21.154 3.08677 20.6259 2.23189 20.8107 1.10986C20.8371 0.602272 20.0714 0.388551 19.9922 0.896137Z" fill="#EDEDED"/>
<path d="M21.6556 0.84281C21.5235 1.72441 21.7348 2.49914 22.3157 3.16702C22.9494 3.88832 23.768 4.42262 24.6921 4.71649C25.6955 5.03707 26.8045 5.0905 27.8607 5.03707C28.7849 5.01035 29.7883 4.90349 30.5012 4.23562C31.3726 3.40745 31.4782 1.91141 31.4782 0.78938C31.4782 0.281795 30.6861 0.281795 30.6861 0.78938C30.6861 1.77784 30.6333 3.30059 29.6563 3.88832C29.2338 4.12876 28.7321 4.2089 28.2304 4.23562C27.6231 4.28905 27.0158 4.28905 26.4349 4.23562C25.3787 4.15547 24.3489 3.91504 23.5039 3.22045C22.8174 2.65943 22.2365 2.01827 22.3949 1.05653C22.5005 0.548945 21.7348 0.335225 21.6556 0.84281Z" fill="#EDEDED"/>
<path d="M24.6127 19.5165C24.6655 19.5432 24.6919 19.5432 24.7183 19.5966C24.6655 19.5432 24.7183 19.6768 24.7183 19.5966C24.7183 19.5699 24.7183 19.5432 24.6919 19.5432C24.6655 19.4363 24.6919 19.6501 24.6919 19.5165C24.6655 19.3562 24.6655 19.1692 24.6391 19.0089C24.6127 18.8753 24.6127 18.7417 24.6127 18.5814C24.6127 18.5814 24.6391 18.4479 24.6127 18.528C24.6127 18.4746 24.6391 18.4479 24.6391 18.4212C24.6655 18.341 24.6391 18.3944 24.6391 18.4212C24.6655 18.3677 24.6919 18.341 24.7183 18.3143C24.6655 18.3944 24.8239 18.2342 24.7447 18.2876C24.7711 18.2609 24.7975 18.2609 24.8239 18.2342C24.7447 18.2876 24.8239 18.2342 24.8503 18.2342C24.8239 18.2342 24.7711 18.2342 24.8503 18.2342C24.956 18.2342 24.7711 18.2074 24.8767 18.2342C24.956 18.2609 24.8239 18.1807 24.8767 18.2342C24.9032 18.2609 24.956 18.3143 24.8767 18.2342C24.9032 18.2609 24.9296 18.2876 24.9296 18.2876C24.8767 18.2074 24.9296 18.2876 24.9296 18.3143C24.956 18.3677 24.9824 18.3944 25.0088 18.4479C24.956 18.3677 25.0352 18.5013 25.0352 18.528C25.0616 18.6082 25.0616 18.6616 25.088 18.7417C25.088 18.7685 25.1144 18.8219 25.1144 18.8486C25.1144 18.8486 25.1408 18.9822 25.1144 18.902C25.1144 18.9822 25.1408 19.0356 25.1408 19.1157C25.1408 19.1959 25.1408 19.276 25.1408 19.3562C25.1408 19.3829 25.1408 19.463 25.1408 19.3829C25.1408 19.4363 25.1144 19.4898 25.1144 19.5432C25.1144 19.5699 25.088 19.5966 25.088 19.6233C25.088 19.6768 25.1408 19.5432 25.088 19.6501C25.0616 19.6768 25.0616 19.7035 25.0352 19.7302C25.088 19.6501 25.0088 19.7569 25.0352 19.7302C25.0616 19.7035 25.0088 19.7569 24.9824 19.7569C24.9824 19.7569 25.0088 19.7569 25.0088 19.7302C24.956 19.7302 24.956 19.7302 25.0088 19.7302C24.9296 19.7035 25.0088 19.7302 25.0352 19.7302C25.0616 19.7569 25.0616 19.7302 25.0352 19.7302C25.088 19.7569 25.088 19.7569 25.0616 19.7302L25.088 19.7569C25.088 19.7302 25.0616 19.7302 25.0616 19.7035C25.088 19.7836 25.0616 19.7302 25.0616 19.7035C25.0352 19.6501 25.0352 19.5699 25.0088 19.5165C25.0088 19.4363 25.0088 19.3829 25.0088 19.3028C24.9824 19.1692 25.0088 19.3829 25.0088 19.2493C25.0088 19.1959 25.0088 19.1692 25.0088 19.1157C25.0088 19.0356 25.0088 18.9555 25.0088 18.8753C25.0088 18.9555 25.0088 18.8753 25.0088 18.8753C25.0088 18.8486 25.0352 18.7952 25.0352 18.7685C25.0352 18.7417 25.0616 18.715 25.0616 18.6616C25.088 18.5814 25.0616 18.6616 25.0616 18.6616C25.088 18.6349 25.088 18.6082 25.1144 18.5814C25.1144 18.5547 25.1408 18.5547 25.1408 18.528C25.1144 18.5547 25.1144 18.5547 25.1408 18.528C25.1672 18.5013 25.1672 18.5013 25.1936 18.4746C25.22 18.4479 25.22 18.4479 25.2464 18.4212C25.1408 18.528 25.0088 18.5013 24.8503 18.3143C24.9032 18.3944 24.8503 18.2609 24.8503 18.3143C24.8503 18.3677 24.8767 18.4212 24.8767 18.4479C24.8767 18.5013 24.9032 18.528 24.9032 18.5814C24.9296 18.715 24.9032 18.5013 24.9032 18.6349C24.9032 18.715 24.9296 18.8219 24.9296 18.902C24.9296 18.9822 24.9296 19.089 24.9296 19.1692C24.9296 19.1959 24.956 19.3562 24.9296 19.3562C24.9296 19.3295 24.9296 19.3295 24.9296 19.3028C24.9296 19.3295 24.9296 19.3295 24.9296 19.3562C24.9296 19.3829 24.9296 19.3829 24.9296 19.3829C24.9296 19.4096 24.9296 19.4096 24.956 19.3562V19.3829C24.9296 19.4096 24.9296 19.4096 24.9824 19.3562C24.956 19.3829 24.956 19.3829 25.0088 19.3295C25.0616 19.3028 25.088 19.3028 25.0352 19.3028C24.8239 19.3562 24.6919 19.5966 24.7711 19.7836C24.8503 19.9973 25.0352 20.1042 25.2464 20.0508C25.7217 19.9439 25.7745 19.4096 25.7745 19.0089C25.7745 18.7685 25.7481 18.528 25.7217 18.2876C25.6689 18.0471 25.6161 17.7533 25.3784 17.6197C24.8767 17.3526 24.4279 18.0204 24.3222 18.4479C24.2166 18.8753 24.2694 19.3829 24.3751 19.7836C24.4279 19.9973 24.5599 20.2378 24.7711 20.3446C25.0088 20.4515 25.2992 20.4248 25.5105 20.2912C25.9065 19.9973 26.0122 19.4363 25.9858 18.9555C25.9594 18.5547 25.8801 18.1006 25.6689 17.78C25.4048 17.3793 24.9296 17.1923 24.4543 17.4327C23.9526 17.6999 23.847 18.2876 23.8734 18.7952C23.8998 19.0623 23.9262 19.3295 23.9526 19.5966C24.0054 19.8905 24.1374 20.1042 24.4279 20.2111C24.6127 20.2912 24.8767 20.1309 24.9032 19.9439C24.9296 19.7836 24.8239 19.5966 24.6127 19.5165Z" fill="#EDEDED"/>
<path d="M28.6264 19.8639C28.6 19.7838 28.5736 19.7303 28.5736 19.6502C28.5736 19.6235 28.5736 19.5967 28.5472 19.57C28.5472 19.57 28.5208 19.4365 28.5472 19.5433C28.5208 19.4097 28.5208 19.2762 28.5208 19.1426C28.5208 19.009 28.5208 18.8754 28.5208 18.7419C28.5208 18.6884 28.5208 18.635 28.5208 18.5816C28.5208 18.6617 28.5208 18.5816 28.5208 18.5816C28.5208 18.5549 28.5472 18.5014 28.5472 18.4747C28.5208 18.5549 28.5472 18.4747 28.5736 18.448C28.5736 18.4213 28.6 18.3946 28.5736 18.448L28.6264 18.3946C28.5736 18.4213 28.5736 18.4213 28.6264 18.3946C28.7056 18.3411 28.5472 18.4213 28.6264 18.3946C28.7056 18.3679 28.5472 18.3946 28.6264 18.3946C28.6264 18.3946 28.5208 18.3679 28.6 18.3946C28.6528 18.4213 28.6264 18.3946 28.5736 18.3946C28.6 18.4213 28.6 18.4213 28.5472 18.3679L28.5736 18.3946C28.6264 18.448 28.5472 18.3144 28.5736 18.3946C28.5736 18.3946 28.6 18.448 28.6 18.4747C28.6 18.4747 28.5736 18.3679 28.6 18.448C28.6 18.5014 28.6264 18.5281 28.6264 18.5816C28.6264 18.5816 28.6264 18.6617 28.6528 18.6617C28.6528 18.6083 28.6528 18.5816 28.6528 18.635C28.6528 18.6617 28.6528 18.6617 28.6528 18.6884C28.6528 18.7953 28.6792 18.9022 28.6528 19.0357C28.6528 19.0624 28.6528 19.1693 28.6528 19.196C28.6528 19.1693 28.6528 19.1693 28.6528 19.1426C28.6528 19.1693 28.6528 19.196 28.6528 19.196C28.6528 19.2227 28.6528 19.2495 28.6264 19.2762C28.6264 19.3029 28.6 19.3296 28.6 19.3563C28.5736 19.4632 28.6264 19.3029 28.6 19.3563C28.5736 19.4097 28.5472 19.4632 28.5208 19.5166C28.6264 19.4365 28.4152 19.5967 28.5208 19.5166C28.4944 19.5433 28.468 19.57 28.4416 19.57C28.4416 19.57 28.468 19.57 28.468 19.5433C28.4152 19.5433 28.4416 19.5433 28.4944 19.5433C28.4152 19.5433 28.5736 19.57 28.4944 19.5433C28.5736 19.57 28.5472 19.57 28.5208 19.5433C28.6264 19.5967 28.5208 19.5433 28.5208 19.5433L28.5472 19.57C28.5472 19.5433 28.5208 19.5433 28.5208 19.5166C28.4944 19.4899 28.4944 19.4899 28.5208 19.5166C28.4944 19.4899 28.4944 19.4365 28.4944 19.4097C28.5208 19.4899 28.4944 19.4365 28.4944 19.4097C28.4944 19.3563 28.4944 19.3029 28.4944 19.2762C28.4944 19.1693 28.4944 19.0624 28.4944 18.9556C28.4944 18.9289 28.4944 18.9022 28.4944 18.8487C28.4944 18.7419 28.468 18.9289 28.4944 18.822C28.4944 18.7686 28.5208 18.7152 28.5472 18.635C28.5472 18.6083 28.5472 18.5816 28.5472 18.635C28.5472 18.6083 28.6 18.5281 28.6 18.5281C28.5472 18.5549 28.5736 18.5549 28.6 18.5281C28.6264 18.5014 28.6264 18.5014 28.5736 18.5281C28.5472 18.5549 28.5208 18.5549 28.468 18.5549C28.3887 18.5014 28.3095 18.4747 28.2303 18.4213C28.2039 18.3679 28.2039 18.3679 28.2303 18.3946C28.2303 18.4213 28.2567 18.4747 28.2567 18.5014C28.2567 18.5281 28.2831 18.5816 28.2831 18.6083C28.2831 18.635 28.3095 18.7419 28.2831 18.635C28.3095 18.7686 28.3095 18.9289 28.2831 19.0624C28.2831 19.1693 28.3095 18.9823 28.2831 19.0892C28.2831 19.1159 28.2831 19.1693 28.2567 19.196C28.2303 19.2762 28.2039 19.3563 28.1775 19.4365C28.0983 19.6235 28.2567 19.8906 28.4416 19.9173C28.6528 19.9708 28.864 19.8372 28.9168 19.6502C29.0489 19.2762 29.0753 18.8754 29.0225 18.4747C28.9961 18.2877 28.9433 18.0473 28.8112 17.9137C28.6264 17.7 28.2831 17.7267 28.0719 17.887C27.755 18.1274 27.6758 18.5549 27.6494 18.9289C27.6494 19.3029 27.6494 19.7303 27.9135 20.0242C28.2303 20.3715 28.7584 20.3181 29.0489 19.9975C29.3129 19.7036 29.4185 19.3296 29.4185 18.9289C29.4185 18.6083 29.3921 18.2343 29.2601 17.9404C29.1809 17.7801 29.0489 17.6466 28.864 17.5664C28.6528 17.4863 28.4152 17.4863 28.2303 17.5931C27.7814 17.8068 27.7022 18.3144 27.6758 18.7419C27.6758 19.1693 27.6758 19.5967 27.8078 20.0242C27.8607 20.2112 28.0983 20.3715 28.2831 20.2913C28.5472 20.2913 28.7056 20.0776 28.6264 19.8639Z" fill="#EDEDED"/>
<path d="M20.6255 23.2299C20.916 23.6307 21.2064 24.0581 21.6289 24.3787C22.0778 24.726 22.6059 24.913 23.1076 25.1C24.1638 25.5007 25.2464 25.7679 26.3818 25.7679C28.3094 25.8213 30.2369 25.0466 31.3724 23.417C31.6628 22.9895 30.9763 22.5888 30.6858 23.0162C29.7352 24.4054 27.9925 24.9931 26.3818 24.9664C25.4048 24.9397 24.4543 24.726 23.5565 24.4054C23.1076 24.2451 22.6059 24.0848 22.2098 23.8177C21.8402 23.5772 21.5761 23.2032 21.3121 22.8292C20.9952 22.4018 20.3087 22.8025 20.6255 23.2299Z" fill="#EDEDED"/>
</svg>
