<svg width="50" height="45" viewBox="0 0 50 45" fill="none" xmlns="http://www.w3.org/2000/svg">
<path d="M12.4707 39.6292C12.4707 37.9054 13.8681 36.5078 15.592 36.5078C17.3159 36.5078 18.7134 37.9053 18.7134 39.6292H12.4707ZM12.4707 39.6292C12.4707 41.3531 13.8682 42.7505 15.592 42.7505M12.4707 39.6292L15.592 42.7505M15.592 42.7505C17.3159 42.7505 18.7134 41.3531 18.7134 39.6292L15.592 42.7505ZM15.7134 39.6291V39.6292C15.7134 39.6292 15.7134 39.6292 15.7134 39.6292C15.7134 39.6292 15.7134 39.6293 15.7134 39.6293C15.7133 39.6963 15.659 39.7505 15.592 39.7505C15.5251 39.7505 15.4708 39.6963 15.4707 39.6293C15.4707 39.6293 15.4707 39.6292 15.4707 39.6292C15.4707 39.6292 15.4707 39.6292 15.4707 39.6292C15.4707 39.5622 15.525 39.5078 15.592 39.5078C15.6591 39.5078 15.7134 39.5622 15.7134 39.6291Z" fill="#FDF9F9" stroke="#FDF9F9" stroke-width="3"/>
<path d="M29.6438 36.5078C27.9199 36.5078 26.5225 37.9054 26.5225 39.6292C26.5225 41.3531 27.92 42.7505 29.6438 42.7505C31.3677 42.7505 32.7652 41.353 32.7652 39.6292C32.7652 37.9054 31.3677 36.5078 29.6438 36.5078ZM29.5225 39.6292C29.5225 39.5622 29.5768 39.5078 29.6438 39.5078C29.7108 39.5078 29.7652 39.5622 29.7652 39.6292C29.7652 39.6292 29.7652 39.6292 29.7652 39.6292C29.7652 39.6292 29.7652 39.6293 29.7652 39.6293C29.7651 39.6962 29.7108 39.7505 29.6438 39.7505C29.5768 39.7505 29.5225 39.6963 29.5225 39.6293C29.5225 39.6293 29.5225 39.6292 29.5225 39.6292C29.5225 39.6292 29.5225 39.6292 29.5225 39.6292Z" fill="#FDF9F9" stroke="#FDF9F9" stroke-width="3"/>
<path d="M37.9563 12.8734L37.9508 12.867L37.945 12.8607C37.6841 12.5763 37.3273 12.3986 36.9434 12.3609L36.9225 12.3589L36.9015 12.3586L9.5062 11.9808L8.85013 9.98093L8.85019 9.98091L8.8476 9.97341C8.23779 8.20958 6.58258 7.01984 4.7141 7.00012L4.7141 7.00009H4.70882H1.8526C1.10671 7.00009 0.5 7.6036 0.5 8.35064C0.5 9.09767 1.10671 9.70118 1.8526 9.70118H4.70296C5.41849 9.71908 6.04714 10.1775 6.28169 10.8506L11.6342 26.9534L11.2845 27.7559L11.2805 27.7651L11.2768 27.7745C10.743 29.1477 10.9034 30.6933 11.7075 31.9283L11.7086 31.9299C12.5078 33.147 13.8519 33.8977 15.3088 33.9414L15.3163 33.9416H15.3238H31.907C32.6529 33.9416 33.2596 33.3381 33.2596 32.5911C33.2596 31.844 32.6529 31.2405 31.907 31.2405H15.3303C14.7693 31.2246 14.2539 30.9294 13.9572 30.4549L13.9571 30.4547C13.6593 29.9787 13.5959 29.3936 13.7842 28.8656L14.0004 28.3804L31.6603 26.5392L31.6631 26.5389C33.844 26.2992 35.6391 24.7167 36.1449 22.585L38.1847 14.0642C38.3246 13.6557 38.2384 13.2026 37.9563 12.8734ZM33.51 21.9686L33.5099 21.9686L33.5078 21.9779C33.279 23.0024 32.4067 23.7593 31.3559 23.8424L31.3559 23.8423L31.3441 23.8435L14.0098 25.6309L10.3919 14.6871L35.1947 15.0504L33.51 21.9686Z" fill="#FDF9F9" stroke="#FDF9F9"/>
<g clip-path="url(#clip0)">
<path d="M39.6269 20.253C45.2196 20.253 49.7534 15.7192 49.7534 10.1265C49.7534 4.5338 45.2196 0 39.6269 0C34.0342 0 29.5004 4.5338 29.5004 10.1265C29.5004 15.7192 34.0342 20.253 39.6269 20.253Z" fill="url(#paint0_linear)"/>
</g>
<defs>
<linearGradient id="paint0_linear" x1="39.6262" y1="20.2516" x2="39.6262" y2="0" gradientUnits="userSpaceOnUse">
<stop offset="5.43435e-07" stop-color="#F7931E"/>
<stop offset="0.4922" stop-color="#F7931E"/>
<stop offset="1" stop-color="#FF0000"/>
</linearGradient>
<clipPath id="clip0">
<rect width="20.2503" height="20.2503" fill="white" transform="translate(29.5004)"/>
</clipPath>
</defs>
</svg>
