<svg width="60" height="61" viewBox="0 0 60 61" fill="none" xmlns="http://www.w3.org/2000/svg">
<path d="M30.0004 15.516C29.3536 15.516 28.8285 16.041 28.8285 16.6879C28.8285 17.3347 29.3536 17.8597 30.0004 17.8597C30.6472 17.8597 31.1723 17.3347 31.1723 16.6879C31.1723 16.041 30.6472 15.516 30.0004 15.516Z" fill="#FDF9F9"/>
<path d="M10.547 36.61C11.1939 36.61 11.7189 36.0849 11.7189 35.4381C11.7189 34.7913 11.1939 34.2662 10.547 34.2662C9.90019 34.2662 9.37513 34.7913 9.37513 35.4381C9.37513 36.0849 9.90019 36.61 10.547 36.61Z" fill="#FDF9F9"/>
<path d="M39.3755 3.79703C28.8253 3.79703 20.1661 11.071 19.4964 20.2333C9.44883 20.7373 0 27.9824 0 37.7819C0 41.8771 1.62051 45.845 4.57038 48.989C5.15403 51.395 4.44541 53.9453 2.68711 55.7036C2.35202 56.0387 2.25177 56.5427 2.43305 56.9808C2.61432 57.4184 3.04142 57.704 3.51567 57.704C6.85785 57.704 10.0787 56.3934 12.4719 54.084C14.8034 54.8787 17.8453 55.3602 20.6253 55.3602C31.1741 55.3602 39.8324 48.0881 40.504 38.9277C42.9576 38.8187 45.5097 38.3655 47.5289 37.6775C49.9221 39.987 53.143 41.2976 56.4852 41.2976C56.9594 41.2976 57.3865 41.0119 57.5678 40.5743C57.7491 40.1362 57.6488 39.6322 57.3137 39.2971C55.5554 37.5388 54.8468 34.9886 55.4305 32.5825C58.3803 29.4386 60.0008 25.4706 60.0008 21.3754C60.0008 11.1932 49.8242 3.79703 39.3755 3.79703ZM20.6253 53.0165C17.8594 53.0165 14.7077 52.4735 12.5965 51.6335C12.1442 51.4532 11.6274 51.5717 11.2982 51.9311C9.88326 53.4779 8.04348 54.5564 6.0389 55.0522C7.1435 52.9359 7.42549 50.4411 6.75348 48.0771C6.70038 47.8908 6.60196 47.7205 6.46692 47.5818C3.80819 44.8434 2.34378 41.363 2.34378 37.7819C2.34378 29.5237 10.7155 22.5473 20.6253 22.5473C29.983 22.5473 38.2037 29.0545 38.2037 37.7819C38.2037 46.1824 30.3181 53.0165 20.6253 53.0165ZM53.5339 31.1753C53.3989 31.3145 53.3005 31.4848 53.2474 31.6706C52.5754 34.0346 52.8573 36.5294 53.9619 38.6457C51.9574 38.1504 50.1176 37.0714 48.7026 35.5246C48.3735 35.1657 47.8567 35.0467 47.4044 35.2271C45.5747 35.9549 42.9645 36.4589 40.5003 36.5807C40.1579 32.149 37.9473 27.9838 34.168 24.8911H49.4538C50.1011 24.8911 50.6257 24.3665 50.6257 23.7192C50.6257 23.0719 50.1011 22.5473 49.4538 22.5473H30.5676C27.9075 21.1932 24.9205 20.4036 21.8462 20.2378C22.5195 12.3669 30.1245 6.14081 39.3755 6.14081C49.2854 6.14081 57.6571 13.1172 57.6571 21.3754C57.6571 24.9565 56.1926 28.437 53.5339 31.1753Z" fill="#FDF9F9"/>
<path d="M30.0004 34.2662H15.2346C14.5873 34.2662 14.0627 34.7908 14.0627 35.4381C14.0627 36.0854 14.5873 36.61 15.2346 36.61H30.0004C30.6477 36.61 31.1723 36.0854 31.1723 35.4381C31.1723 34.7908 30.6477 34.2662 30.0004 34.2662Z" fill="#FDF9F9"/>
<path d="M30.0004 41.2976H10.547C9.89974 41.2976 9.37513 41.8222 9.37513 42.4695C9.37513 43.1168 9.89974 43.6414 10.547 43.6414H30.0004C30.6477 43.6414 31.1723 43.1168 31.1723 42.4695C31.1723 41.8222 30.6477 41.2976 30.0004 41.2976Z" fill="#FDF9F9"/>
<path d="M49.4538 15.516H34.688C34.0407 15.516 33.5161 16.0406 33.5161 16.6879C33.5161 17.3351 34.0407 17.8597 34.688 17.8597H49.4538C50.1011 17.8597 50.6257 17.3351 50.6257 16.6879C50.6257 16.0406 50.1011 15.516 49.4538 15.516Z" fill="#FDF9F9"/>
</svg>
