<svg width="41" height="41" viewBox="0 0 41 41" fill="none" xmlns="http://www.w3.org/2000/svg">
<path d="M41 20.4995C41 9.17806 31.8219 0 20.4995 0C9.17701 0 0 9.17806 0 20.4995C0 31.8209 9.17806 40.999 20.4995 40.999C31.8209 40.999 41 31.8219 41 20.4995ZM31.0866 11.063C31.0866 12.6468 29.8031 13.9303 28.2193 13.9303C28.1294 13.9303 28.0446 13.9125 27.9568 13.9041C28.0363 14.629 28.0133 15.3696 28.0133 16.105C28.0133 17.7933 28.0133 19.4806 28.0133 21.169C28.0133 22.3541 28.0133 23.5383 28.0133 24.7234C28.0133 25.305 27.5237 25.7883 26.9442 25.7925C24.2286 25.8155 21.5131 25.8354 18.7976 25.8521C21.602 26.9379 24.4159 27.9976 27.2287 29.0583C28.3083 29.4652 28.2214 31.1577 26.9442 31.1587C22.3845 31.1629 17.8247 31.1682 13.265 31.1723C11.8884 31.1734 11.8863 29.0353 13.265 29.0332C15.8832 29.03 18.5026 29.0279 21.1208 29.0248C18.3969 27.9882 15.6782 26.9369 12.9805 25.8354C11.9302 25.4065 11.9658 23.736 13.265 23.7349C17.468 23.7318 21.6721 23.6962 25.8751 23.6617C25.8751 21.5842 25.8751 19.5068 25.8751 17.4293C25.8751 16.4983 25.8877 15.5663 25.8751 14.6353C25.8636 13.8204 25.6963 12.8288 24.9389 12.3654C24.1251 11.8664 22.7171 12.1227 21.7966 12.1216C18.9524 12.1196 16.1082 12.1468 13.265 12.1332C11.8894 12.1269 11.8863 9.9877 13.265 9.99398C15.9753 10.0076 18.6867 9.98247 21.397 9.98247C22.6135 9.98247 23.9985 9.81406 25.1795 10.1519C25.2831 10.1812 25.3814 10.221 25.4797 10.2597C25.8291 9.07032 26.916 8.19686 28.2183 8.19686C29.8031 8.19686 31.0866 9.47932 31.0866 11.063ZM14.3968 20.1909C17.4377 20.2097 20.4796 20.2306 23.5205 20.2306C24.8971 20.2306 24.8992 22.3698 23.5205 22.3698C20.1229 22.3698 16.7253 22.3468 13.3277 22.3259C12.7493 22.3227 12.2587 21.8384 12.2587 21.2568C12.2587 19.0329 12.2587 16.8101 12.2587 14.5861C12.2587 14.0077 12.7482 13.5171 13.3277 13.5171C16.8163 13.5171 20.3049 13.5108 23.7924 13.5568C25.168 13.5746 25.1711 15.7138 23.7924 15.696C20.6606 15.6552 17.5287 15.6563 14.3968 15.6563C14.3968 17.1678 14.3968 18.6793 14.3968 20.1909Z" fill="#020202"/>
<path d="M28.2205 13.9307C28.1305 13.9307 28.0458 13.9129 27.9579 13.9045C27.9015 13.3878 27.7948 12.8794 27.5855 12.3857C27.1807 11.4337 26.4474 10.6387 25.4819 10.2601C25.8313 9.07072 26.9182 8.19727 28.2205 8.19727C29.8042 8.19727 31.0877 9.48077 31.0877 11.0645C31.0877 12.6482 29.8032 13.9307 28.2205 13.9307Z" fill="#020202"/>
<path d="M28.2205 13.9307C28.1305 13.9307 28.0458 13.9129 27.9579 13.9045C27.9015 13.3878 27.7948 12.8794 27.5855 12.3857C27.1807 11.4337 26.4474 10.6387 25.4819 10.2601C25.8313 9.07072 26.9182 8.19727 28.2205 8.19727C29.8042 8.19727 31.0877 9.48077 31.0877 11.0645C31.0877 12.6482 29.8032 13.9307 28.2205 13.9307Z" fill="url(#paint0_linear)"/>
<defs>
<linearGradient id="paint0_linear" x1="28.2845" y1="13.9302" x2="28.2845" y2="8.19677" gradientUnits="userSpaceOnUse">
<stop offset="5.43435e-07" stop-color="#F7931E"/>
<stop offset="0.4922" stop-color="#F7931E"/>
<stop offset="1" stop-color="#FF0000"/>
</linearGradient>
</defs>
</svg>
