<svg width="1199" height="1105" viewBox="0 0 1199 1105" fill="none" xmlns="http://www.w3.org/2000/svg">
<mask id="path-1-outside-1_745_2" maskUnits="userSpaceOnUse" x="-1" y="0" width="1200" height="1105" fill="black">
<rect fill="white" x="-1" width="1200" height="1105"/>
<path fill-rule="evenodd" clip-rule="evenodd" d="M390.195 48.8763C378.897 52.6076 369.905 57.8886 357.07 68.3318C342.477 80.2048 337.408 89.0754 337.39 102.767C337.361 125.639 355.045 152.033 391.808 183.985C418.487 207.173 448.941 228.555 492.946 254.996L497.218 257.563L496.459 248.939C490.56 181.954 477.188 124.906 459.218 90.0639C448.755 69.7768 436.843 56.631 423.204 50.3191C415.087 46.5627 399.292 45.8729 390.195 48.8763ZM110.713 126.462C101.998 128.263 90.1242 134.895 81.9609 142.523C72.7017 151.173 64.5593 162.385 56.4302 177.68C48.2647 193.041 46.5306 199.396 47.0983 211.866C47.4846 220.337 48.0732 222.835 51.1222 228.939C68.1343 262.995 123.785 290.603 219.84 312.64C249.913 319.54 305.685 329.282 307.097 327.883C308.268 326.722 287.167 288.561 270.428 261.565C231.157 198.23 190.325 152.601 157.722 135.618C141.552 127.194 123.852 123.747 110.713 126.462ZM588.803 228.26C558.82 233.384 534.643 249.21 524.192 270.553C518.886 281.387 516.591 296.911 518.861 306.598C520.063 311.729 519.919 311.687 508.452 303.529C485.38 287.117 459.999 278.761 433.107 278.722C403.962 278.681 380.733 287.381 362.55 305.147C354.702 312.817 352.298 316.02 348.635 323.682C342.488 336.539 341.388 342.203 342.03 357.667C342.417 366.944 342.222 370.508 341.35 370.136C316.216 359.415 304.855 356.33 287.771 355.588C276.996 355.119 272.051 355.399 265.486 356.845C243.151 361.767 226.645 376.122 220.579 395.901C218.732 401.927 218.388 405.308 218.804 413.383C219.638 429.572 224.911 440.823 237.414 453.091C244.296 459.843 244.327 459.902 241.078 459.916C235.336 459.941 218.228 463.882 210.407 466.98C198.567 471.672 190.033 477.2 181.684 485.587C169.48 497.845 163.555 509.477 161.288 525.619C158.888 542.719 164.033 559.442 175.77 572.682C184.078 582.054 200.882 590.984 215.794 593.952C219.425 594.674 223.104 595.477 223.972 595.736C224.918 596.019 222.499 598.21 217.92 601.224C207.731 607.925 190.414 625.428 185.231 634.264C176.853 648.548 173.855 664.929 177.255 677.855C185.162 707.914 214.905 726.377 252.105 724.318C258.761 723.949 267.375 722.897 271.245 721.978C275.114 721.059 278.455 720.481 278.67 720.693C278.883 720.905 276.851 722.648 274.152 724.568C268.237 728.775 262.711 735.332 258.873 742.696C245.924 767.542 259.483 803.934 286.359 816.463C304.303 824.829 323.253 822.431 340.37 809.632C343.566 807.242 346.182 805.504 346.182 805.771C346.182 806.037 344.235 809.608 341.855 813.707C332.891 829.146 328.992 847.938 331.808 862.119C337.462 890.579 362.659 910.055 394.046 910.227C410.67 910.317 425.719 905.628 438.898 896.251C441.883 894.126 444.575 892.634 444.878 892.935C445.182 893.235 444.904 895.109 444.261 897.096C441.803 904.701 441.718 911.383 443.97 919.94C447.084 931.775 451.947 939.661 462.748 950.391C476.622 964.175 491.2 972.023 511.23 976.494C535.435 981.897 560.567 975.77 577.361 960.37L583.685 954.573L589.508 959.695C608.842 976.701 640.218 996.143 681.78 1016.87C724.68 1038.26 760.9 1049.58 805.566 1055.56C823.119 1057.91 864.242 1058.76 883.298 1057.17C934.112 1052.93 981.761 1038.79 1023.98 1015.41C1048.77 1001.69 1064.7 989.879 1084.34 970.682C1117.62 938.137 1136.86 905.154 1146.59 863.967C1150.26 848.424 1151.61 835.799 1151.59 817.344C1151.55 778.817 1141.63 741.388 1120.98 701.829C1110.26 681.275 1106.01 677.001 1091.56 672.206C1084.71 669.935 1082.01 669.688 1064.69 669.748C1052.81 669.789 1037 670.727 1023.43 672.194C986.042 676.236 945.534 677.981 939.896 675.793C937.989 675.053 938.149 674.707 941.547 672.209C943.614 670.687 949.02 667.602 953.559 665.352C973.898 655.267 985.704 641.996 990.384 623.955C992.618 615.349 992.51 610.163 989.889 600.013C983.133 573.853 959.719 556.06 929.172 553.873L918.044 553.077L927.537 548.249C949.456 537.105 965.839 521.266 975.527 501.858C983.043 486.797 984.739 479.721 984.795 463.171C984.85 446.879 983.199 439.688 976.13 425.43C961.164 395.242 928.236 378.263 892.268 382.187C886.339 382.834 881.291 383.185 881.051 382.967C880.81 382.75 881.716 379.252 883.062 375.195C892.012 348.231 883.072 318.199 858.952 294.199C840.967 276.305 815.801 263.247 789.563 258.196C777.879 255.945 753.274 256.512 742.847 259.271C727.087 263.441 713.291 271.073 702.397 281.652L698.258 285.671L696.346 282.2C680.946 254.25 659.728 237.286 631.138 230.066C619.126 227.032 600.609 226.242 588.803 228.26ZM896.652 555.811C897.157 558.503 897.353 566.835 897.088 574.327C896.706 585.111 896.009 589.783 893.735 596.752C886.645 618.491 871.096 632.513 842.496 642.957L833.394 646.281L827.397 642.883C814.837 635.766 788.709 614.957 777.726 603.325C765.81 590.702 747.119 568.076 747.957 567.287C748.173 567.086 750.485 566.748 753.094 566.537L757.839 566.154L759.716 571.626C762.488 579.702 765.83 583.648 772.73 586.991C777.873 589.484 780.304 589.973 787.321 589.928C810.115 589.783 825.33 578.307 823.484 562.651C823.134 559.68 823.472 558.907 825.313 558.481C828.607 557.719 892.197 550.588 894.113 550.765C895.122 550.859 896.081 552.765 896.652 555.811ZM716.104 577.064C717.821 586.405 717.144 607.217 714.83 616.283C707.622 644.521 690.134 660.639 652.909 673.352C608.197 688.622 567.925 686.965 528.868 668.252C506.367 657.471 493.205 637.798 488.63 608.11C487.754 602.416 487.033 595.721 487.03 593.232L487.023 588.708L493.35 588.088C496.83 587.747 504.38 587.194 510.13 586.859C515.879 586.525 523.354 585.981 526.742 585.651L532.902 585.049L533.573 592.166C534.747 604.628 541.535 614.329 552.405 619.085C567.214 625.563 598.597 618.639 606.476 607.154C610.268 601.628 611.932 593.174 610.571 586.354C609.962 583.304 609.857 580.566 610.339 580.272C610.821 579.977 629.196 578.492 651.174 576.973C673.151 575.454 695.836 573.81 701.585 573.321C715.568 572.131 715.18 572.031 716.104 577.064Z"/>
</mask>
<path fill-rule="evenodd" clip-rule="evenodd" d="M390.195 48.8763C378.897 52.6076 369.905 57.8886 357.07 68.3318C342.477 80.2048 337.408 89.0754 337.39 102.767C337.361 125.639 355.045 152.033 391.808 183.985C418.487 207.173 448.941 228.555 492.946 254.996L497.218 257.563L496.459 248.939C490.56 181.954 477.188 124.906 459.218 90.0639C448.755 69.7768 436.843 56.631 423.204 50.3191C415.087 46.5627 399.292 45.8729 390.195 48.8763ZM110.713 126.462C101.998 128.263 90.1242 134.895 81.9609 142.523C72.7017 151.173 64.5593 162.385 56.4302 177.68C48.2647 193.041 46.5306 199.396 47.0983 211.866C47.4846 220.337 48.0732 222.835 51.1222 228.939C68.1343 262.995 123.785 290.603 219.84 312.64C249.913 319.54 305.685 329.282 307.097 327.883C308.268 326.722 287.167 288.561 270.428 261.565C231.157 198.23 190.325 152.601 157.722 135.618C141.552 127.194 123.852 123.747 110.713 126.462ZM588.803 228.26C558.82 233.384 534.643 249.21 524.192 270.553C518.886 281.387 516.591 296.911 518.861 306.598C520.063 311.729 519.919 311.687 508.452 303.529C485.38 287.117 459.999 278.761 433.107 278.722C403.962 278.681 380.733 287.381 362.55 305.147C354.702 312.817 352.298 316.02 348.635 323.682C342.488 336.539 341.388 342.203 342.03 357.667C342.417 366.944 342.222 370.508 341.35 370.136C316.216 359.415 304.855 356.33 287.771 355.588C276.996 355.119 272.051 355.399 265.486 356.845C243.151 361.767 226.645 376.122 220.579 395.901C218.732 401.927 218.388 405.308 218.804 413.383C219.638 429.572 224.911 440.823 237.414 453.091C244.296 459.843 244.327 459.902 241.078 459.916C235.336 459.941 218.228 463.882 210.407 466.98C198.567 471.672 190.033 477.2 181.684 485.587C169.48 497.845 163.555 509.477 161.288 525.619C158.888 542.719 164.033 559.442 175.77 572.682C184.078 582.054 200.882 590.984 215.794 593.952C219.425 594.674 223.104 595.477 223.972 595.736C224.918 596.019 222.499 598.21 217.92 601.224C207.731 607.925 190.414 625.428 185.231 634.264C176.853 648.548 173.855 664.929 177.255 677.855C185.162 707.914 214.905 726.377 252.105 724.318C258.761 723.949 267.375 722.897 271.245 721.978C275.114 721.059 278.455 720.481 278.67 720.693C278.883 720.905 276.851 722.648 274.152 724.568C268.237 728.775 262.711 735.332 258.873 742.696C245.924 767.542 259.483 803.934 286.359 816.463C304.303 824.829 323.253 822.431 340.37 809.632C343.566 807.242 346.182 805.504 346.182 805.771C346.182 806.037 344.235 809.608 341.855 813.707C332.891 829.146 328.992 847.938 331.808 862.119C337.462 890.579 362.659 910.055 394.046 910.227C410.67 910.317 425.719 905.628 438.898 896.251C441.883 894.126 444.575 892.634 444.878 892.935C445.182 893.235 444.904 895.109 444.261 897.096C441.803 904.701 441.718 911.383 443.97 919.94C447.084 931.775 451.947 939.661 462.748 950.391C476.622 964.175 491.2 972.023 511.23 976.494C535.435 981.897 560.567 975.77 577.361 960.37L583.685 954.573L589.508 959.695C608.842 976.701 640.218 996.143 681.78 1016.87C724.68 1038.26 760.9 1049.58 805.566 1055.56C823.119 1057.91 864.242 1058.76 883.298 1057.17C934.112 1052.93 981.761 1038.79 1023.98 1015.41C1048.77 1001.69 1064.7 989.879 1084.34 970.682C1117.62 938.137 1136.86 905.154 1146.59 863.967C1150.26 848.424 1151.61 835.799 1151.59 817.344C1151.55 778.817 1141.63 741.388 1120.98 701.829C1110.26 681.275 1106.01 677.001 1091.56 672.206C1084.71 669.935 1082.01 669.688 1064.69 669.748C1052.81 669.789 1037 670.727 1023.43 672.194C986.042 676.236 945.534 677.981 939.896 675.793C937.989 675.053 938.149 674.707 941.547 672.209C943.614 670.687 949.02 667.602 953.559 665.352C973.898 655.267 985.704 641.996 990.384 623.955C992.618 615.349 992.51 610.163 989.889 600.013C983.133 573.853 959.719 556.06 929.172 553.873L918.044 553.077L927.537 548.249C949.456 537.105 965.839 521.266 975.527 501.858C983.043 486.797 984.739 479.721 984.795 463.171C984.85 446.879 983.199 439.688 976.13 425.43C961.164 395.242 928.236 378.263 892.268 382.187C886.339 382.834 881.291 383.185 881.051 382.967C880.81 382.75 881.716 379.252 883.062 375.195C892.012 348.231 883.072 318.199 858.952 294.199C840.967 276.305 815.801 263.247 789.563 258.196C777.879 255.945 753.274 256.512 742.847 259.271C727.087 263.441 713.291 271.073 702.397 281.652L698.258 285.671L696.346 282.2C680.946 254.25 659.728 237.286 631.138 230.066C619.126 227.032 600.609 226.242 588.803 228.26ZM896.652 555.811C897.157 558.503 897.353 566.835 897.088 574.327C896.706 585.111 896.009 589.783 893.735 596.752C886.645 618.491 871.096 632.513 842.496 642.957L833.394 646.281L827.397 642.883C814.837 635.766 788.709 614.957 777.726 603.325C765.81 590.702 747.119 568.076 747.957 567.287C748.173 567.086 750.485 566.748 753.094 566.537L757.839 566.154L759.716 571.626C762.488 579.702 765.83 583.648 772.73 586.991C777.873 589.484 780.304 589.973 787.321 589.928C810.115 589.783 825.33 578.307 823.484 562.651C823.134 559.68 823.472 558.907 825.313 558.481C828.607 557.719 892.197 550.588 894.113 550.765C895.122 550.859 896.081 552.765 896.652 555.811ZM716.104 577.064C717.821 586.405 717.144 607.217 714.83 616.283C707.622 644.521 690.134 660.639 652.909 673.352C608.197 688.622 567.925 686.965 528.868 668.252C506.367 657.471 493.205 637.798 488.63 608.11C487.754 602.416 487.033 595.721 487.03 593.232L487.023 588.708L493.35 588.088C496.83 587.747 504.38 587.194 510.13 586.859C515.879 586.525 523.354 585.981 526.742 585.651L532.902 585.049L533.573 592.166C534.747 604.628 541.535 614.329 552.405 619.085C567.214 625.563 598.597 618.639 606.476 607.154C610.268 601.628 611.932 593.174 610.571 586.354C609.962 583.304 609.857 580.566 610.339 580.272C610.821 579.977 629.196 578.492 651.174 576.973C673.151 575.454 695.836 573.81 701.585 573.321C715.568 572.131 715.18 572.031 716.104 577.064Z" stroke="black" stroke-width="94" mask="url(#path-1-outside-1_745_2)"/>
</svg>
