<svg width="26" height="26" viewBox="0 0 26 26" fill="none" xmlns="http://www.w3.org/2000/svg">
<path d="M17.8814 15.4372C20.8525 11.2419 19.8588 5.43262 15.6635 2.46232C11.4681 -0.507982 5.65885 0.484957 2.68855 4.681C-0.281756 8.87633 0.711184 14.6849 4.90722 17.6552C7.90166 19.7752 11.8606 19.9385 15.019 18.0733L21.8816 24.8947C22.6226 25.6747 23.8554 25.7059 24.6354 24.9649C25.4154 24.2247 25.4467 22.9918 24.7064 22.2118C24.683 22.187 24.6603 22.1643 24.6354 22.1408L17.8814 15.4372ZM10.2793 16.0732C6.96408 16.0739 4.27626 13.3882 4.27413 10.073C4.27342 6.75772 6.95911 4.0699 10.2751 4.06848C13.586 4.06706 16.2724 6.7485 16.2788 10.0595C16.2845 13.3754 13.6002 16.0675 10.2836 16.0732C10.2822 16.0732 10.2814 16.0732 10.2793 16.0732Z" fill="#020202"/>
</svg>
