<svg width="77" height="105" viewBox="0 0 77 105" fill="none" xmlns="http://www.w3.org/2000/svg">
<g clip-path="url(#clip0_685_466)">
<path d="M55.8548 27.6941C55.1343 24.2285 52.6595 21.0438 48.9943 20.4818C48.0545 20.3257 47.0521 20.3882 46.1436 20.7941C45.2978 21.1687 44.64 21.8556 44.1388 22.6049C43.0423 24.3534 42.5411 26.5389 42.4471 28.5684C42.4158 29.0991 42.4158 29.6299 42.5098 30.1295C42.6351 30.6603 42.8231 31.191 43.011 31.7218C43.199 32.1901 43.3869 32.6272 43.7002 32.9707C44.2954 33.6264 45.1725 33.9386 46.0183 34.0947C48.1485 34.4693 50.5293 33.8449 52.4089 32.8458C54.3198 31.8467 56.3247 30.0046 55.8548 27.6941C55.7295 27.1009 56.638 26.8512 56.7633 27.4444C57.2645 29.8797 55.6668 31.9404 53.6933 33.2205C51.6257 34.563 48.9317 35.3436 46.4569 35.0938C45.3605 35.0001 44.2641 34.6567 43.3869 33.9386C42.9797 33.6264 42.6664 33.1892 42.4471 32.7521C42.0086 31.8779 41.664 30.8476 41.5387 29.8485C41.382 28.6308 41.57 27.3507 41.8206 26.1643C42.0399 25.0715 42.3845 23.9787 42.8857 22.9484C43.3243 22.0742 43.8881 21.1999 44.64 20.6067C45.4858 19.9511 46.4569 19.5764 47.522 19.4827C51.6571 19.1393 55.0716 22.3552 56.356 26.0394C56.5126 26.5077 56.638 26.9448 56.7319 27.4132C56.8886 28.0064 55.9801 28.2874 55.8548 27.6941Z" fill="#EDEDED"/>
<path d="M43.9822 21.2623C43.8256 20.9813 43.387 20.8876 43.1051 20.7627C42.7292 20.6066 42.3219 20.4505 41.9147 20.3256C41.1628 20.0758 40.3484 19.8573 39.5652 19.7948C37.9989 19.6699 36.4952 20.0758 35.3675 21.1998C34.3024 22.2614 33.6759 23.7288 33.5192 25.2275C33.3626 26.6949 33.5819 28.3809 34.459 29.5986C35.2422 30.6601 36.7772 31.628 38.1555 31.4719C38.4061 31.4407 38.6567 31.5343 38.7194 31.7841C38.782 32.0027 38.6567 32.3149 38.4061 32.3461C36.8711 32.5647 35.3048 31.8153 34.2084 30.7226C32.9867 29.4737 32.5168 27.6316 32.5481 25.9456C32.5794 24.1347 33.206 22.3238 34.365 20.95C35.5241 19.545 37.247 18.8269 39.064 18.8582C40.0977 18.8894 41.1315 19.1079 42.1026 19.4514C42.6038 19.6075 43.1051 19.826 43.575 20.0134C44.0449 20.2007 44.5147 20.388 44.7654 20.8251C45.0786 21.2935 44.2641 21.793 43.9822 21.2623Z" fill="#EDEDED"/>
<path d="M42.3844 31.3784C40.2543 32.034 38.0927 32.4399 35.8686 32.6585C33.7071 32.8458 31.4202 32.7209 29.3527 33.4703C25.8755 34.7191 24.4658 38.9029 25.061 42.3061C25.249 43.3989 25.6875 44.398 26.4394 45.241C27.1286 45.9903 27.943 46.6148 28.8202 47.1143C30.5118 48.1134 32.454 48.6754 34.3962 48.8003C38.1241 49.0189 41.8206 47.5514 44.4833 44.9288C47.2713 42.2124 48.6497 38.4033 48.5244 34.5318C48.4931 33.9386 49.4329 33.9386 49.4642 34.5318C49.5895 38.2472 48.3991 41.9002 45.9556 44.7414C43.4182 47.6763 39.6591 49.5809 35.7746 49.737C33.6757 49.8306 31.5456 49.3935 29.6347 48.5505C27.7238 47.7075 25.6875 46.3338 24.7791 44.398C23.1501 40.9636 24.1526 35.9992 27.1912 33.6264C28.9768 32.2214 31.2636 32.034 33.4565 31.9091C35.8059 31.7843 38.1241 31.5657 40.3796 31.0037C40.9748 30.8476 41.57 30.6915 42.1652 30.5042C42.729 30.3168 42.9796 31.2223 42.3844 31.3784Z" fill="#EDEDED"/>
<path d="M28.3502 33.0955C26.0634 31.3783 23.62 29.661 22.0536 27.2257C21.2705 25.9768 20.7066 24.6031 20.55 23.1356C20.4873 22.4487 20.456 21.6994 20.6753 21.0437C20.9259 20.3568 21.4584 19.9197 22.1163 19.6387C23.5886 19.0455 25.3116 19.2329 26.6273 20.0758C26.3767 20.2007 26.1574 20.3568 25.9068 20.4817C25.8128 18.6708 25.8754 16.8287 26.1261 15.0491C26.3453 13.488 26.6586 11.8644 27.3165 10.4282C27.849 9.17933 28.7575 7.99288 30.1045 7.55577C31.2009 7.21233 32.5166 7.36844 33.4251 8.11777C33.8636 8.49244 34.1456 8.99199 34.2709 9.58521C34.3649 10.0223 34.3335 10.8341 34.7095 11.1151C34.9601 11.3337 35.3673 11.1151 35.6179 11.0214C35.9938 10.8653 36.3697 10.678 36.7143 10.4907C37.4348 10.0848 38.124 9.64766 38.8132 9.17932C40.2229 8.27388 41.6326 7.46211 43.2302 6.96255C44.6399 6.52544 46.2375 6.182 47.7412 6.33811C48.9942 6.463 50.4666 6.99378 50.9991 8.24266C51.6883 9.86621 50.3726 11.24 49.2135 12.2079C49.1509 11.9581 49.0882 11.6771 48.9942 11.4273C53.0667 12.2079 57.3584 11.3024 61.3055 12.7074C63.0284 13.3319 64.5634 14.3622 65.6285 15.8921C66.6309 17.3283 67.2575 19.2328 67.0382 20.9813C66.9755 21.4496 66.8189 21.918 66.5056 22.2614C66.161 22.6361 65.6912 22.8234 65.2526 22.9795C64.0935 23.4478 62.9031 23.8849 61.744 24.3533C61.7754 24.0723 61.8067 23.7913 61.8693 23.5103C63.2477 24.1972 64.5634 24.9465 65.8165 25.8207C66.9755 26.6013 68.2599 27.4443 69.1684 28.5683C70.0142 29.5986 70.2961 30.8475 69.7009 32.0651C69.1684 33.1891 68.0093 33.9697 66.8816 34.3756C65.2213 34.9376 63.4357 34.8439 61.744 35.3122C61.8693 35.1561 61.9633 35 62.0886 34.8751C62.3079 36.4987 62.4959 38.1222 62.7152 39.7458C62.8091 40.5576 62.9344 41.4006 63.0284 42.2123C63.1224 42.8992 63.2477 43.6486 63.0284 44.3354C62.6525 45.4594 61.4934 46.0839 60.3657 46.24C59.0187 46.4273 57.7029 46.1151 56.4812 45.5531C55.0402 44.8974 53.7872 43.8983 52.5968 42.868C52.8474 42.8368 53.098 42.8056 53.3486 42.7743C52.1895 44.9287 49.0569 45.678 47.052 44.2418C46.5821 43.8983 47.0207 43.0866 47.5219 43.43C49.1195 44.5852 51.5943 44.0544 52.5341 42.306C52.6907 42.025 53.0667 42.025 53.2859 42.2123C55.0715 43.7734 57.2331 45.4282 59.7078 45.3658C60.6476 45.3345 61.9007 44.9911 62.1513 43.9608C62.3079 43.3363 62.12 42.6182 62.0573 41.9938C61.9633 41.2757 61.8693 40.5576 61.7754 39.8395C61.5561 38.1847 61.3368 36.5299 61.1488 34.9064C61.1175 34.719 61.3055 34.5005 61.4934 34.4692C63.8116 33.8136 66.9442 34.3131 68.6045 32.19C69.325 31.2534 69.231 30.1294 68.4792 29.2239C67.6647 28.256 66.5056 27.4755 65.4719 26.7574C64.1875 25.8832 62.8405 25.1026 61.4621 24.4157C61.0549 24.2284 61.2428 23.6976 61.5874 23.5727C62.5272 23.1981 63.467 22.8546 64.4068 22.4799C64.814 22.3238 65.2839 22.199 65.6598 21.9492C66.0044 21.7306 66.161 21.3872 66.2237 20.9813C66.3803 19.2328 65.7225 17.5156 64.814 16.2355C62.7152 13.3319 58.8933 12.8323 55.5728 12.7386C53.3173 12.6762 51.0304 12.7386 48.8063 12.3015C48.4617 12.2391 48.3364 11.7395 48.587 11.521C49.4328 10.8341 50.7485 9.7101 50.122 8.49244C49.6521 7.587 48.399 7.306 47.4906 7.24355C46.0809 7.14989 44.6086 7.49333 43.2615 7.96166C41.7892 8.46122 40.4735 9.24177 39.1578 10.116C38.5313 10.5219 37.9361 10.9278 37.2782 11.2712C36.683 11.6146 35.9625 11.9893 35.2733 12.1142C34.6781 12.2079 34.0829 11.9581 33.801 11.4273C33.5504 10.9278 33.5191 10.3658 33.3938 9.83499C33.1745 8.80466 32.266 8.33633 31.2322 8.33633C30.0105 8.36755 29.1021 9.17932 28.5382 10.1784C27.7237 11.5834 27.4104 13.3006 27.1598 14.893C26.8466 16.7663 26.7839 18.6396 26.8779 20.5442C26.9092 20.8876 26.4706 21.1374 26.1574 20.9501C25.1236 20.3256 23.8706 20.1383 22.7115 20.4817C22.1163 20.6691 21.6464 20.9501 21.4898 21.5745C21.3645 22.1677 21.3958 22.8546 21.4898 23.4478C21.897 25.9768 23.526 28.0063 25.4056 29.661C26.4706 30.5977 27.6297 31.4719 28.7888 32.3149C29.3213 32.6271 28.8514 33.4701 28.3502 33.0955Z" fill="#EDEDED"/>
<path d="M7.70616 15.4862C12.4364 16.454 17.198 17.7029 21.0825 20.7627C21.5524 21.1374 20.8945 21.793 20.4246 21.4184C16.6968 18.4835 12.0292 17.3283 7.45554 16.3916C6.89167 16.2667 7.11096 15.3613 7.70616 15.4862Z" fill="#EDEDED"/>
<path d="M25.7817 18.0775C24.4033 16.1418 22.9936 14.2372 21.6153 12.3014C20.3622 10.5842 19.0778 9.02312 17.1983 7.96156C15.4127 6.96245 13.4078 6.36923 11.4656 5.77601C9.27272 5.08913 7.04855 4.46468 4.73041 4.43346C3.66532 4.40224 2.28696 4.43346 1.56645 5.3389C1.28452 5.68235 1.09656 6.21312 1.31584 6.65023C1.5038 6.96245 1.91104 7.24345 2.28696 7.08734C2.81951 6.83757 3.2894 7.61812 2.75685 7.89912C2.13033 8.24256 1.3785 8.71089 1.19054 9.46023C1.06524 10.0222 1.34717 10.6467 1.94237 10.7403C2.47491 10.8028 2.34961 11.7082 1.81706 11.6458C0.93993 11.5833 0.720644 12.8322 1.09656 13.3942C1.75441 14.4245 3.32073 14.6119 4.41715 14.8304C5.01234 14.9553 4.76173 15.8608 4.16653 15.7359C2.6942 15.4549 0.657993 15.1114 0.09412 13.4567C-0.281796 12.3014 0.407383 10.5842 1.81706 10.7091C1.78574 11.0213 1.72309 11.3336 1.69176 11.6146C0.720648 11.4897 0.125444 10.4281 0.219423 9.49145C0.313402 8.33623 1.31584 7.55568 2.25563 7.05612C2.41226 7.33712 2.56889 7.5869 2.72552 7.8679C1.84839 8.27378 0.814625 7.83667 0.407383 6.96245C-0.0625114 5.99457 0.501362 4.87057 1.28452 4.24613C2.22431 3.52802 3.47736 3.46558 4.6051 3.46558C5.9208 3.46558 7.20518 3.68413 8.48956 3.96513C9.77394 4.24613 11.0583 4.65202 12.3114 5.0579C13.4391 5.40135 14.5355 5.74479 15.6319 6.1819C16.697 6.61901 17.7308 7.11857 18.6706 7.77423C19.6417 8.46112 20.4875 9.30411 21.2394 10.2408C23.1189 12.5824 24.7792 15.1114 26.5648 17.5468C26.9721 18.0775 26.1576 18.5459 25.7817 18.0775Z" fill="#EDEDED"/>
<path d="M54.1632 54.2327C52.9101 53.7332 51.5944 54.0454 50.3727 54.5137C49.0883 54.9821 47.8666 55.5753 46.5822 56.0124C43.9508 56.9178 41.2567 57.4486 38.5 57.8857C35.7746 58.3228 33.0179 58.635 30.2612 59.0409C27.8178 59.4156 25.2177 59.759 22.9622 60.8206C21.8344 61.3514 20.7067 62.0695 20.0175 63.0998C19.485 63.8804 19.0777 65.2853 20.0175 65.9098C20.3621 66.1596 20.2681 66.6279 19.8922 66.7528C19.203 67.0338 18.2319 67.3772 17.95 68.1266C17.856 68.4076 17.856 68.7198 17.9813 68.9696C18.1379 69.2818 18.4512 69.313 18.7645 69.3442C19.1717 69.3754 19.5476 69.4379 19.8296 69.7501C20.1428 70.1248 20.1115 70.5931 19.9549 70.999C19.8296 71.3737 19.7043 71.6547 19.7982 72.0605C19.8922 72.4352 20.1428 72.7786 20.4248 73.0284C21.9284 74.4334 24.0586 73.6529 25.6249 72.8411C27.4732 71.9044 29.2901 70.9053 31.1384 69.9999C34.9915 68.1266 39.0012 66.503 43.0423 65.1292C45.0159 64.4423 47.0208 63.8179 48.9317 62.9437C50.404 62.288 51.939 61.5387 53.1607 60.4459C54.1945 59.5405 55.2283 58.4165 55.6668 57.1052C55.8235 56.5744 55.9174 56.0124 55.6668 55.4816C55.3536 54.7947 54.6644 54.3888 53.9752 54.1078C53.4113 53.8581 53.9126 53.0775 54.4451 53.2961C55.7608 53.8581 56.8572 54.9196 56.7319 56.4495C56.6379 57.8545 55.7608 59.0721 54.8523 60.1025C53.7873 61.2577 52.5342 62.1631 51.1558 62.8812C49.1823 63.9428 47.0521 64.7546 44.9219 65.4727C40.4736 66.9713 36.0879 68.6573 31.8275 70.6868C29.7913 71.6547 27.8178 72.7786 25.8129 73.7778C24.0273 74.652 21.8344 75.2764 20.0488 73.9651C19.297 73.4031 18.6705 72.4977 18.7958 71.5298C18.8271 71.2488 18.9211 70.999 19.0151 70.7492C19.1091 70.4994 19.1717 70.3433 18.8584 70.2809C18.3886 70.1872 17.95 70.2497 17.5427 69.9374C16.8222 69.4067 16.6969 68.3451 17.1042 67.5958C17.5741 66.6591 18.6705 66.1908 19.6103 65.8473C19.579 66.1283 19.5476 66.4093 19.485 66.6903C18.5139 66.0659 18.2946 64.9419 18.5765 63.8804C18.8584 62.7876 19.6416 61.8821 20.5187 61.164C22.5236 59.5717 25.1237 58.916 27.5985 58.4789C33.4565 57.4174 39.4711 57.1364 45.2038 55.4192C46.7702 54.9508 48.2425 54.2952 49.7462 53.7019C51.2185 53.1399 52.8475 52.7028 54.3824 53.2961C54.9463 53.5458 54.727 54.4513 54.1632 54.2327Z" fill="#EDEDED"/>
<path d="M46.8327 86.4228C45.517 87.0472 44.0446 87.0472 42.635 87.016C41.1626 86.9848 39.5963 86.5165 38.8758 85.1115C38.7192 84.8305 38.6252 84.5182 38.5939 84.1748C38.5625 84.0187 38.5625 83.8626 38.5939 83.7065C38.6252 83.3942 38.6252 83.3942 38.3119 83.363C37.4348 83.2381 36.5577 83.363 35.6805 83.363C34.3335 83.3318 32.8298 82.9259 32.172 81.6458C31.3575 79.991 32.0467 78.2426 32.7672 76.6815C32.8925 76.9312 33.0491 77.1498 33.1744 77.3996C30.449 77.0561 28.4128 74.0588 29.3213 71.4049C29.5092 70.8429 30.4177 71.0927 30.2297 71.6547C29.5406 73.6841 31.0129 76.1819 33.1744 76.4629C33.5503 76.4941 33.7383 76.8376 33.5817 77.181C33.0491 78.3675 32.3599 79.8349 32.9551 81.1462C33.519 82.3951 35.054 82.4888 36.2757 82.4576C37.0275 82.4263 37.7794 82.3951 38.5312 82.4888C38.8131 82.52 39.1264 82.5825 39.3457 82.8322C39.5963 83.1132 39.565 83.4255 39.5336 83.7377C39.4397 85.1739 40.8807 85.9232 42.1024 86.0481C42.8856 86.1418 43.6687 86.0793 44.4205 86.0481C45.1097 86.0169 45.7363 85.9232 46.3628 85.6422C46.8953 85.3612 47.3965 86.173 46.8327 86.4228Z" fill="#EDEDED"/>
<path d="M61.2115 45.0535C63.3731 44.7725 64.2502 47.0517 64.5008 48.8001C64.8141 51.173 63.6863 53.3273 61.8381 54.826C61.8067 54.5762 61.7754 54.3264 61.7441 54.0766C63.8743 55.669 65.096 58.0731 65.7539 60.5709C66.0984 61.9759 66.4117 63.4745 65.9731 64.8795C65.5659 66.1284 64.7201 67.1275 63.8116 68.0329C63.5923 68.2827 63.3417 68.5013 63.1225 68.7198C62.9971 68.8447 62.8718 68.9384 62.7779 69.0633C62.6526 69.1882 62.6526 69.1882 62.7779 69.3443C63.1851 69.8751 63.6237 70.3746 63.9056 70.999C64.4695 72.2167 64.6574 73.5593 64.4382 74.8706C64.2189 76.0883 63.6237 77.2747 62.7779 78.1801C62.3706 78.6485 61.8694 79.0231 61.3369 79.3666C61.1176 79.4915 60.773 79.6164 60.6477 79.8349C60.4597 80.1159 60.679 80.4906 60.8043 80.7716C61.3682 82.1454 61.0862 83.5816 60.1778 84.7056C59.238 85.8608 57.8596 86.4228 56.4186 86.6101C56.168 86.6413 55.9487 86.3603 55.9487 86.1418C55.9487 85.8608 56.168 85.7047 56.4186 85.6734C57.609 85.5173 58.7681 85.0178 59.5199 84.0499C59.8645 83.6128 60.1151 83.082 60.1778 82.52C60.2718 81.8643 60.0211 81.3648 59.8332 80.7716C59.6139 80.1784 59.6452 79.5539 60.0838 79.1168C60.491 78.7109 61.0549 78.5236 61.4935 78.1801C62.4333 77.462 63.1225 76.4005 63.4357 75.2765C63.7803 74.09 63.6863 72.8412 63.2164 71.7172C62.9971 71.1239 62.6526 70.5932 62.214 70.1248C61.8067 69.6565 61.5561 69.1257 61.9947 68.5949C62.3706 68.1266 62.8718 67.7519 63.2791 67.3148C63.7177 66.8777 64.1249 66.4094 64.4695 65.9098C64.8141 65.4103 65.096 64.8483 65.2213 64.2551C65.3779 63.537 65.3153 62.7876 65.19 62.1007C64.6888 59.4156 63.5923 56.6056 61.3369 54.9196C61.1176 54.7635 60.9923 54.3889 61.2429 54.1703C62.7779 52.9214 63.8743 51.173 63.6863 49.1436C63.561 47.801 63.0285 45.7716 61.3055 45.9901C60.6163 46.0838 60.6163 45.1471 61.2115 45.0535Z" fill="#EDEDED"/>
<path d="M29.4154 58.6351C28.8515 57.5111 28.3503 56.0436 29.478 55.0758C29.7287 54.8572 30.0106 54.7011 30.2299 54.4825C30.2925 54.4513 30.3239 54.3889 30.3865 54.3264C30.5118 54.2015 30.4805 54.1079 30.5745 54.3264C30.6685 54.545 30.6058 54.4825 30.4492 54.4201C30.1359 54.3264 29.8226 54.1079 29.6034 53.8581C28.6009 52.7341 28.4129 50.8608 28.7575 49.4558C28.9142 48.7377 29.2901 48.0196 30.0419 47.801C30.6371 47.6137 30.8564 48.5191 30.2925 48.7064C30.1672 48.7377 30.0419 48.8313 29.9479 49.0187C29.7913 49.2684 29.7287 49.5182 29.666 49.7992C29.5407 50.4237 29.5407 51.1105 29.666 51.735C29.7913 52.297 29.9793 52.9527 30.4178 53.3585C30.6371 53.5459 30.8251 53.5459 31.0757 53.6395C31.6396 53.8893 31.5769 54.4513 31.2323 54.8572C31.013 55.107 30.7624 55.3255 30.5118 55.5129C30.2612 55.7002 29.9793 55.8875 29.8853 56.1998C29.6347 56.8554 30.0106 57.6047 30.2925 58.198C30.4805 58.6975 29.6973 59.1659 29.4154 58.6351Z" fill="#EDEDED"/>
<path d="M9.80501 9.52268C9.42909 9.49146 9.02185 9.49146 8.64594 9.49146C8.27002 9.49146 7.86278 9.46024 7.48687 9.46024C7.20493 9.49146 7.11095 9.58512 7.01697 9.77246C6.98565 9.8349 6.95432 10.0222 6.92299 10.1159C6.92299 10.1783 6.92299 10.3657 6.92299 10.4593C6.95432 11.0213 7.11095 11.677 7.51819 12.1141C7.8941 12.52 8.42665 12.7073 8.92787 12.52C9.17848 12.4263 9.42909 12.6137 9.49175 12.8322C9.5544 13.082 9.39777 13.3318 9.17848 13.3942C8.58328 13.5816 7.8941 13.4879 7.36156 13.1444C6.79769 12.801 6.42177 12.239 6.20249 11.6146C5.82657 10.553 5.8579 8.67968 7.29891 8.49235C7.70615 8.42991 8.11339 8.46113 8.52063 8.49235C8.9592 8.49235 9.36644 8.52357 9.80501 8.52357C10.0556 8.52357 10.2749 8.74213 10.2749 8.9919C10.2749 9.30413 10.0556 9.52268 9.80501 9.52268Z" fill="#EDEDED"/>
<path d="M7.11095 8.46124C7.20493 7.8368 7.29891 7.18113 7.39289 6.55669C7.54952 6.74403 7.70615 6.96258 7.83146 7.14991C7.14228 7.21236 6.4531 7.2748 5.7326 7.33725C5.48199 7.36847 5.01209 7.30602 4.91811 7.5558C4.79281 7.8368 4.88679 8.33635 4.85546 8.64857C4.82414 10.116 4.85546 11.5522 4.91811 13.0197C5.07475 15.9233 5.38801 18.7958 5.79525 21.6682C6.57841 27.4443 7.39289 33.1892 8.2387 38.934C9.05318 44.6165 9.99297 50.2677 11.3087 55.8564C12.5931 61.2266 14.2847 66.5032 16.3835 71.6236C17.4173 74.1526 18.5764 76.6816 19.7981 79.1169C20.0174 79.554 20.268 80.2409 20.7692 80.397C21.2078 80.5219 21.6463 80.1784 21.8656 79.835C22.5548 78.711 21.4584 77.2748 20.9572 76.2757C20.6752 75.7137 20.4873 75.1517 20.4246 74.5272C20.362 73.934 21.3018 73.934 21.3644 74.5272C21.521 75.901 22.6175 76.9938 22.8994 78.3363C23.15 79.4916 22.7741 80.7717 21.5837 81.2712C21.0512 81.4898 20.4873 81.4273 20.0174 81.1151C19.5162 80.7717 19.2655 80.2409 19.0149 79.7101C18.3571 78.3988 17.7306 77.0875 17.1354 75.7761C14.7232 70.4684 12.7497 64.9421 11.2147 59.3221C9.61706 53.4523 8.58329 47.4889 7.67483 41.4942C6.76637 35.4059 5.92056 29.3176 5.07475 23.1981C4.63618 20.1383 4.26026 17.0785 4.07231 13.9876C3.97833 12.4577 3.91568 10.9278 3.947 9.39791C3.947 9.05446 3.947 8.6798 3.97832 8.33635C3.97832 7.99291 3.97833 7.61824 4.07231 7.2748C4.29159 6.58791 4.98077 6.52547 5.6073 6.49425C6.35913 6.4318 7.11095 6.36936 7.83146 6.30692C8.17605 6.27569 8.33268 6.61914 8.27003 6.90014C8.17605 7.52458 8.08207 8.18024 7.98809 8.80469C7.92544 9.30424 7.01697 9.05446 7.11095 8.46124Z" fill="#EDEDED"/>
<path d="M17.292 67.5335C16.1329 64.9733 15.3811 62.1945 14.6606 59.5094C13.6268 55.6066 12.7184 51.6727 11.9039 47.7387C10.9954 43.3676 10.181 38.9965 9.42912 34.6254C8.73995 30.6289 8.14475 26.6013 7.67485 22.5736C7.36159 19.8261 7.017 17.0161 7.11098 14.2373C7.11098 14.0188 7.14231 13.8002 7.14231 13.6129C7.20496 13.0197 8.14475 13.0197 8.0821 13.6129C7.86281 16.1419 8.17607 18.7333 8.45801 21.2623C8.86525 25.1338 9.42912 28.9742 10.0556 32.8145C10.7762 37.1856 11.5593 41.5255 12.4678 45.8653C13.2822 49.893 14.1907 53.9206 15.2245 57.9171C15.9763 60.7895 16.7281 63.7244 17.8559 66.4719C17.9499 66.7217 18.0125 66.8154 18.1065 67.0964C18.3571 67.5959 17.5426 68.0955 17.292 67.5335Z" fill="#EDEDED"/>
<path d="M44.9847 29.5673H45.016C44.9847 29.5986 44.9533 29.5986 44.8907 29.6298C44.922 29.5986 44.9533 29.5986 44.9847 29.5673C44.9533 29.5986 44.922 29.6298 44.8907 29.6298C44.922 29.5986 44.9533 29.5673 45.016 29.5361L44.9847 29.5673C44.9847 29.5673 45.016 29.5049 45.0473 29.4737C45.016 29.5049 45.016 29.5361 44.9847 29.5673C45.016 29.5361 45.016 29.4737 45.0473 29.4112C45.0473 29.4424 45.0473 29.5049 45.016 29.5361C45.016 29.4737 45.016 29.4424 45.016 29.38C45.016 29.4112 45.016 29.4737 45.0473 29.5049C45.0473 29.4737 45.0473 29.4424 45.016 29.4424C45.0473 29.4737 45.0473 29.5049 45.0787 29.5673C45.0787 29.5361 45.0473 29.5361 45.0473 29.5049C45.0787 29.5361 45.11 29.5673 45.11 29.5986C45.11 29.5673 45.0787 29.5673 45.0787 29.5673C45.11 29.5986 45.1413 29.6298 45.1726 29.6298C45.1413 29.6298 45.1413 29.5986 45.11 29.5986C45.1413 29.6298 45.1726 29.6298 45.2353 29.661C45.1726 29.6298 45.11 29.6298 45.0473 29.5986C45.0787 29.5986 45.1413 29.5986 45.1726 29.6298C45.11 29.6298 45.0473 29.6298 44.9533 29.6298C44.9847 29.6298 45.0473 29.6298 45.0787 29.5986C45.016 29.5986 44.9847 29.6298 44.922 29.6298C44.9533 29.5986 44.9847 29.5986 45.0473 29.5673C45.016 29.5986 44.9533 29.5986 44.922 29.6298C44.9533 29.6298 44.9847 29.5986 44.9847 29.5673C44.9847 29.6298 44.9533 29.6298 44.922 29.6922C44.9533 29.661 44.9533 29.6298 44.9847 29.5673C44.9533 29.6298 44.9533 29.661 44.922 29.6922C44.9533 29.661 44.9533 29.6298 44.9847 29.5673C44.9533 29.6298 44.9533 29.661 44.9533 29.6922C44.9533 29.661 44.9533 29.6298 44.9847 29.5673C44.9533 29.6298 44.9533 29.661 44.9533 29.6922C44.9533 29.661 44.9533 29.5986 44.922 29.5673C44.922 29.5986 44.922 29.6298 44.9533 29.661C44.922 29.6298 44.922 29.5986 44.8907 29.5361C44.8907 29.5673 44.922 29.5986 44.922 29.5986C44.8907 29.5673 44.8594 29.5361 44.8594 29.5049C44.922 29.5361 44.922 29.5673 44.9847 29.5673C44.922 29.5673 44.8907 29.5361 44.8594 29.5049C44.8907 29.5361 44.922 29.5361 44.9533 29.5673C44.922 29.5361 44.8907 29.5361 44.828 29.5049C44.8594 29.5049 44.8907 29.5361 44.922 29.5361C44.8907 29.5361 44.828 29.5361 44.7967 29.5049C44.828 29.5049 44.8594 29.5049 44.8907 29.5049C44.8594 29.5049 44.7967 29.5049 44.7654 29.5361C44.7967 29.5361 44.828 29.5361 44.828 29.5049C44.7967 29.5361 44.7654 29.5361 44.7027 29.5673C44.7027 29.5673 44.7341 29.5673 44.7341 29.5361C44.828 29.4737 44.9847 29.4424 45.11 29.4737C45.204 29.5049 45.3293 29.5986 45.3919 29.6922C45.5172 29.9108 45.4546 30.1918 45.2353 30.3479C44.922 30.5352 44.4521 30.4728 44.2328 30.1606C44.1389 30.0669 44.1075 29.9732 44.0449 29.8483C44.0136 29.7547 44.0136 29.661 44.0136 29.5986C44.0136 29.4112 44.0762 29.2239 44.2015 29.0678C44.4208 28.7868 44.7967 28.6307 45.1413 28.6931C45.3606 28.7243 45.6112 28.7868 45.7678 28.9429C45.9245 29.099 45.9871 29.3488 45.9558 29.5673C45.9558 29.661 45.9245 29.7547 45.8931 29.8483C45.8618 29.9732 45.7992 30.0357 45.7365 30.1293C45.6112 30.2854 45.4232 30.4103 45.2353 30.4728C45.11 30.504 44.9847 30.4728 44.8594 30.4103C44.7654 30.3479 44.6714 30.2542 44.6401 30.1293C44.6088 30.0044 44.6088 29.8796 44.7027 29.7547C44.7654 29.661 44.8594 29.5986 44.9847 29.5673Z" fill="#EDEDED"/>
<path d="M37.4036 29.2239C37.4662 29.1926 37.4976 29.1614 37.5289 29.1302C37.4976 29.1614 37.4662 29.1926 37.4349 29.1926C37.4976 29.1614 37.5289 29.099 37.5602 29.0678C37.5289 29.099 37.4976 29.1302 37.4976 29.1614C37.5289 29.1302 37.5602 29.099 37.5602 29.0365C37.5289 29.0678 37.5289 29.099 37.4976 29.1614C37.4976 29.1302 37.5289 29.099 37.5289 29.0365C37.5289 29.0678 37.5289 29.1302 37.4976 29.1614C37.4976 29.1302 37.4976 29.099 37.4976 29.0365C37.4976 29.0678 37.4976 29.1302 37.5289 29.1614C37.5289 29.1302 37.4976 29.0678 37.4976 29.0365C37.5289 29.0678 37.5289 29.099 37.5602 29.1614C37.5289 29.1302 37.5289 29.099 37.4976 29.0678C37.5289 29.099 37.5602 29.1302 37.5602 29.1614C37.5289 29.1302 37.4976 29.099 37.4662 29.0678C37.4976 29.099 37.5289 29.1302 37.5602 29.1302C37.5289 29.099 37.4976 29.099 37.4662 29.0678C37.4976 29.099 37.5289 29.099 37.5915 29.1302C37.5602 29.1302 37.5289 29.099 37.4976 29.099C37.5289 29.099 37.5915 29.099 37.6229 29.1302C37.5915 29.1302 37.5289 29.1302 37.4976 29.1302C37.5289 29.1302 37.5915 29.1302 37.6229 29.099C37.5915 29.099 37.5289 29.1302 37.4976 29.1302C37.5289 29.099 37.5602 29.099 37.6229 29.0678C37.5915 29.099 37.5289 29.099 37.4976 29.1302C37.5289 29.099 37.5602 29.0678 37.5915 29.0678C37.5602 29.099 37.5289 29.1302 37.4976 29.1614C37.5289 29.1302 37.5602 29.099 37.5602 29.0678C37.5289 29.099 37.5289 29.1302 37.4976 29.1614C37.5289 29.1302 37.5289 29.099 37.5602 29.0365C37.5602 29.0678 37.5289 29.099 37.5289 29.1302C37.5289 29.099 37.5289 29.0365 37.5602 29.0053C37.5602 29.0365 37.5602 29.099 37.5602 29.1302C37.5602 29.099 37.5602 29.0365 37.5289 29.0053C37.5289 29.0365 37.5289 29.0677 37.5602 29.099C37.5289 29.0677 37.5289 29.0365 37.4976 28.9741C37.4976 29.0053 37.5289 29.0365 37.5602 29.0678C37.5289 29.0365 37.4976 29.0053 37.4976 28.9741C37.5289 29.0053 37.5289 29.0053 37.5602 29.0365C37.5289 29.0053 37.4976 28.9741 37.4662 28.9741C37.4976 29.0053 37.5289 29.0053 37.5602 29.0053C37.5289 28.9741 37.4976 28.9741 37.4349 28.9429C37.4662 28.9429 37.4976 28.9741 37.5289 28.9741C37.4976 28.9741 37.4349 28.9741 37.4036 28.9429C37.4349 28.9429 37.4662 28.9429 37.4976 28.9429C37.4662 28.9429 37.4036 28.9429 37.3722 28.9741C37.4036 28.9741 37.4349 28.9741 37.4662 28.9429C37.4349 28.9741 37.4036 28.9741 37.3409 29.0053C37.3409 29.0053 37.3722 29.0053 37.3722 28.9741C37.4662 28.9116 37.6229 28.8804 37.7482 28.9116C37.8421 28.9429 37.9675 29.0365 38.0301 29.1302C38.0928 29.2239 38.1241 29.38 38.0928 29.5049C38.0614 29.6298 37.9988 29.7234 37.8735 29.7859C37.4976 30.0044 36.965 29.8795 36.7457 29.4736C36.5578 29.1302 36.6204 28.6619 36.9024 28.3809C37.0277 28.256 37.1843 28.1623 37.3409 28.1311C37.4976 28.0999 37.6855 28.0999 37.8735 28.1311C37.9988 28.1935 38.0614 28.2247 38.1867 28.3184C38.2494 28.3809 38.312 28.4433 38.3434 28.5058C38.4373 28.6619 38.5 28.818 38.5 29.0053C38.5 29.1926 38.4373 29.38 38.3434 29.5361C38.2181 29.6922 38.0614 29.8483 37.9048 29.942C37.8108 30.0044 37.6542 30.0356 37.5289 30.0044C37.4349 29.9732 37.3096 29.8795 37.2469 29.7859C37.1843 29.6922 37.153 29.5361 37.1843 29.4112C37.2156 29.38 37.2783 29.2863 37.4036 29.2239Z" fill="#EDEDED"/>
<path d="M55.4789 20.2633C53.6933 18.4212 51.1559 17.3909 48.5871 17.4221C48.4618 17.4221 48.2112 17.4845 48.0859 17.4533C47.9293 17.5158 47.898 17.4533 48.0233 17.2972C48.0233 17.3284 48.0233 17.3909 48.0546 17.4221C48.2112 17.5782 48.3679 17.6719 48.5871 17.7655C49.3077 18.0778 50.0908 18.2963 50.8426 18.5461C51.5631 18.7959 52.2837 19.0144 53.0355 19.233C53.4114 19.3579 53.8186 19.4828 54.1946 19.5764C54.3199 19.6076 55.0717 19.8886 55.1657 19.7637C55.1343 19.8886 55.0717 19.9823 55.0404 20.1072C55.0717 19.9511 54.5705 19.6701 54.4452 19.6076C54.1946 19.4515 53.9126 19.3266 53.662 19.233C53.0981 19.0144 52.4716 18.8895 51.9077 18.7334C50.4667 18.3588 49.057 17.9529 47.616 17.5782C47.7413 17.2972 47.8666 17.0162 47.992 16.7352C49.0257 17.2972 50.0908 17.7655 51.2499 18.109C52.409 18.4524 53.6307 18.5461 54.7898 18.8895C55.385 19.0456 55.1343 19.9511 54.5391 19.795C53.3174 19.4515 52.0644 19.3266 50.874 18.9832C49.7149 18.6398 48.5871 18.1402 47.5534 17.5782C47.0835 17.3284 47.3967 16.5791 47.9293 16.7352C49.057 17.0474 50.1848 17.3596 51.3439 17.6719C52.221 17.828 53.1921 18.0465 54.1319 18.4212C54.5391 18.5773 54.9151 18.7646 55.2596 19.0456C55.5729 19.2954 56.0115 19.6389 56.0115 20.076C55.9802 21.2312 54.1006 20.5443 53.5367 20.3882C52.4716 20.076 51.4065 19.7325 50.3414 19.3579C49.8089 19.1705 49.2763 18.9832 48.7438 18.7959C48.3052 18.6398 47.8666 18.4836 47.5221 18.2026C47.2714 17.9841 47.0835 17.6406 47.0835 17.2972C47.0835 16.7664 47.4907 16.5791 47.9606 16.5479C48.8691 16.4542 49.7775 16.5479 50.6547 16.704C52.7222 17.0786 54.6645 18.1402 56.1055 19.6076C56.544 20.0135 55.8862 20.7004 55.4789 20.2633Z" fill="#EDEDED"/>
<path d="M43.2617 17.016C41.8833 16.454 40.411 16.2042 38.9073 16.2979C38.1868 16.3604 37.4663 16.4852 36.7458 16.7038C36.4012 16.7975 36.0566 16.9536 35.712 17.0785C35.5554 17.1409 35.3988 17.2658 35.2421 17.297C35.2108 17.297 35.2108 17.3282 35.1795 17.3282C35.0855 17.3907 35.0855 17.3595 35.1795 17.1721L35.3361 17.2658C35.5867 17.3595 35.9 17.3282 36.1819 17.297C36.6518 17.2658 37.0904 17.2346 37.5603 17.2034C38.4374 17.1409 39.2832 17.0785 40.1604 16.9848C40.5676 16.9536 40.9748 16.8911 41.3821 16.8599C41.57 16.8287 41.7893 16.8287 41.9773 16.7975C42.1966 16.7662 42.4472 16.6414 42.6665 16.6414C42.6978 16.6101 42.7604 16.6101 42.7918 16.5789C42.7918 16.7038 42.7918 16.8287 42.7604 16.9536C42.7604 16.9536 42.5412 16.8599 42.5098 16.8287C42.3532 16.7662 42.1652 16.735 42.0086 16.7038C41.6014 16.6414 41.1941 16.6726 40.7869 16.7038C38.8447 16.8599 36.8711 17.2034 34.9289 17.4844C34.8975 17.1721 34.8349 16.8599 34.8036 16.5789C36.0253 16.7038 37.247 16.7038 38.4374 16.5789C39.6278 16.4228 40.7869 16.0794 41.9773 15.9232C42.5725 15.8608 42.5725 16.7975 41.9773 16.8599C40.7869 17.016 39.6278 17.3595 38.4374 17.5156C37.2157 17.6717 35.994 17.6405 34.8036 17.5156C34.5529 17.4844 34.365 17.3595 34.3337 17.1097C34.3023 16.8911 34.4276 16.6414 34.6783 16.6101C35.806 16.454 36.9024 16.2979 38.0302 16.173C39.0639 16.0481 40.129 15.8296 41.1941 15.7984C41.6327 15.7984 42.0713 15.7984 42.5098 15.9232C42.9171 16.0169 43.5123 16.2042 43.6376 16.6726C43.9195 17.6717 42.1339 17.7654 41.5387 17.8278C40.411 17.9527 39.3145 18.0464 38.1868 18.14C37.6856 18.1712 37.1844 18.2025 36.6518 18.2337C36.1819 18.2649 35.712 18.3273 35.2421 18.2025C34.4903 18.0464 33.7385 17.0785 34.6469 16.5165C35.4301 16.0481 36.4012 15.7359 37.2783 15.5486C39.3459 15.1115 41.5387 15.2676 43.4809 16.0794C43.7316 16.173 43.8882 16.3916 43.7942 16.6414C43.7942 16.9224 43.5123 17.1097 43.2617 17.016Z" fill="#EDEDED"/>
<path d="M56.3561 7.08746C56.8259 6.11958 57.2645 5.15169 57.7344 4.15259C58.1416 3.30959 58.5489 2.49781 59.2067 1.84215C60.3658 0.718152 61.9321 0.156154 63.5298 0.0312651C64.2816 -0.0311791 65.284 -0.0311791 65.9732 0.312264C66.7877 0.718152 66.913 1.62359 66.9443 2.43537C66.9443 3.27837 66.9443 4.21503 66.4431 4.93314C65.9419 5.68247 65.0961 5.99469 64.2816 6.27569C61.9948 7.11869 59.708 7.99291 57.3585 8.71101C57.0766 8.80468 56.7633 8.5549 56.7633 8.2739C56.8886 5.52636 59.2067 3.21592 61.9635 3.05981C62.5587 3.02859 62.5587 3.96525 61.9635 3.99647C59.7393 4.12136 57.8284 6.05713 57.7031 8.24268C57.5151 8.08657 57.2958 7.93046 57.1079 7.80557C58.9248 7.24357 60.7104 6.58791 62.496 5.93225C63.2792 5.65125 64.125 5.40147 64.8768 5.0268C65.6286 4.65214 65.9419 4.05892 66.0045 3.21592C66.0359 2.68515 66.1612 1.65482 65.7226 1.21771C65.472 0.999151 65.0648 0.967929 64.7515 0.936707C64.3756 0.905484 64.031 0.905484 63.6551 0.936707C62.308 1.03037 60.9297 1.4987 59.9586 2.46659C59.3007 3.09103 58.9248 3.90281 58.5489 4.68336C58.1103 5.65125 57.6404 6.58791 57.2019 7.5558C56.9199 8.11779 56.1054 7.64946 56.3561 7.08746Z" fill="#EDEDED"/>
<path d="M65.5654 11.3961C66.1919 10.5219 66.8497 9.67886 67.4763 8.80464C68.0401 8.05531 68.604 7.30598 69.3872 6.77521C70.7655 5.83854 72.4885 5.58877 74.1174 5.80732C74.8693 5.90099 75.8091 6.08832 76.4043 6.58787C77.1248 7.18109 76.9995 8.14898 76.8428 8.96075C76.6862 9.74131 76.4669 10.6155 75.8717 11.1775C75.2139 11.802 74.3054 11.9269 73.4596 12.0517C71.0475 12.4264 68.6353 12.8011 66.2232 13.0821C65.91 13.1133 65.6907 12.7699 65.7846 12.4889C66.4738 9.83497 69.2305 8.05531 71.9246 8.4612C72.5198 8.55487 72.2692 9.46031 71.674 9.36664C69.4812 9.05442 67.2257 10.6155 66.6931 12.7386C66.5365 12.5513 66.3798 12.3327 66.2545 12.1454C68.1341 11.9581 69.9824 11.6459 71.8619 11.3649C72.6764 11.24 73.5222 11.1463 74.3367 10.959C75.0886 10.7716 75.5584 10.3345 75.7777 9.5852C75.8717 9.27298 75.9344 8.92953 75.997 8.58609C76.0597 8.24265 76.1536 7.80554 75.997 7.49331C75.8404 7.21232 75.4958 7.11865 75.2139 7.02498C74.8693 6.90009 74.4934 6.80643 74.1174 6.74398C72.7391 6.52543 71.2667 6.71276 70.0763 7.43087C69.3245 7.8992 68.792 8.58609 68.2594 9.3042C67.6329 10.1472 67.0064 10.9902 66.3798 11.8332C66.0353 12.364 65.2208 11.8956 65.5654 11.3961Z" fill="#EDEDED"/>
<path d="M30.9817 35.125C30.2925 35.0938 29.6033 35.2499 29.0081 35.5933C28.7575 35.7494 28.5069 35.3436 28.7575 35.1874C29.4153 34.8128 30.1985 34.6255 30.9503 34.6567C31.0756 34.6567 31.2009 34.7503 31.2009 34.9065C31.2323 35.0313 31.107 35.1562 30.9817 35.125Z" fill="#EDEDED"/>
<path d="M58.6427 97.6003C55.7294 99.661 52.0955 100.754 48.5243 100.41C47.6472 100.317 46.7701 100.192 45.9242 99.9107C45.1098 99.661 44.4832 99.1614 44.2013 98.3184C43.9194 97.4442 43.9507 96.4451 43.982 95.5396C44.0133 94.5718 44.076 93.6039 44.2326 92.636C44.5459 90.669 45.2037 88.8269 45.9556 86.9848C46.3002 86.1106 46.6448 85.2051 46.864 84.2685C47.0833 83.3318 47.052 82.3639 47.2086 81.4272C47.4906 79.7413 48.8063 78.1802 50.4039 77.5869C52.0329 76.9937 53.8811 77.4308 55.1968 78.5236C56.8571 79.8661 57.1704 81.9893 57.0451 83.9875C56.9511 85.7359 56.7631 87.859 55.3848 89.1391C55.2595 88.8581 55.1655 88.6083 55.0402 88.3273C56.2619 88.2961 57.4836 88.1088 58.6427 87.7029C59.7078 87.3595 60.7103 86.8287 61.838 86.6413C63.6549 86.3603 65.5032 87.2658 65.9417 89.1391C66.2237 90.2631 66.0984 91.4808 66.1297 92.636C66.1297 93.8849 66.1297 95.1025 66.1297 96.3514C66.1297 98.5994 66.1297 100.91 65.4405 103.064C65.1273 104.032 64.5007 105.219 63.279 104.906C62.0886 104.625 61.65 103.314 61.3368 102.284C61.5874 102.346 61.8693 102.409 62.1199 102.502C60.9609 103.938 58.7054 103.439 57.9849 101.847C58.2668 101.847 58.5174 101.847 58.7993 101.847C58.4861 102.346 57.9222 102.69 57.327 102.565C56.7631 102.44 56.3872 101.94 56.2619 101.409C56.1053 100.754 56.3559 100.192 56.6692 99.6297C57.0451 98.9116 57.421 98.2247 57.7969 97.5066C58.0788 96.9759 58.8933 97.4442 58.6114 97.975C58.1728 98.818 57.6716 99.6297 57.2957 100.504C57.1704 100.816 57.1077 101.191 57.327 101.472C57.5463 101.753 57.8596 101.628 58.0162 101.347C58.1728 101.066 58.674 101.004 58.8307 101.347C59.3319 102.44 60.6789 102.814 61.4934 101.815C61.744 101.534 62.1826 101.722 62.2766 102.034C62.4645 102.658 62.8091 103.97 63.6549 104.032C64.0308 104.063 64.2501 103.626 64.3754 103.345C64.5634 102.877 64.72 102.409 64.814 101.909C65.2839 99.942 65.2212 97.9125 65.2212 95.9143C65.2212 94.8528 65.2212 93.7912 65.2212 92.7609C65.2212 91.7618 65.2839 90.7002 65.1273 89.7011C64.8453 87.9214 63.185 87.297 61.5874 87.7029C60.5223 87.9839 59.5512 88.4834 58.5174 88.7957C57.3897 89.1391 56.2306 89.2952 55.0715 89.3264C54.6643 89.3264 54.445 88.7957 54.7269 88.5147C55.792 87.5468 55.98 85.9232 56.074 84.5495C56.1993 82.9884 56.2306 81.1775 55.1655 79.8661C54.2257 78.6797 52.5967 78.024 51.0931 78.3987C49.5581 78.7734 48.305 80.1784 48.0858 81.7395C47.9605 82.5825 47.9918 83.4567 47.8038 84.2997C47.6472 85.1115 47.3653 85.9232 47.052 86.7038C46.4255 88.2961 45.7676 89.8572 45.3604 91.5432C44.9531 93.2917 44.7965 95.1338 44.8905 96.9134C44.9218 97.6315 45.0158 98.4433 45.705 98.818C46.3628 99.1614 47.1773 99.2551 47.8978 99.3487C51.5003 99.8795 55.1655 98.818 58.1102 96.7261C58.674 96.4451 59.1439 97.2569 58.6427 97.6003Z" fill="#EDEDED"/>
<path d="M31.7649 79.4602C30.7937 79.0231 29.666 79.5227 28.9455 80.2408C28.0684 81.1462 27.8177 82.4888 27.7551 83.6752C27.6298 86.5477 28.1623 89.4513 28.8828 92.2301C29.3214 93.8224 29.8226 95.3835 30.3865 96.9446C30.4805 97.2256 30.2299 97.5379 29.9479 97.5379C29.1961 97.5066 28.4443 97.4442 27.7238 97.2881C27.0659 97.132 26.4081 96.8822 25.7502 96.8822C25.2177 96.8822 24.6538 97.0695 24.4032 97.5691C24.1526 98.0686 24.5285 98.4745 25.0297 98.4121C25.5623 98.3496 25.6562 99.1926 25.155 99.3175C24.6225 99.4736 23.8706 99.661 23.62 100.192C23.4634 100.504 23.62 101.066 24.0273 101.035C24.5285 100.972 24.5911 101.69 24.2779 101.909C23.9333 102.159 24.2779 102.721 24.5285 102.877C25.061 103.189 25.7815 103.064 26.3767 103.002C27.9744 102.846 29.5407 102.658 31.1383 102.502C32.7046 102.346 34.3023 102.159 35.8686 102.003C36.871 101.878 38.0614 101.722 38.7819 100.972C39.5338 100.223 39.4085 98.9116 39.2518 97.9437C39.0952 97.0071 38.8446 96.1016 38.5313 95.2274C37.8421 93.1355 36.965 91.1373 36.2445 89.0454C35.5553 87.0784 34.8348 84.8929 35.1794 82.801C35.2734 82.2078 36.1819 82.4576 36.0879 83.0508C35.9312 83.9562 36.0879 84.8929 36.2758 85.7671C36.5264 86.8911 36.871 87.9839 37.247 89.0454C38.0301 91.2622 39.0012 93.4478 39.6591 95.727C40.2543 97.694 40.9748 100.629 38.9699 102.034C37.9361 102.752 36.6204 102.846 35.3987 103.002C33.6758 103.189 31.9215 103.376 30.1985 103.564C29.2274 103.657 28.2876 103.782 27.3165 103.876C26.502 103.97 25.6249 104.126 24.8104 103.97C24.1212 103.845 23.526 103.408 23.3068 102.721C23.1188 102.096 23.2754 101.472 23.808 101.097C23.902 101.378 23.9646 101.69 24.0586 101.971C23.0875 102.096 22.5236 101.004 22.6802 100.161C22.8682 99.099 24.0273 98.6619 24.9357 98.4121C24.9671 98.7243 25.0297 99.0365 25.061 99.3175C24.3092 99.4112 23.5887 98.8804 23.4321 98.1623C23.2754 97.413 23.7453 96.6949 24.3719 96.289C25.1237 95.7894 26.0321 95.8831 26.878 96.0704C27.9117 96.3202 28.9142 96.57 29.9793 96.57C29.8226 96.7573 29.666 96.9759 29.5407 97.1632C28.4129 94.1346 27.5045 91.0124 27.0972 87.7966C26.9093 86.2355 26.7527 84.6431 26.9093 83.082C27.0346 81.7395 27.4732 80.3345 28.4756 79.3978C29.5094 78.4611 30.9504 78.0553 32.2661 78.6172C32.7673 78.8982 32.2974 79.71 31.7649 79.4602Z" fill="#EDEDED"/>
<path d="M18.9837 77.7117C19.109 77.7117 19.203 77.6805 19.3283 77.6493C19.4536 77.618 19.5789 77.5868 19.6729 77.5556C19.7982 77.5244 19.8921 77.4619 19.9861 77.4307C20.1114 77.3683 20.2367 77.3058 20.3307 77.2434C20.4247 77.1809 20.5813 77.2122 20.644 77.337C20.7066 77.4619 20.6753 77.5868 20.55 77.6493C20.0488 77.9303 19.5162 78.1176 18.921 78.1488C18.7957 78.1488 18.6704 78.0239 18.6704 77.899C18.7644 77.8054 18.8584 77.7117 18.9837 77.7117Z" fill="#EDEDED"/>
<path d="M17.95 75.8698C18.3885 75.6825 18.8271 75.4951 19.297 75.3703C19.4223 75.339 19.5476 75.4015 19.5789 75.5264C19.6103 75.6513 19.5476 75.7762 19.4223 75.8074C19.203 75.8698 18.9837 75.9323 18.7958 75.9947C18.7018 76.0259 18.5765 76.0572 18.4825 76.1196C18.4512 76.1196 18.4512 76.1508 18.4199 76.1508C18.4512 76.1508 18.3885 76.182 18.3572 76.182C18.2946 76.2133 18.2632 76.2133 18.2006 76.2445C18.0753 76.3069 17.95 76.2757 17.8873 76.1508C17.7933 76.0884 17.8247 75.9323 17.95 75.8698Z" fill="#EDEDED"/>
<path d="M17.1042 73.6217C17.4175 73.528 17.7307 73.4031 18.0753 73.3095C18.2006 73.2782 18.3259 73.3407 18.3573 73.4656C18.3886 73.5905 18.3259 73.7153 18.2006 73.7466C17.8874 73.8402 17.5741 73.9651 17.2295 74.0588C17.1042 74.09 16.9789 74.0276 16.9476 73.9027C16.9162 73.7778 16.9789 73.6529 17.1042 73.6217Z" fill="#EDEDED"/>
<path d="M16.1957 71.9357C16.5716 71.8732 16.9475 71.7796 17.2921 71.6547C17.4174 71.6235 17.5427 71.6859 17.574 71.8108C17.6054 71.9357 17.5427 72.0606 17.4174 72.0918C17.0415 72.2167 16.6969 72.3103 16.321 72.3728C16.1957 72.404 16.0704 72.3416 16.0391 72.2167C16.0077 72.123 16.0704 71.9669 16.1957 71.9357Z" fill="#EDEDED"/>
<path d="M15.5064 70.2809C15.851 70.0311 16.2269 69.8438 16.6342 69.7501C16.7595 69.7189 16.8848 69.7814 16.9161 69.9063C16.9474 70.0311 16.8848 70.156 16.7595 70.1872C16.6655 70.2185 16.5715 70.2185 16.4775 70.2497C16.4462 70.2497 16.3835 70.2809 16.3522 70.2809C16.3209 70.2809 16.3209 70.2809 16.2896 70.3121C16.3522 70.2809 16.2896 70.3121 16.2582 70.3121C16.1643 70.3434 16.1016 70.4058 16.0076 70.437C15.9763 70.4682 15.9137 70.4995 15.8823 70.4995C15.851 70.4995 15.851 70.5307 15.8197 70.5307C15.8197 70.5307 15.757 70.5931 15.7884 70.5619C15.7257 70.5931 15.6944 70.6243 15.6317 70.6243C15.5691 70.6243 15.5064 70.5931 15.4751 70.5619C15.4124 70.4995 15.3811 70.3434 15.5064 70.2809Z" fill="#EDEDED"/>
<path d="M14.598 67.8768C14.692 67.8768 14.786 67.8768 14.8486 67.8768C14.88 67.8768 14.9426 67.8768 14.9739 67.8768C14.9113 67.8768 14.9739 67.8768 15.0053 67.8768C15.0366 67.8768 15.0366 67.8768 15.0679 67.8768C15.1619 67.8456 15.2559 67.8456 15.3185 67.8144C15.3499 67.8144 15.4125 67.7831 15.4438 67.7831C15.4125 67.8144 15.4438 67.7831 15.4438 67.7831C15.4752 67.7831 15.4752 67.7519 15.5065 67.7519C15.6318 67.6895 15.7571 67.7207 15.8197 67.8456C15.8824 67.9393 15.8511 68.0954 15.7258 68.1578C15.3499 68.3451 14.9426 68.4388 14.5354 68.4076C14.4101 68.4076 14.2848 68.3139 14.2848 68.1578C14.3787 68.0017 14.4727 67.8768 14.598 67.8768Z" fill="#EDEDED"/>
<path d="M14.1281 66.472C14.3474 66.3472 14.598 66.2223 14.8173 66.0974C14.9113 66.0349 15.0679 66.0662 15.1305 66.191C15.1932 66.2847 15.1619 66.4408 15.0366 66.5033C14.8173 66.6281 14.5667 66.753 14.3474 66.8779C14.2534 66.9404 14.0968 66.9091 14.0341 66.7843C14.0028 66.6906 14.0341 66.5345 14.1281 66.472Z" fill="#EDEDED"/>
<path d="M13.439 64.2552C13.9089 64.3176 14.4101 64.2864 14.88 64.1303C15.0053 64.099 15.1306 64.1615 15.1619 64.2864C15.1933 64.4113 15.1306 64.5362 15.0053 64.5674C14.4414 64.7547 13.8776 64.7859 13.3137 64.6923C13.1884 64.661 13.1257 64.5049 13.157 64.4113C13.1884 64.2864 13.3137 64.2552 13.439 64.2552Z" fill="#EDEDED"/>
<path d="M12.8439 62.2257C13.3138 62.132 13.7836 62.0696 14.2535 62.0383C14.3788 62.0383 14.5042 62.1632 14.5042 62.2881C14.5042 62.413 14.4102 62.5067 14.2535 62.5379C14.0343 62.5379 13.815 62.5691 13.5957 62.6003C13.533 62.6003 13.533 62.6003 13.4704 62.6316C13.4077 62.6316 13.3764 62.6628 13.3138 62.6628C13.1884 62.694 13.0945 62.694 12.9692 62.7252C12.8439 62.7564 12.7186 62.694 12.6872 62.5691C12.6559 62.3818 12.7186 62.2569 12.8439 62.2257Z" fill="#EDEDED"/>
<path d="M12.5307 59.8527C12.8752 59.8215 13.1885 59.7903 13.5331 59.759C13.6584 59.759 13.7837 59.8839 13.7837 60.0088C13.7837 60.1337 13.6897 60.2274 13.5331 60.2586C13.1885 60.2898 12.8752 60.321 12.5307 60.3523C12.4053 60.3523 12.28 60.2274 12.28 60.1025C12.3114 59.9464 12.4053 59.8527 12.5307 59.8527Z" fill="#EDEDED"/>
<path d="M12.0293 58.0107C12.4052 58.0419 12.8124 58.0107 13.1884 57.9795C13.3137 57.9795 13.439 58.1044 13.439 58.2293C13.439 58.3542 13.345 58.4478 13.1884 58.4791C12.8124 58.5103 12.4365 58.5415 12.0293 58.5103C11.904 58.5103 11.7787 58.4166 11.7787 58.2605C11.81 58.1044 11.904 58.0107 12.0293 58.0107Z" fill="#EDEDED"/>
<path d="M11.4342 56.3248C11.8101 56.1374 12.2173 56.0438 12.6559 56.075C12.7812 56.075 12.9065 56.1687 12.9065 56.3248C12.9065 56.4497 12.8125 56.5746 12.6559 56.5746C12.5619 56.5746 12.4679 56.5746 12.374 56.5746C12.3426 56.5746 12.3426 56.5746 12.3113 56.5746C12.3113 56.5746 12.2173 56.5746 12.28 56.5746C12.2486 56.5746 12.186 56.5746 12.1547 56.6058C12.0607 56.637 11.9667 56.637 11.9041 56.6682C11.8727 56.6682 11.8101 56.6994 11.7788 56.7307C11.7788 56.7307 11.7161 56.7619 11.7474 56.7307C11.7161 56.7307 11.6848 56.7619 11.6848 56.7619C11.5595 56.8243 11.4342 56.7931 11.3715 56.6682C11.2775 56.5433 11.3089 56.3872 11.4342 56.3248Z" fill="#EDEDED"/>
<path d="M10.9641 54.1081C11.0581 54.1393 11.1208 54.1393 11.2148 54.1705H11.2461C11.2148 54.1705 11.2148 54.1705 11.2461 54.1705C11.2774 54.1705 11.2774 54.1705 11.3087 54.1705C11.3401 54.1705 11.4027 54.1705 11.434 54.1705C11.528 54.1705 11.622 54.1705 11.6846 54.1705C11.716 54.1705 11.716 54.1705 11.7473 54.1705C11.716 54.1705 11.7473 54.1705 11.7786 54.1705C11.8099 54.1705 11.8726 54.1393 11.9039 54.1393C12.0292 54.1081 12.1545 54.1705 12.1859 54.2954C12.2172 54.4203 12.1545 54.5452 12.0292 54.5764C11.622 54.6701 11.2147 54.6701 10.8075 54.5452C10.6822 54.5139 10.5882 54.3891 10.6509 54.2642C10.7135 54.1393 10.8388 54.0768 10.9641 54.1081Z" fill="#EDEDED"/>
<path d="M10.4629 52.6094C10.7135 52.5469 10.9641 52.4845 11.2147 52.422C11.34 52.3908 11.4653 52.4532 11.4967 52.5781C11.528 52.703 11.4653 52.8279 11.34 52.8591C11.0894 52.9216 10.8388 52.984 10.5882 53.0465C10.4629 53.0777 10.3376 53.0153 10.3063 52.8904C10.2749 52.7655 10.3376 52.6406 10.4629 52.6094Z" fill="#EDEDED"/>
<path d="M10.0243 51.017C10.1183 51.0482 10.2123 51.0482 10.3062 51.0482C10.2436 51.0482 10.3376 51.0482 10.3376 51.0482C10.3689 51.0482 10.3689 51.0482 10.4002 51.0482C10.4629 51.0482 10.4942 51.0482 10.5568 51.0482C10.7448 51.0794 10.9328 51.0794 11.1207 51.0794C11.246 51.0794 11.3713 51.1731 11.3713 51.3292C11.3713 51.4541 11.2774 51.579 11.1207 51.579C10.7135 51.579 10.3062 51.5478 9.899 51.4541C9.77369 51.4229 9.71104 51.2668 9.74237 51.1731C9.77369 51.0482 9.86767 50.9858 10.0243 51.017Z" fill="#EDEDED"/>
<path d="M9.61699 49.2685C10.0242 49.1436 10.4315 49.1124 10.8701 49.2061C10.9954 49.2373 11.058 49.3934 11.0267 49.4871C10.9954 49.612 10.8701 49.6744 10.7447 49.6432C10.7134 49.6432 10.6821 49.6432 10.6821 49.6432C10.6508 49.6432 10.6821 49.6432 10.6821 49.6432H10.6508C10.6194 49.6432 10.5568 49.6432 10.5255 49.6432C10.4315 49.6432 10.3375 49.6432 10.2435 49.6432C10.2122 49.6432 10.1495 49.6432 10.1182 49.6432C10.1809 49.6432 10.1182 49.6432 10.0869 49.6432C10.0556 49.6432 10.0242 49.6432 10.0242 49.6432C9.93026 49.6744 9.83628 49.6744 9.7423 49.7056C9.617 49.7368 9.49169 49.6744 9.46036 49.5495C9.42903 49.4246 9.49169 49.2997 9.61699 49.2685Z" fill="#EDEDED"/>
<path d="M9.46038 47.0205C9.49171 47.0517 9.49171 47.0517 9.46038 47.0205H9.49171C9.52304 47.0205 9.52304 47.0205 9.55437 47.0517C9.58569 47.0517 9.64835 47.0829 9.67968 47.0829C9.77366 47.1141 9.83631 47.1141 9.93029 47.1454H9.96161C9.93029 47.1454 9.93029 47.1454 9.96161 47.1454C9.99294 47.1454 9.99294 47.1454 10.0243 47.1454C10.0556 47.1454 10.1182 47.1454 10.1496 47.1454C10.2436 47.1454 10.3375 47.1454 10.4315 47.1454C10.5568 47.1454 10.6821 47.2702 10.6821 47.3951C10.6821 47.52 10.5881 47.6137 10.4315 47.6449C10.0243 47.6761 9.61702 47.6137 9.2411 47.4576C9.11579 47.3951 9.08446 47.239 9.14712 47.1454C9.20977 46.9892 9.33508 46.9892 9.46038 47.0205Z" fill="#EDEDED"/>
<path d="M9.17871 45.4594C9.42932 45.4282 9.71126 45.3969 9.96187 45.3657C10.0245 45.3657 10.0872 45.3969 10.1185 45.4282C10.1498 45.4594 10.1812 45.5218 10.1812 45.5843C10.1812 45.6467 10.1498 45.7092 10.1185 45.7404C10.0558 45.7716 10.0245 45.8028 9.96187 45.8028C9.71126 45.834 9.42932 45.8653 9.17871 45.8965C9.11606 45.8965 9.05341 45.8653 9.02208 45.834C8.99075 45.8028 8.95943 45.7404 8.95943 45.6779C8.95943 45.6155 8.99075 45.5531 9.02208 45.5218C9.05341 45.4594 9.11606 45.4594 9.17871 45.4594Z" fill="#EDEDED"/>
<path d="M9.05336 43.5548C9.14734 43.5861 9.24132 43.5861 9.33529 43.5861C9.27264 43.5861 9.36662 43.5861 9.36662 43.5861C9.39795 43.5861 9.39795 43.5861 9.42927 43.5861C9.49193 43.5861 9.52325 43.5861 9.58591 43.5861C9.77387 43.6173 9.96182 43.6173 10.1498 43.6173C10.2751 43.6173 10.4004 43.7109 10.4004 43.8671C10.4004 43.9919 10.3064 44.1168 10.1498 44.1168C9.74254 44.1168 9.33529 44.0856 8.92805 43.9919C8.80274 43.9607 8.74009 43.8046 8.77142 43.7109C8.80274 43.5861 8.92805 43.5236 9.05336 43.5548Z" fill="#EDEDED"/>
<path d="M8.6773 41.8064C9.08454 41.6815 9.49179 41.6502 9.93036 41.7439C10.0557 41.7751 10.1183 41.9312 10.087 42.0249C10.0557 42.1498 9.93036 42.2122 9.80505 42.181C9.77373 42.181 9.7424 42.181 9.7424 42.181C9.71107 42.181 9.7424 42.181 9.7424 42.181H9.71107C9.67975 42.181 9.6171 42.181 9.58577 42.181C9.49179 42.181 9.39781 42.181 9.30383 42.181C9.2725 42.181 9.20985 42.181 9.17853 42.181C9.24118 42.181 9.17852 42.181 9.1472 42.181C9.11587 42.181 9.08455 42.181 9.08455 42.181C8.99057 42.2122 8.89659 42.2122 8.80261 42.2435C8.67731 42.2747 8.552 42.2122 8.52067 42.0874C8.48934 41.9625 8.552 41.8376 8.6773 41.8064Z" fill="#EDEDED"/>
<path d="M8.52072 39.5586H8.55205C8.58337 39.5586 8.58337 39.5586 8.6147 39.5898C8.64602 39.5898 8.70868 39.621 8.74 39.621C8.83398 39.6522 8.89663 39.6522 8.99061 39.6835H9.02193C8.99061 39.6835 8.99061 39.6835 9.02193 39.6835C9.05326 39.6835 9.05326 39.6835 9.08459 39.6835C9.11591 39.6835 9.17857 39.6835 9.20989 39.6835C9.30387 39.6835 9.39785 39.6835 9.49182 39.6835C9.61713 39.6835 9.74243 39.8083 9.74243 39.9332C9.74243 40.0581 9.64845 40.1518 9.49182 40.1518C9.08459 40.183 8.67735 40.1206 8.30144 39.9645C8.17613 39.902 8.14481 39.7459 8.20746 39.6522C8.27011 39.5273 8.39541 39.4961 8.52072 39.5586Z" fill="#EDEDED"/>
<path d="M8.20752 37.9972C8.45813 37.966 8.74006 37.9348 8.99067 37.9036C9.05333 37.9036 9.11598 37.9348 9.1473 37.966C9.17863 37.9972 9.20996 38.0597 9.20996 38.1221C9.20996 38.1846 9.17863 38.247 9.1473 38.2782C9.08465 38.3095 9.05333 38.3407 8.99067 38.3407C8.74006 38.3719 8.45813 38.4031 8.20752 38.4343C8.14487 38.4343 8.08221 38.4031 8.05089 38.3719C8.01956 38.3407 7.98824 38.2782 7.98824 38.2158C7.98824 38.1533 8.01956 38.0909 8.05089 38.0597C8.08221 37.9972 8.14487 37.9972 8.20752 37.9972Z" fill="#EDEDED"/>
<path d="M7.83168 36.1239C7.92566 36.1551 8.01964 36.1551 8.11362 36.1551C8.05097 36.1551 8.14494 36.1551 8.14494 36.1551C8.17627 36.1551 8.17627 36.1551 8.20759 36.1551C8.27025 36.1551 8.30157 36.1551 8.36423 36.1551C8.55218 36.1864 8.74014 36.1864 8.9281 36.1864C9.0534 36.1864 9.17871 36.28 9.17871 36.4361C9.17871 36.561 9.08473 36.6859 8.9281 36.6859C8.52086 36.6859 8.11362 36.6547 7.70638 36.561C7.58107 36.5298 7.51842 36.3737 7.54975 36.28C7.58107 36.1551 7.70638 36.0927 7.83168 36.1239Z" fill="#EDEDED"/>
<path d="M7.45564 34.3755C7.86287 34.2506 8.27011 34.2193 8.70868 34.313C8.83398 34.3442 8.89663 34.5003 8.86531 34.594C8.83398 34.7189 8.70868 34.7813 8.58338 34.7501C8.55205 34.7501 8.52072 34.7501 8.52072 34.7501C8.48939 34.7501 8.52072 34.7501 8.52072 34.7501H8.4894C8.45807 34.7501 8.39542 34.7501 8.36409 34.7501C8.27011 34.7501 8.17614 34.7501 8.08216 34.7501C8.05083 34.7501 7.98818 34.7501 7.95685 34.7501C8.01951 34.7501 7.95685 34.7501 7.92553 34.7501C7.8942 34.7501 7.86288 34.7501 7.86288 34.7501C7.7689 34.7813 7.67492 34.7813 7.58094 34.8126C7.45563 34.8438 7.33033 34.7813 7.29901 34.6565C7.26768 34.5316 7.33033 34.4067 7.45564 34.3755Z" fill="#EDEDED"/>
<path d="M7.29903 32.1276C7.33035 32.1276 7.33035 32.1276 7.29903 32.1276H7.33036C7.36168 32.1276 7.36168 32.1276 7.39301 32.1588C7.42433 32.1588 7.48698 32.19 7.51831 32.19C7.61229 32.2212 7.67494 32.2212 7.76892 32.2525H7.80025C7.76892 32.2525 7.76892 32.2525 7.80025 32.2525C7.83158 32.2525 7.83158 32.2525 7.8629 32.2525C7.89423 32.2525 7.95688 32.2525 7.98821 32.2525C8.08218 32.2525 8.17617 32.2525 8.27015 32.2525C8.39545 32.2525 8.52075 32.3773 8.52075 32.5022C8.52075 32.6271 8.42678 32.7208 8.27015 32.752C7.8629 32.7832 7.45566 32.7208 7.07974 32.5647C6.95444 32.5022 6.92311 32.3461 6.98576 32.2525C7.04842 32.0963 7.17372 32.0651 7.29903 32.1276Z" fill="#EDEDED"/>
<path d="M6.98584 30.5353C7.23645 30.5041 7.51839 30.4729 7.769 30.4417C7.83165 30.4417 7.8943 30.4729 7.92563 30.5041C7.95696 30.5353 7.98828 30.5978 7.98828 30.6602C7.98828 30.7227 7.95696 30.7851 7.92563 30.8163C7.86298 30.8475 7.83165 30.8788 7.769 30.8788C7.51839 30.91 7.23645 30.9412 6.98584 30.9724C6.92319 30.9724 6.86053 30.9412 6.82921 30.91C6.79788 30.8788 6.76656 30.8163 6.76656 30.7539C6.76656 30.6914 6.79788 30.629 6.82921 30.5978C6.89186 30.5665 6.92319 30.5665 6.98584 30.5353Z" fill="#EDEDED"/>
<path d="M6.73525 28.4435C6.82923 28.4747 6.92321 28.4747 7.01719 28.4747C6.95454 28.4747 7.04851 28.4747 7.04851 28.4747C7.07984 28.4747 7.07984 28.4747 7.11116 28.4747C7.17382 28.4747 7.20514 28.4747 7.26779 28.4747C7.45575 28.5059 7.64371 28.5059 7.83167 28.5059C7.95697 28.5059 8.08228 28.5996 8.08228 28.7557C8.08228 28.8806 7.9883 29.0055 7.83167 29.0055C7.42443 29.0055 7.01719 28.9743 6.60995 28.8806C6.48464 28.8494 6.42199 28.6933 6.45332 28.5996C6.51597 28.4747 6.60995 28.4123 6.73525 28.4435Z" fill="#EDEDED"/>
<path d="M6.35919 26.6948C6.76643 26.5699 7.17367 26.5387 7.61224 26.6323C7.73755 26.6636 7.8002 26.8197 7.76887 26.9133C7.73755 27.0382 7.61224 27.1007 7.48694 27.0695C7.45561 27.0695 7.42428 27.0695 7.42428 27.0695C7.39295 27.0695 7.42428 27.0695 7.42428 27.0695H7.39296C7.36163 27.0695 7.29898 27.0695 7.26765 27.0695C7.17367 27.0695 7.07969 27.0695 6.98571 27.0695C6.95439 27.0695 6.89174 27.0695 6.86041 27.0695C6.92306 27.0695 6.86041 27.0695 6.82908 27.0695C6.79776 27.0695 6.76643 27.0695 6.76643 27.0695C6.67245 27.1007 6.57847 27.1007 6.48449 27.1319C6.35919 27.1631 6.23388 27.1007 6.20256 26.9758C6.17123 26.8509 6.23388 26.726 6.35919 26.6948Z" fill="#EDEDED"/>
<path d="M6.2026 24.4469C6.23392 24.4469 6.23392 24.4469 6.2026 24.4469H6.23393C6.26525 24.4469 6.26525 24.4469 6.29658 24.4781C6.3279 24.4781 6.39055 24.5093 6.42188 24.5093C6.51586 24.5406 6.57851 24.5406 6.67249 24.5718H6.70382C6.67249 24.5718 6.67249 24.5718 6.70382 24.5718C6.73514 24.5718 6.73514 24.5718 6.76647 24.5718C6.7978 24.5718 6.86045 24.5718 6.89177 24.5718C6.98575 24.5718 7.07973 24.5718 7.17371 24.5718C7.29902 24.5718 7.42432 24.6967 7.42432 24.8216C7.42432 24.9465 7.33034 25.0401 7.17371 25.0713C6.76647 25.1026 6.35923 25.0401 5.98331 24.884C5.85801 24.8216 5.82668 24.6655 5.88934 24.5718C5.95199 24.4157 6.07729 24.3845 6.2026 24.4469Z" fill="#EDEDED"/>
<path d="M5.92066 22.8547C6.17127 22.8234 6.45321 22.7922 6.70381 22.761C6.76647 22.761 6.82912 22.7922 6.86044 22.8234C6.89177 22.8547 6.9231 22.9171 6.9231 22.9795C6.9231 23.042 6.89177 23.1044 6.86044 23.1357C6.79779 23.1669 6.76647 23.1981 6.70381 23.1981C6.45321 23.2293 6.17127 23.2605 5.92066 23.2918C5.85801 23.2918 5.79536 23.2605 5.76403 23.2293C5.73271 23.1981 5.70138 23.1357 5.70138 23.0732C5.70138 23.0108 5.73271 22.9483 5.76403 22.9171C5.79536 22.8859 5.82669 22.8859 5.92066 22.8547Z" fill="#EDEDED"/>
<path d="M5.79531 21.0749C5.88929 21.1061 5.98327 21.1061 6.07725 21.1061C6.0146 21.1061 6.10857 21.1061 6.10857 21.1061C6.1399 21.1061 6.1399 21.1061 6.17122 21.1061C6.23387 21.1061 6.2652 21.1061 6.32785 21.1061C6.51581 21.1373 6.70377 21.1373 6.89172 21.1373C7.01703 21.1373 7.14233 21.231 7.14233 21.3871C7.14233 21.512 7.04835 21.6369 6.89172 21.6369C6.48448 21.6369 6.07725 21.6056 5.67001 21.512C5.5447 21.4807 5.48205 21.3246 5.51338 21.231C5.5447 21.1061 5.67001 21.0436 5.79531 21.0749Z" fill="#EDEDED"/>
<path d="M5.41949 19.3266C5.82673 19.2017 6.23397 19.1705 6.67254 19.2642C6.79785 19.2954 6.8605 19.4515 6.82918 19.5452C6.79785 19.6701 6.67255 19.7325 6.54724 19.7013C6.51591 19.7013 6.48458 19.7013 6.48458 19.7013C6.45326 19.7013 6.48458 19.7013 6.48458 19.7013H6.45326C6.42193 19.7013 6.35928 19.7013 6.32795 19.7013C6.23397 19.7013 6.13999 19.7013 6.04601 19.7013C6.01469 19.7013 5.95204 19.7013 5.92071 19.7013C5.98336 19.7013 5.92071 19.7013 5.88938 19.7013C5.85806 19.7013 5.82673 19.7013 5.82673 19.7013C5.73275 19.7325 5.63877 19.7325 5.54479 19.7637C5.41948 19.795 5.29418 19.7325 5.26285 19.6076C5.2002 19.4827 5.29418 19.3578 5.41949 19.3266Z" fill="#EDEDED"/>
<path d="M5.2314 17.0785C5.26272 17.0785 5.26272 17.0785 5.2314 17.0785H5.26273C5.29405 17.0785 5.29405 17.0785 5.32538 17.1097C5.3567 17.1097 5.41936 17.1409 5.45069 17.1409C5.54466 17.1722 5.60731 17.1722 5.70129 17.2034H5.73262C5.70129 17.2034 5.70129 17.2034 5.73262 17.2034C5.76395 17.2034 5.76395 17.2034 5.79527 17.2034C5.8266 17.2034 5.88925 17.2034 5.92058 17.2034C6.01456 17.2034 6.10854 17.2034 6.20251 17.2034C6.32782 17.2034 6.45312 17.3283 6.45312 17.4532C6.45312 17.578 6.35915 17.6717 6.20251 17.7029C5.79527 17.7342 5.38803 17.6717 5.01212 17.5156C4.88681 17.4532 4.85548 17.297 4.91814 17.2034C5.01212 17.0473 5.13742 17.016 5.2314 17.0785Z" fill="#EDEDED"/>
<path d="M4.94971 15.5175C5.20032 15.4863 5.48226 15.4551 5.73287 15.4238C5.79552 15.4238 5.85817 15.455 5.8895 15.4863C5.92082 15.5175 5.95215 15.5799 5.95215 15.6424C5.95215 15.7048 5.92082 15.7673 5.8895 15.7985C5.82684 15.8297 5.79552 15.8609 5.73287 15.8609C5.48226 15.8922 5.20032 15.9234 4.94971 15.9546C4.88706 15.9546 4.82441 15.9234 4.79308 15.8922C4.76176 15.8609 4.73043 15.7985 4.73043 15.736C4.73043 15.6736 4.76176 15.6112 4.79308 15.5799C4.82441 15.5175 4.88706 15.5175 4.94971 15.5175Z" fill="#EDEDED"/>
<path d="M4.98077 13.6753C5.38801 13.5504 5.79525 13.5191 6.23382 13.6128C6.35913 13.644 6.42178 13.8001 6.39045 13.8938C6.35913 14.0187 6.23382 14.0811 6.10851 14.0499C6.07719 14.0499 6.04586 14.0499 6.04586 14.0499C6.01454 14.0499 6.04586 14.0499 6.04586 14.0499H6.01453C5.98321 14.0499 5.92056 14.0499 5.88923 14.0499C5.79525 14.0499 5.70128 14.0499 5.6073 14.0499C5.57597 14.0499 5.51331 14.0499 5.48199 14.0499C5.54464 14.0499 5.48199 14.0499 5.45066 14.0499C5.41934 14.0499 5.38801 14.0499 5.38801 14.0499C5.29403 14.0811 5.20005 14.0811 5.10607 14.1124C4.98077 14.1436 4.85546 14.0811 4.82414 13.9563C4.79281 13.8314 4.85546 13.7065 4.98077 13.6753Z" fill="#EDEDED"/>
<path d="M4.82418 11.4274H4.8555C4.88683 11.4274 4.88683 11.4274 4.91815 11.4586C4.94948 11.4586 5.01214 11.4898 5.04346 11.4898C5.13744 11.521 5.20009 11.521 5.29407 11.5523H5.3254C5.29407 11.5523 5.29407 11.5523 5.3254 11.5523C5.35672 11.5523 5.35672 11.5523 5.38805 11.5523C5.41937 11.5523 5.48203 11.5523 5.51335 11.5523C5.60733 11.5523 5.70131 11.5523 5.79529 11.5523C5.92059 11.5523 6.0459 11.6771 6.0459 11.802C6.0459 11.9269 5.95192 12.0206 5.79529 12.0518C5.38805 12.083 4.98081 12.0206 4.60489 11.8645C4.47959 11.802 4.44827 11.6459 4.51092 11.5523C4.57357 11.3961 4.69888 11.3649 4.82418 11.4274Z" fill="#EDEDED"/>
<path d="M4.51098 9.83512C4.76159 9.8039 5.04353 9.77268 5.29414 9.74146C5.3568 9.74146 5.41945 9.77268 5.45078 9.8039C5.4821 9.83512 5.51343 9.89757 5.51343 9.96001C5.51343 10.0225 5.4821 10.0849 5.45078 10.1161C5.38812 10.1473 5.3568 10.1786 5.29414 10.1786C5.04353 10.2098 4.76159 10.241 4.51098 10.2722C4.44832 10.2722 4.38567 10.241 4.35434 10.2098C4.32302 10.1786 4.29169 10.1161 4.29169 10.0537C4.29169 9.99123 4.32302 9.92879 4.35434 9.89757C4.38567 9.86634 4.44832 9.86634 4.51098 9.83512Z" fill="#EDEDED"/>
<path d="M4.63623 8.21134C4.88684 8.18012 5.16878 8.1489 5.41939 8.11768C5.48204 8.11768 5.54469 8.1489 5.57602 8.18012C5.60735 8.21134 5.63867 8.27379 5.63867 8.33623C5.63867 8.39868 5.60735 8.46112 5.57602 8.49234C5.51337 8.52357 5.48204 8.55479 5.41939 8.55479C5.16878 8.58601 4.88684 8.61723 4.63623 8.64846C4.57358 8.64846 4.51092 8.61723 4.4796 8.58601C4.44827 8.55479 4.41695 8.49234 4.41695 8.4299C4.41695 8.36745 4.44827 8.30501 4.4796 8.27379C4.54225 8.24257 4.57358 8.21134 4.63623 8.21134Z" fill="#EDEDED"/>
<path d="M65.4407 78.6799C66.0985 78.0867 66.2865 77.1813 66.6624 76.4319C67.0383 75.6826 67.6335 75.0269 68.4793 74.8708C69.3251 74.7459 70.077 75.1518 70.3276 75.9948C70.6095 76.9315 70.3276 77.993 69.9517 78.836C69.889 78.6175 69.8264 78.3989 69.795 78.1804C70.077 78.3365 70.4529 78.1804 70.7662 78.1179C71.1107 78.0243 71.518 77.9618 71.8626 78.0555C72.3011 78.1804 72.5831 78.555 72.7084 78.9921C72.8963 79.5229 73.0216 80.1161 72.9903 80.6781C72.959 81.646 72.2698 82.6763 71.1734 82.5515C70.0143 82.4266 69.6071 81.3338 68.9179 80.6157C69.1685 80.5532 69.4504 80.4908 69.7011 80.3971C69.4191 81.084 69.5758 81.8646 69.1685 82.5202C68.7926 83.1447 68.0721 83.3944 67.3829 83.1447C66.6937 82.8637 66.3491 82.208 66.1299 81.5524C66.0046 81.1465 65.9419 80.7406 65.9419 80.3347C65.9419 80.1474 65.9419 79.9912 65.9419 79.8039C65.9419 79.7102 65.9419 79.6166 65.9106 79.5229C65.8792 79.4605 65.8479 79.4917 65.8793 79.4605C65.378 79.7727 64.8768 78.9609 65.4094 78.6487C66.0046 78.274 66.6937 78.7424 66.819 79.3668C66.8817 79.7102 66.8504 80.0849 66.8504 80.4284C66.8817 80.803 66.9443 81.1465 67.101 81.4899C67.2576 81.8958 67.8528 82.6763 68.2914 82.0831C68.448 81.8646 68.5107 81.5211 68.542 81.2713C68.5733 80.8967 68.6046 80.4908 68.7613 80.1474C68.8866 79.8351 69.2625 79.6478 69.5444 79.9288C70.0456 80.4284 70.3902 81.3962 71.1107 81.5836C71.424 81.6772 71.7059 81.4899 71.8626 81.2089C72.0819 80.8342 72.0192 80.3971 71.9566 79.9913C71.8939 79.7415 71.8626 79.117 71.612 78.9609C71.4553 78.8672 71.2047 78.9609 71.0481 78.9921C70.4529 79.1483 69.8577 79.3356 69.2938 78.9921C69.0745 78.8673 69.0119 78.5863 69.1372 78.3365C69.4191 77.7433 69.6384 76.869 69.4191 76.2134C69.2312 75.6514 68.542 75.6826 68.1347 75.9948C67.6335 76.3695 67.3829 77.0251 67.1636 77.5871C66.913 78.2116 66.5998 78.8673 66.0985 79.3356C65.66 79.7415 65.0021 79.0858 65.4407 78.6799Z" fill="#EDEDED"/>
</g>
<defs>
<clipPath id="clip0_685_466">
<rect width="77" height="105" fill="white" transform="matrix(-1 0 0 1 77 0)"/>
</clipPath>
</defs>
</svg>
