<svg width="64" height="51" viewBox="0 0 64 51" fill="none" xmlns="http://www.w3.org/2000/svg">
<path d="M58.1131 46.0356C58.0507 45.9531 58.0042 45.8568 57.9795 45.7534C57.9557 45.6501 57.9503 45.5407 57.9656 45.4344C57.9953 45.2203 58.0908 45.0205 58.2155 44.8456C58.3422 44.6707 58.502 44.5202 58.6881 44.4034C58.8776 44.2857 59.08 44.2151 59.2834 44.1535C59.6917 44.0353 60.1044 43.9821 60.4834 43.8688C60.5775 43.8395 60.6705 43.8082 60.7591 43.7719C60.7813 43.7625 60.8036 43.754 60.8259 43.7446L60.8902 43.7123C60.9328 43.6909 60.9758 43.6706 61.0179 43.6482L61.1391 43.5722C61.1589 43.5593 61.1802 43.5478 61.1995 43.5339L61.2564 43.4902C61.294 43.4609 61.3331 43.4336 61.3697 43.4023L61.4756 43.3054C61.5122 43.2746 61.5439 43.2383 61.5761 43.203C61.6077 43.1672 61.6424 43.134 61.6726 43.0962C61.7314 43.0197 61.7938 42.9471 61.8453 42.8647C61.9561 42.7067 62.0462 42.5337 62.1283 42.3579C62.2827 42.0011 62.3921 41.6205 62.4366 41.232L62.4529 41.0864L62.4618 40.9403L62.4663 40.8673L62.4673 40.7932L62.4693 40.6452C62.4648 40.4469 62.4569 40.2487 62.4336 40.0499C62.3941 39.6525 62.3164 39.2555 62.2258 38.8595C62.1347 38.4625 62.0289 38.066 61.9234 37.665C61.82 37.2636 61.7171 36.8576 61.634 36.4467C61.4662 35.6264 61.3563 34.7807 61.3969 33.9311C61.4014 33.8253 61.4103 33.719 61.4177 33.6131C61.4301 33.5073 61.438 33.4015 61.4538 33.2966C61.4692 33.1913 61.4825 33.0864 61.5043 32.9816C61.5142 32.9294 61.5236 32.8768 61.535 32.8246L61.5731 32.6696C61.6236 32.4629 61.6904 32.2607 61.7616 32.0609C61.8393 31.8632 61.921 31.6674 62.0209 31.4806L62.0961 31.341C62.1229 31.2953 62.1506 31.2501 62.1778 31.2048C62.2308 31.1134 62.2921 31.027 62.3515 30.94C62.3802 30.8958 62.4129 30.8541 62.445 30.8123L62.5415 30.6871C62.6103 30.6071 62.6781 30.5266 62.7518 30.4516C62.827 30.3781 62.8983 30.301 62.979 30.234L63.0972 30.1306L63.2219 30.0357C63.3882 29.9095 63.5683 29.8042 63.7514 29.7093L63.6257 29.7997C63.5842 29.83 63.5411 29.8579 63.502 29.8921C63.4229 29.9582 63.3417 30.0203 63.2694 30.0934L63.1576 30.1982L63.0532 30.31C62.9814 30.382 62.9201 30.4645 62.8548 30.542C62.6014 30.86 62.399 31.2148 62.2397 31.5854C62.1971 31.6769 62.1639 31.7723 62.1268 31.8662C62.0912 31.9606 62.0625 32.0574 62.0298 32.1524C61.9744 32.3461 61.9234 32.5409 61.8888 32.7391C61.8171 33.1336 61.7794 33.5361 61.7819 33.9396C61.7839 34.0404 61.7829 34.1413 61.7888 34.2421L61.7958 34.3932L61.8072 34.5442C61.821 34.7455 61.8438 34.9467 61.87 35.1474C61.9264 35.5489 62.0011 35.9484 62.0922 36.3463C62.1823 36.7443 62.2857 37.1398 62.395 37.5378C62.5024 37.9363 62.6118 38.3383 62.7073 38.7472C62.7983 39.1576 62.88 39.5744 62.9186 40.0013C62.9404 40.2139 62.9463 40.4295 62.9478 40.6452L62.9433 40.8072L62.9409 40.8881L62.9349 40.9696L62.9216 41.1331L62.8993 41.2956C62.8389 41.7278 62.7098 42.1492 62.5207 42.5442C62.4218 42.7394 62.3149 42.9317 62.1803 43.1066C62.1174 43.1971 62.0422 43.2785 61.9705 43.362C61.9343 43.4038 61.8928 43.4405 61.8542 43.4798C61.8146 43.5185 61.7765 43.5583 61.7324 43.5926L61.6048 43.6989C61.5607 43.7327 61.5142 43.763 61.4687 43.7948L61.4004 43.842C61.3771 43.8574 61.3524 43.8698 61.3286 43.8837L61.1836 43.9652C61.1337 43.989 61.0822 44.0104 61.0317 44.0328L60.9555 44.0661C60.9298 44.076 60.9036 44.0844 60.8778 44.0939C60.7744 44.1317 60.669 44.1575 60.5641 44.1833C60.145 44.2782 59.7327 44.3056 59.3418 44.39C59.1473 44.4313 58.9514 44.4839 58.7821 44.5709C58.6099 44.6593 58.454 44.785 58.3214 44.9321C58.1913 45.0807 58.0859 45.2555 58.0379 45.4493C58.0126 45.5457 58.0057 45.6471 58.0166 45.7474C58.0295 45.8463 58.0626 45.9447 58.1131 46.0356Z" fill="#FDF9F9"/>
<path d="M0.272722 6.16759C-2.24905 11.6778 13.5476 13.5882 13.5476 13.5882C13.5476 13.5882 5.00252 -4.16661 0.272722 6.16759Z" fill="#FDF9F9"/>
<path d="M22.9023 11.0671C22.9023 11.0671 22.0022 -4.7693 15.3163 1.44592C11.7508 4.76048 22.9023 11.0671 22.9023 11.0671Z" fill="#FDF9F9"/>
<path d="M11.3945 33.0537C11.4643 33.0259 11.5346 32.9971 11.6054 32.9662C11.5326 32.9946 11.4623 33.0234 11.3945 33.0537Z" fill="#FDF9F9"/>
<path d="M24.1192 26.1518L22.1982 26.2879L24.1192 26.1518Z" fill="#FDF9F9"/>
<path d="M22.0893 26.2954L21.7048 26.3227L22.0893 26.2954Z" fill="#FDF9F9"/>
<path d="M21.7053 26.6427C21.7177 27.7333 21.8572 28.7096 22.7376 29.688C22.0571 28.8483 21.8206 27.8138 21.7409 27.1152C21.7201 26.9309 21.7102 26.7704 21.7053 26.6427Z" fill="#FDF9F9"/>
<path d="M52.8587 46.1882C56.3088 42.6247 57.4787 37.3982 54.1627 31.5984C53.0067 29.5767 49.3121 31.2113 44.9525 30.9266L45.434 30.5634C49.755 28.813 47.6499 24.0178 43.8242 24.5375C49.9826 22.0512 47.7464 14.3976 42.0358 15.5905C44.1488 10.8505 36.1782 6.45675 32.6301 10.4485C30.2034 5.15299 22.3283 7.32924 23.4165 11.8373C19.0737 8.06559 13.2196 10.8102 14.2884 14.9546C8.65603 12.0102 5.93285 17.1576 9.17513 19.5724C3.9673 19.8198 3.12457 26.0723 8.19829 26.7167C2.90436 29.9806 6.54449 34.976 11.3945 33.0537C11.4623 33.0234 11.5326 32.9941 11.6053 32.9662C11.5351 32.997 11.4648 33.0259 11.3945 33.0537C7.29617 34.8787 11.1372 41.0099 14.6136 37.4941C11.5197 41.6399 16.3178 45.0539 19.6373 42.1502C18.1612 45.0901 23.7842 48.7758 26.7023 45.5448C28.2601 46.9608 30.0787 47.9381 31.9017 48.8787C39.0875 52.5868 47.3995 51.1389 52.1828 46.8396L57.0496 48.5344L57.4539 46.7924L52.8587 46.1882ZM33.5812 27.4332C33.4749 28.1015 33.2289 28.729 32.8271 29.2353C32.2897 29.9125 31.543 30.3165 30.7903 30.6111C29.2488 31.2143 27.5792 31.5243 25.9759 31.2233C24.8031 31.0026 23.3591 30.4655 22.7375 29.688C21.8572 28.7096 21.7177 27.7333 21.7053 26.6427C21.6984 26.4425 21.7048 26.3227 21.7048 26.3227L22.0893 26.2954L22.1982 26.2874L24.1192 26.1513C24.0256 26.982 24.4463 27.86 25.4345 28.0389C25.9981 28.1412 26.5855 28.0359 27.1274 27.8312C27.3921 27.7313 27.6544 27.5942 27.8434 27.3646C28.1651 26.9736 28.2027 26.3694 28.0211 25.875L29.5843 25.7642L33.0854 25.5163L33.5164 25.486C33.656 26.126 33.6822 26.7977 33.5812 27.4332ZM42.2679 27.7696C41.8027 28.3936 41.1569 28.7658 40.5057 29.0371C40.2133 29.1588 39.9159 29.2676 39.6145 29.3605C38.1022 28.4855 36.5984 27.1654 35.1687 25.1993L35.7611 25.1322C35.8086 25.717 36.1678 26.2611 36.8671 26.3878C37.3387 26.4733 37.8301 26.3853 38.2833 26.2139C38.5045 26.1304 38.7243 26.0157 38.8826 25.8234C39.1137 25.5426 39.1696 25.1298 39.0845 24.7566L42.8676 24.3298C43.1106 25.5357 42.9434 26.8638 42.2679 27.7696Z" fill="#FDF9F9"/>
</svg>
